{"glyphs":{"0":{"ha":911,"x_min":50,"x_max":893,"o":"m 381 -14 q 189 29 265 -14 q 81 156 113 72 q 69 358 50 239 q 85 442 76 399 q 103 531 93 486 q 125 617 114 576 q 211 817 154 735 q 355 943 268 900 q 560 986 442 986 q 751 943 675 986 q 860 817 828 900 q 874 617 893 735 q 858 531 867 576 q 839 442 849 486 q 818 358 829 399 q 732 156 788 239 q 590 29 676 72 q 381 -14 504 -14 m 393 146 q 537 199 481 146 q 621 365 593 253 q 641 447 632 406 q 658 528 650 488 q 674 608 667 569 q 666 774 693 719 q 549 828 639 828 q 405 774 460 828 q 322 608 350 719 q 303 528 313 569 q 285 447 293 488 q 269 365 278 406 q 277 199 250 253 q 393 146 304 146 z "},"1":{"ha":638,"x_min":81,"x_max":654,"o":"m 293 0 q 270 10 278 0 q 265 33 263 19 l 415 739 l 178 582 q 151 576 164 574 q 132 590 139 578 l 85 674 q 85 700 81 686 q 104 722 89 714 l 467 963 q 483 971 476 969 q 500 972 489 972 l 625 972 q 647 963 639 972 q 651 939 654 953 l 458 33 q 444 10 456 19 q 419 0 433 0 l 293 0 z "},"2":{"ha":860,"x_min":0,"x_max":871,"o":"m 28 0 q 7 10 14 0 q 3 33 0 19 l 17 104 q 29 134 19 117 q 65 169 39 151 l 332 388 q 505 510 438 460 q 608 603 572 561 q 651 688 643 646 q 638 789 664 750 q 538 828 611 828 q 453 808 490 828 q 390 754 415 788 q 349 681 364 721 q 326 656 340 663 q 300 649 313 649 l 178 649 q 158 657 164 649 q 154 676 151 665 q 203 792 168 736 q 294 892 239 849 q 419 963 349 936 q 572 989 489 989 q 754 950 686 989 q 847 844 822 911 q 853 694 871 778 q 802 574 839 629 q 707 469 765 519 q 571 365 649 418 l 332 165 l 726 165 q 749 156 742 165 q 753 132 756 147 l 733 33 q 719 10 731 19 q 692 0 707 0 l 28 0 z "},"3":{"ha":875,"x_min":28,"x_max":899,"o":"m 361 -14 q 198 10 264 -14 q 94 72 132 33 q 42 155 56 110 q 36 244 28 200 q 49 265 39 257 q 71 272 58 272 l 196 272 q 220 267 211 272 q 233 244 229 261 q 259 185 236 207 q 319 153 282 163 q 396 144 356 144 q 537 184 479 144 q 611 297 594 224 q 588 403 626 371 q 467 436 549 436 l 324 436 q 301 445 308 436 q 296 469 294 454 l 308 528 q 320 552 313 542 q 336 569 328 563 l 636 813 l 239 813 q 217 822 225 813 q 213 846 210 832 l 232 938 q 247 963 235 953 q 274 972 258 972 l 869 972 q 892 963 885 972 q 896 938 899 953 l 879 854 q 869 832 876 842 q 853 815 861 822 l 560 568 l 576 567 q 718 528 660 560 q 802 438 776 497 q 807 288 828 378 q 723 126 788 193 q 565 22 658 58 q 361 -14 472 -14 z "},"4":{"ha":914,"x_min":4,"x_max":861,"o":"m 474 0 q 452 10 460 0 q 447 33 444 19 l 485 211 l 33 211 q 11 221 18 211 q 6 244 4 231 l 26 339 q 34 361 29 353 q 47 378 39 369 l 582 949 q 638 972 604 972 l 800 972 q 822 963 814 972 q 828 939 831 953 l 707 375 l 832 375 q 854 366 847 375 q 858 342 861 357 l 838 244 q 823 221 835 231 q 797 211 811 211 l 672 211 l 633 33 q 619 10 631 19 q 594 0 608 0 l 474 0 m 246 369 l 522 369 l 606 761 l 246 369 z "},"5":{"ha":860,"x_min":10,"x_max":854,"o":"m 347 -15 q 154 24 231 -15 q 44 126 78 63 q 19 264 10 190 q 32 284 22 276 q 54 292 42 292 l 185 292 q 210 285 200 292 q 219 264 219 279 q 239 196 219 222 q 290 157 258 169 q 360 144 322 144 q 458 165 411 144 q 538 225 504 185 q 583 324 571 265 q 564 447 600 401 q 446 493 528 493 q 378 483 406 493 q 329 461 350 474 q 292 439 308 449 q 258 429 275 429 l 132 429 q 111 440 118 429 q 108 463 104 450 l 256 935 q 274 963 261 953 q 304 972 288 972 l 825 972 q 847 963 839 972 q 851 939 854 953 l 832 846 q 817 822 828 832 q 792 813 806 813 l 390 813 l 319 586 q 390 618 347 603 q 507 633 433 633 q 631 610 575 633 q 726 546 688 588 q 781 445 765 504 q 781 313 796 386 q 704 138 760 211 q 559 24 649 64 q 347 -15 469 -15 z "},"6":{"ha":871,"x_min":39,"x_max":842,"o":"m 372 -14 q 176 31 253 -14 q 69 153 99 76 q 58 326 39 231 q 88 410 67 369 q 133 486 108 450 q 181 551 157 522 q 222 596 206 579 l 551 944 q 572 962 558 951 q 604 972 585 972 l 733 972 q 752 963 746 972 q 756 942 758 954 q 751 931 754 936 q 746 924 749 926 l 493 654 q 524 660 507 658 q 554 661 542 661 q 681 634 625 660 q 776 564 738 608 q 828 460 814 519 q 826 329 842 400 q 746 159 808 238 q 588 33 683 81 q 372 -14 492 -14 m 406 146 q 501 167 454 146 q 583 228 549 188 q 631 328 618 268 q 626 426 643 386 q 570 488 608 467 q 482 508 532 508 q 385 488 432 508 q 303 426 338 467 q 256 328 268 386 q 260 228 243 268 q 317 167 278 188 q 406 146 356 146 z "},"7":{"ha":754,"x_min":108,"x_max":851,"o":"m 133 0 q 115 9 121 0 q 111 31 108 18 q 117 43 113 38 l 613 807 l 176 807 q 155 817 163 807 q 150 840 147 826 l 171 938 q 185 963 174 953 q 213 972 197 972 l 822 972 q 844 963 838 972 q 849 938 851 953 l 831 851 q 820 819 826 832 q 804 792 814 806 l 313 33 q 292 12 306 24 q 260 0 279 0 l 133 0 z "},"8":{"ha":908,"x_min":25,"x_max":881,"o":"m 379 -14 q 178 27 260 -14 q 60 136 96 68 q 42 289 25 204 q 112 428 58 369 q 235 517 165 488 q 176 601 197 549 q 167 719 154 653 q 236 860 183 800 q 372 953 289 919 q 558 986 454 986 q 738 950 664 986 q 846 852 811 914 q 865 713 881 790 q 816 598 853 644 q 718 517 779 551 q 801 417 776 482 q 811 279 826 351 q 738 126 793 193 q 594 23 683 60 q 379 -14 504 -14 m 388 131 q 491 150 443 131 q 573 204 539 169 q 617 285 607 239 q 588 398 632 357 q 464 439 544 439 q 362 420 411 439 q 278 367 313 401 q 233 285 243 333 q 263 172 219 213 q 388 131 307 131 m 483 576 q 573 594 531 578 q 645 640 615 611 q 685 708 675 669 q 662 806 699 771 q 550 842 625 842 q 458 825 500 842 q 386 778 415 808 q 347 708 357 749 q 369 613 335 649 q 483 576 403 576 z "},"9":{"ha":857,"x_min":101,"x_max":886,"o":"m 188 0 q 169 9 175 0 q 165 31 163 18 q 169 42 167 38 q 175 49 172 46 l 439 331 q 379 325 410 324 q 255 352 310 326 q 164 422 200 378 q 115 523 128 465 q 117 649 101 581 q 167 772 131 711 q 259 881 203 832 q 392 958 315 929 q 563 986 468 986 q 721 960 656 986 q 824 887 786 933 q 874 781 863 840 q 871 654 886 721 q 828 543 858 594 q 760 449 797 492 q 688 367 722 407 l 369 28 q 351 10 364 21 q 317 0 338 0 l 188 0 m 454 472 q 550 494 504 472 q 628 555 596 515 q 672 649 661 594 q 669 744 685 704 q 616 805 653 783 q 529 826 579 826 q 435 805 481 826 q 358 744 390 783 q 313 649 325 704 q 317 555 301 594 q 369 494 333 515 q 454 472 406 472 z "},"A":{"ha":968,"x_min":-67,"x_max":872,"o":"m -36 0 q -60 14 -54 0 q -58 42 -67 28 l 467 938 q 488 962 475 951 q 522 972 501 972 l 683 972 q 714 962 704 972 q 725 938 724 951 l 869 42 q 863 11 872 22 q 839 0 854 0 l 721 0 q 694 9 703 0 q 682 32 685 18 l 651 196 l 239 196 l 138 26 q 119 8 131 17 q 92 0 108 0 l -36 0 m 321 356 l 638 356 l 571 785 l 321 356 z "},"Á":{"ha":968,"x_min":-67,"x_max":911,"o":"m -36 0 q -60 14 -54 0 q -58 42 -67 28 l 467 938 q 488 962 475 951 q 522 972 501 972 l 683 972 q 714 962 704 972 q 725 938 724 951 l 869 42 q 863 11 872 22 q 839 0 854 0 l 721 0 q 694 9 703 0 q 682 32 685 18 l 651 196 l 239 196 l 138 26 q 119 8 131 17 q 92 0 108 0 l -36 0 m 321 356 l 638 356 l 571 785 l 321 356 m 546 1042 q 528 1061 526 1042 q 538 1081 529 1072 l 682 1219 q 710 1240 699 1235 q 739 1244 721 1244 l 888 1244 q 906 1238 900 1244 q 910 1222 911 1231 q 897 1201 908 1208 l 694 1060 q 669 1046 681 1050 q 642 1042 658 1042 l 546 1042 z "},"Ă":{"ha":968,"x_min":-67,"x_max":872,"o":"m -36 0 q -60 14 -54 0 q -58 42 -67 28 l 467 938 q 488 962 475 951 q 522 972 501 972 l 683 972 q 714 962 704 972 q 725 938 724 951 l 869 42 q 863 11 872 22 q 839 0 854 0 l 721 0 q 694 9 703 0 q 682 32 685 18 l 651 196 l 239 196 l 138 26 q 119 8 131 17 q 92 0 108 0 l -36 0 m 321 356 l 638 356 l 571 785 l 321 356 m 617 1031 q 511 1056 551 1031 q 456 1124 471 1082 q 450 1214 440 1165 q 461 1233 453 1225 q 482 1240 469 1240 l 550 1240 q 568 1233 563 1240 q 571 1214 574 1225 q 574 1156 565 1182 q 625 1129 583 1129 q 688 1156 667 1129 q 718 1214 710 1182 q 729 1233 721 1225 q 750 1240 738 1240 l 818 1240 q 836 1233 831 1240 q 839 1214 842 1225 q 804 1124 829 1165 q 735 1056 779 1082 q 617 1031 690 1031 z "},"Â":{"ha":968,"x_min":-67,"x_max":872,"o":"m -36 0 q -60 14 -54 0 q -58 42 -67 28 l 467 938 q 488 962 475 951 q 522 972 501 972 l 683 972 q 714 962 704 972 q 725 938 724 951 l 869 42 q 863 11 872 22 q 839 0 854 0 l 721 0 q 694 9 703 0 q 682 32 685 18 l 651 196 l 239 196 l 138 26 q 119 8 131 17 q 92 0 108 0 l -36 0 m 321 356 l 638 356 l 571 785 l 321 356 m 386 1042 q 369 1058 368 1042 q 382 1079 371 1069 l 551 1222 q 581 1241 569 1238 q 604 1244 592 1244 l 685 1244 q 708 1241 699 1244 q 728 1222 717 1238 l 836 1079 q 840 1060 843 1071 q 818 1042 838 1042 l 765 1042 q 747 1044 756 1042 q 729 1051 738 1046 l 629 1125 l 497 1051 q 478 1044 488 1047 q 458 1042 469 1042 l 386 1042 z "},"Ä":{"ha":968,"x_min":-67,"x_max":875,"o":"m -36 0 q -60 14 -54 0 q -58 42 -67 28 l 467 938 q 488 962 475 951 q 522 972 501 972 l 683 972 q 714 962 704 972 q 725 938 724 951 l 869 42 q 863 11 872 22 q 839 0 854 0 l 721 0 q 694 9 703 0 q 682 32 685 18 l 651 196 l 239 196 l 138 26 q 119 8 131 17 q 92 0 108 0 l -36 0 m 321 356 l 638 356 l 571 785 l 321 356 m 711 1042 q 691 1050 697 1042 q 688 1072 685 1058 l 708 1174 q 722 1197 711 1188 q 747 1206 733 1206 l 849 1206 q 869 1197 863 1206 q 874 1174 876 1188 l 851 1072 q 838 1050 849 1058 q 813 1042 826 1042 l 711 1042 m 408 1042 q 388 1050 394 1042 q 385 1072 382 1058 l 406 1174 q 419 1197 408 1188 q 444 1206 431 1206 l 546 1206 q 567 1197 560 1206 q 571 1174 574 1188 l 549 1072 q 535 1050 546 1058 q 510 1042 524 1042 l 408 1042 z "},"À":{"ha":968,"x_min":-67,"x_max":872,"o":"m -36 0 q -60 14 -54 0 q -58 42 -67 28 l 467 938 q 488 962 475 951 q 522 972 501 972 l 683 972 q 714 962 704 972 q 725 938 724 951 l 869 42 q 863 11 872 22 q 839 0 854 0 l 721 0 q 694 9 703 0 q 682 32 685 18 l 651 196 l 239 196 l 138 26 q 119 8 131 17 q 92 0 108 0 l -36 0 m 321 356 l 638 356 l 571 785 l 321 356 m 579 1042 q 552 1046 561 1042 q 533 1060 543 1050 l 393 1199 q 388 1218 385 1207 q 419 1244 393 1244 l 563 1244 q 589 1240 581 1244 q 608 1219 597 1235 l 692 1082 q 694 1064 697 1074 q 668 1042 690 1042 l 579 1042 z "},"Ā":{"ha":968,"x_min":-67,"x_max":872,"o":"m -36 0 q -60 14 -54 0 q -58 42 -67 28 l 467 938 q 488 962 475 951 q 522 972 501 972 l 683 972 q 714 962 704 972 q 725 938 724 951 l 869 42 q 863 11 872 22 q 839 0 854 0 l 721 0 q 694 9 703 0 q 682 32 685 18 l 651 196 l 239 196 l 138 26 q 119 8 131 17 q 92 0 108 0 l -36 0 m 321 356 l 638 356 l 571 785 l 321 356 m 422 1042 q 403 1050 408 1042 q 399 1072 397 1058 l 414 1150 q 428 1172 417 1164 q 453 1181 439 1181 l 829 1181 q 849 1172 843 1181 q 853 1150 856 1164 l 838 1072 q 825 1050 836 1058 q 800 1042 814 1042 l 422 1042 z "},"Ą":{"ha":963,"x_min":-65,"x_max":867,"o":"m 719 -306 q 612 -278 653 -306 q 558 -204 571 -251 q 558 -96 546 -157 q 604 -3 571 -40 q 682 46 638 33 q 672 55 675 49 q 669 67 669 61 l 647 196 l 231 196 l 129 26 q 114 9 125 18 q 83 0 103 0 l -40 0 q -58 8 -51 0 q -62 29 -65 17 q -60 35 -62 32 q -57 42 -58 39 l 469 938 q 490 962 476 951 q 526 972 504 972 l 678 972 q 708 962 699 972 q 719 938 718 951 l 865 42 q 866 35 867 39 q 865 29 865 32 q 851 8 863 17 q 829 0 840 0 l 788 0 q 717 -28 746 0 q 679 -96 688 -56 q 689 -163 671 -136 q 751 -190 707 -190 l 769 -190 q 791 -199 783 -190 q 796 -224 799 -208 l 785 -272 q 770 -296 782 -286 q 743 -306 758 -306 l 719 -306 m 314 356 l 632 356 l 565 785 l 314 356 z "},"Å":{"ha":968,"x_min":-67,"x_max":872,"o":"m -36 0 q -60 14 -54 0 q -58 42 -67 28 l 467 938 q 488 962 475 951 q 522 972 501 972 l 683 972 q 714 962 704 972 q 725 938 724 951 l 869 42 q 863 11 872 22 q 839 0 854 0 l 721 0 q 694 9 703 0 q 682 32 685 18 l 651 196 l 239 196 l 138 26 q 119 8 131 17 q 92 0 108 0 l -36 0 m 321 356 l 638 356 l 571 785 l 321 356 m 608 1028 q 528 1060 558 1028 q 508 1143 497 1093 q 561 1226 519 1193 q 653 1258 603 1258 q 733 1226 703 1258 q 753 1143 764 1193 q 700 1060 742 1092 q 608 1028 658 1028 m 619 1101 q 653 1113 639 1101 q 672 1143 668 1125 q 668 1173 676 1161 q 642 1185 660 1185 q 608 1173 622 1185 q 589 1143 593 1161 q 593 1113 585 1125 q 619 1101 601 1101 z "},"Ã":{"ha":968,"x_min":-67,"x_max":872,"o":"m -36 0 q -60 14 -54 0 q -58 42 -67 28 l 467 938 q 488 962 475 951 q 522 972 501 972 l 683 972 q 714 962 704 972 q 725 938 724 951 l 869 42 q 863 11 872 22 q 839 0 854 0 l 721 0 q 694 9 703 0 q 682 32 685 18 l 651 196 l 239 196 l 138 26 q 119 8 131 17 q 92 0 108 0 l -36 0 m 321 356 l 638 356 l 571 785 l 321 356 m 704 1035 q 645 1047 668 1035 q 603 1071 622 1058 q 561 1083 585 1083 q 529 1073 540 1083 q 510 1052 518 1063 q 486 1042 501 1042 l 422 1042 q 407 1049 413 1042 q 403 1065 401 1056 q 419 1113 407 1086 q 451 1163 431 1139 q 499 1203 471 1188 q 564 1218 528 1218 q 623 1206 600 1218 q 665 1182 646 1194 q 706 1169 683 1169 q 739 1181 728 1169 q 758 1202 750 1192 q 781 1213 765 1213 l 844 1213 q 862 1205 857 1213 q 864 1188 867 1197 q 848 1140 860 1167 q 816 1090 836 1114 q 767 1051 796 1067 q 704 1035 739 1035 z "},"Æ":{"ha":1351,"x_min":-56,"x_max":1390,"o":"m -28 0 q -52 17 -49 0 q -49 46 -56 33 l 474 938 q 497 963 483 954 q 528 972 511 972 l 1360 972 q 1383 963 1375 972 q 1388 938 1390 953 l 1368 846 q 1353 822 1364 832 q 1326 813 1342 813 l 886 813 l 833 567 l 1243 567 q 1265 558 1258 567 q 1269 533 1272 549 l 1251 447 q 1238 423 1249 432 q 1211 414 1226 414 l 801 414 l 747 160 l 1199 160 q 1221 150 1214 160 q 1225 125 1228 140 l 1206 33 q 1192 10 1203 19 q 1165 0 1181 0 l 560 0 q 538 10 546 0 q 533 33 531 19 l 568 196 l 247 196 l 144 26 q 128 8 139 17 q 100 0 117 0 l -28 0 m 329 356 l 601 356 l 697 807 l 589 807 l 329 356 z "},"Ǽ":{"ha":1351,"x_min":-56,"x_max":1390,"o":"m -28 0 q -52 17 -49 0 q -49 46 -56 33 l 474 938 q 497 963 483 954 q 528 972 511 972 l 1360 972 q 1383 963 1375 972 q 1388 938 1390 953 l 1368 846 q 1353 822 1364 832 q 1326 813 1342 813 l 886 813 l 833 567 l 1243 567 q 1265 558 1258 567 q 1269 533 1272 549 l 1251 447 q 1238 423 1249 432 q 1211 414 1226 414 l 801 414 l 747 160 l 1199 160 q 1221 150 1214 160 q 1225 125 1228 140 l 1206 33 q 1192 10 1203 19 q 1165 0 1181 0 l 560 0 q 538 10 546 0 q 533 33 531 19 l 568 196 l 247 196 l 144 26 q 128 8 139 17 q 100 0 117 0 l -28 0 m 329 356 l 601 356 l 697 807 l 589 807 l 329 356 m 793 1042 q 775 1061 774 1042 q 785 1081 776 1072 l 929 1219 q 957 1240 946 1235 q 986 1244 968 1244 l 1135 1244 q 1153 1238 1147 1244 q 1157 1222 1158 1231 q 1144 1201 1156 1208 l 942 1060 q 917 1046 928 1050 q 889 1042 906 1042 l 793 1042 z "},"B":{"ha":956,"x_min":25,"x_max":946,"o":"m 56 0 q 33 10 40 0 q 28 33 25 19 l 221 938 q 235 963 224 953 q 261 972 246 972 l 653 972 q 823 938 756 972 q 918 844 890 904 q 929 706 946 785 q 890 610 917 650 q 831 547 863 571 q 769 510 799 522 q 848 425 818 482 q 861 288 878 368 q 797 139 843 204 q 674 37 751 74 q 482 0 596 0 l 56 0 m 244 147 l 476 147 q 599 188 549 147 q 661 288 649 229 q 647 389 674 349 q 538 429 621 429 l 306 429 l 244 147 m 336 574 l 550 574 q 668 609 621 574 q 729 701 715 644 q 715 793 742 760 q 617 826 689 826 l 390 826 l 336 574 z "},"C":{"ha":949,"x_min":50,"x_max":961,"o":"m 411 -14 q 245 11 317 -14 q 128 85 174 36 q 67 204 83 135 q 65 363 50 274 q 90 485 75 419 q 118 610 104 550 q 209 811 149 726 q 364 941 269 896 q 589 986 458 986 q 754 963 682 986 q 874 894 826 939 q 942 792 922 850 q 947 664 961 733 q 938 643 946 651 q 917 635 929 635 l 783 635 q 758 642 767 635 q 749 668 749 650 q 705 792 753 757 q 576 826 657 826 q 414 774 483 826 q 315 603 344 722 q 265 369 286 489 q 287 198 244 250 q 422 146 329 146 q 566 180 503 146 q 669 304 629 214 q 689 331 679 324 q 714 338 699 338 l 849 338 q 868 329 861 338 q 872 308 875 321 q 817 183 854 242 q 723 80 781 124 q 588 11 665 36 q 411 -14 511 -14 z "},"Ć":{"ha":949,"x_min":50,"x_max":961,"o":"m 411 -14 q 245 11 317 -14 q 128 85 174 36 q 67 204 83 135 q 65 363 50 274 q 90 485 75 419 q 118 610 104 550 q 209 811 149 726 q 364 941 269 896 q 589 986 458 986 q 754 963 682 986 q 874 894 826 939 q 942 792 922 850 q 947 664 961 733 q 938 643 946 651 q 917 635 929 635 l 783 635 q 758 642 767 635 q 749 668 749 650 q 705 792 753 757 q 576 826 657 826 q 414 774 483 826 q 315 603 344 722 q 265 369 286 489 q 287 198 244 250 q 422 146 329 146 q 566 180 503 146 q 669 304 629 214 q 689 331 679 324 q 714 338 699 338 l 849 338 q 868 329 861 338 q 872 308 875 321 q 817 183 854 242 q 723 80 781 124 q 588 11 665 36 q 411 -14 511 -14 m 551 1042 q 533 1061 532 1042 q 543 1081 535 1072 l 688 1219 q 715 1240 704 1235 q 744 1244 726 1244 l 893 1244 q 911 1238 906 1244 q 915 1222 917 1231 q 903 1201 914 1208 l 700 1060 q 675 1046 686 1050 q 647 1042 664 1042 l 551 1042 z "},"Č":{"ha":949,"x_min":50,"x_max":961,"o":"m 411 -14 q 245 11 317 -14 q 128 85 174 36 q 67 204 83 135 q 65 363 50 274 q 90 485 75 419 q 118 610 104 550 q 209 811 149 726 q 364 941 269 896 q 589 986 458 986 q 754 963 682 986 q 874 894 826 939 q 942 792 922 850 q 947 664 961 733 q 938 643 946 651 q 917 635 929 635 l 783 635 q 758 642 767 635 q 749 668 749 650 q 705 792 753 757 q 576 826 657 826 q 414 774 483 826 q 315 603 344 722 q 265 369 286 489 q 287 198 244 250 q 422 146 329 146 q 566 180 503 146 q 669 304 629 214 q 689 331 679 324 q 714 338 699 338 l 849 338 q 868 329 861 338 q 872 308 875 321 q 817 183 854 242 q 723 80 781 124 q 588 11 665 36 q 411 -14 511 -14 m 575 1042 q 553 1046 563 1042 q 532 1064 543 1050 l 424 1207 q 419 1226 417 1215 q 443 1244 422 1244 l 494 1244 q 514 1242 506 1244 q 531 1235 522 1240 l 631 1163 l 763 1235 q 783 1242 774 1240 q 801 1244 792 1244 l 875 1244 q 890 1228 893 1244 q 879 1208 890 1217 l 708 1064 q 681 1046 692 1050 q 657 1042 669 1042 l 575 1042 z "},"Ç":{"ha":949,"x_min":47,"x_max":960,"o":"m 324 -306 q 259 -292 286 -304 q 223 -262 232 -279 q 228 -235 214 -246 l 257 -214 q 279 -208 271 -203 q 300 -222 288 -212 q 340 -231 313 -231 q 381 -217 363 -231 q 403 -183 399 -204 q 395 -151 407 -164 q 361 -139 383 -139 q 326 -144 342 -139 q 299 -151 311 -149 q 279 -142 288 -153 l 260 -117 q 259 -97 254 -107 q 272 -74 264 -86 l 314 -8 q 151 53 213 6 q 69 178 90 100 q 65 363 47 257 q 89 485 75 419 q 118 610 103 550 q 214 811 149 726 q 378 941 279 896 q 606 986 478 986 q 769 961 700 986 q 883 892 839 936 q 943 790 926 849 q 947 664 960 732 q 934 643 944 651 q 911 635 924 635 l 779 635 q 756 642 764 635 q 747 668 749 650 q 698 793 744 760 q 571 826 651 826 q 410 774 476 826 q 314 603 344 722 q 288 488 300 546 q 265 369 276 429 q 289 198 244 250 q 426 146 333 146 q 568 180 507 146 q 671 304 629 214 q 690 331 679 324 q 717 338 700 338 l 847 338 q 867 329 860 338 q 871 308 875 321 q 814 182 856 240 q 710 80 772 124 q 568 11 649 36 q 393 -14 488 -14 l 351 -74 q 376 -67 361 -69 q 401 -64 392 -64 q 473 -97 450 -64 q 485 -182 496 -131 q 431 -271 474 -235 q 324 -306 389 -307 z "},"Ĉ":{"ha":949,"x_min":50,"x_max":961,"o":"m 411 -14 q 245 11 317 -14 q 128 85 174 36 q 67 204 83 135 q 65 363 50 274 q 90 485 75 419 q 118 610 104 550 q 209 811 149 726 q 364 941 269 896 q 589 986 458 986 q 754 963 682 986 q 874 894 826 939 q 942 792 922 850 q 947 664 961 733 q 938 643 946 651 q 917 635 929 635 l 783 635 q 758 642 767 635 q 749 668 749 650 q 705 792 753 757 q 576 826 657 826 q 414 774 483 826 q 315 603 344 722 q 265 369 286 489 q 287 198 244 250 q 422 146 329 146 q 566 180 503 146 q 669 304 629 214 q 689 331 679 324 q 714 338 699 338 l 849 338 q 868 329 861 338 q 872 308 875 321 q 817 183 854 242 q 723 80 781 124 q 588 11 665 36 q 411 -14 511 -14 m 392 1042 q 375 1058 374 1042 q 388 1079 376 1069 l 557 1222 q 586 1241 575 1238 q 610 1244 597 1244 l 690 1244 q 713 1241 704 1244 q 733 1222 722 1238 l 842 1079 q 846 1060 849 1071 q 824 1042 843 1042 l 771 1042 q 752 1044 761 1042 q 735 1051 743 1046 l 635 1125 l 503 1051 q 484 1044 493 1047 q 464 1042 475 1042 l 392 1042 z "},"Ċ":{"ha":949,"x_min":50,"x_max":961,"o":"m 411 -14 q 245 11 317 -14 q 128 85 174 36 q 67 204 83 135 q 65 363 50 274 q 90 485 75 419 q 118 610 104 550 q 209 811 149 726 q 364 941 269 896 q 589 986 458 986 q 754 963 682 986 q 874 894 826 939 q 942 792 922 850 q 947 664 961 733 q 938 643 946 651 q 917 635 929 635 l 783 635 q 758 642 767 635 q 749 668 749 650 q 705 792 753 757 q 576 826 657 826 q 414 774 483 826 q 315 603 344 722 q 265 369 286 489 q 287 198 244 250 q 422 146 329 146 q 566 180 503 146 q 669 304 629 214 q 689 331 679 324 q 714 338 699 338 l 849 338 q 868 329 861 338 q 872 308 875 321 q 817 183 854 242 q 723 80 781 124 q 588 11 665 36 q 411 -14 511 -14 m 557 1042 q 537 1050 543 1042 q 533 1072 531 1058 l 558 1189 q 572 1212 561 1203 q 596 1221 582 1221 l 713 1221 q 733 1212 726 1221 q 738 1189 740 1203 l 713 1072 q 699 1050 710 1058 q 674 1042 688 1042 l 557 1042 z "},"D":{"ha":975,"x_min":25,"x_max":954,"o":"m 56 0 q 33 10 40 0 q 28 33 25 19 l 221 938 q 235 963 224 953 q 261 972 246 972 l 579 972 q 744 948 671 972 q 867 876 818 924 q 935 757 915 828 q 938 594 954 686 q 915 486 925 533 q 890 379 906 439 q 803 166 860 250 q 655 41 747 82 q 419 0 563 0 l 56 0 m 249 160 l 426 160 q 558 182 504 160 q 644 253 611 204 q 696 383 678 303 q 714 456 707 425 q 727 519 721 488 q 740 590 733 550 q 720 758 763 704 q 558 813 678 813 l 388 813 l 249 160 z "},"Ð":{"ha":993,"x_min":28,"x_max":972,"o":"m 74 0 q 51 10 58 0 q 46 33 43 19 l 129 421 l 56 421 q 35 431 42 421 q 29 454 28 440 l 44 524 q 59 549 47 539 q 85 558 71 558 l 158 558 l 239 938 q 253 963 242 953 q 279 972 264 972 l 597 972 q 763 948 689 972 q 885 876 836 924 q 953 757 935 828 q 956 594 972 686 q 935 486 944 533 q 910 379 925 439 q 822 166 878 250 q 673 41 765 82 q 438 0 581 0 l 74 0 m 267 160 l 444 160 q 576 182 524 160 q 663 253 629 204 q 715 383 696 303 q 732 456 725 425 q 745 519 739 488 q 760 590 751 550 q 738 758 781 704 q 578 813 696 813 l 406 813 l 351 558 l 507 558 q 528 549 521 558 q 532 524 535 539 l 518 454 q 504 431 517 440 q 478 421 492 421 l 322 421 l 267 160 z "},"Ď":{"ha":975,"x_min":25,"x_max":954,"o":"m 56 0 q 33 10 40 0 q 28 33 25 19 l 221 938 q 235 963 224 953 q 261 972 246 972 l 579 972 q 744 948 671 972 q 867 876 818 924 q 935 757 915 828 q 938 594 954 686 q 915 486 925 533 q 890 379 906 439 q 803 166 860 250 q 655 41 747 82 q 419 0 563 0 l 56 0 m 249 160 l 426 160 q 558 182 504 160 q 644 253 611 204 q 696 383 678 303 q 714 456 707 425 q 727 519 721 488 q 740 590 733 550 q 720 758 763 704 q 558 813 678 813 l 388 813 l 249 160 m 525 1042 q 503 1046 513 1042 q 482 1064 493 1050 l 374 1207 q 369 1226 367 1215 q 393 1244 372 1244 l 444 1244 q 464 1242 456 1244 q 481 1235 472 1240 l 581 1163 l 713 1235 q 733 1242 724 1240 q 751 1244 742 1244 l 825 1244 q 840 1228 843 1244 q 829 1208 840 1217 l 658 1064 q 631 1046 642 1050 q 607 1042 619 1042 l 525 1042 z "},"Đ":{"ha":993,"x_min":28,"x_max":972,"o":"m 74 0 q 51 10 58 0 q 46 33 43 19 l 129 421 l 56 421 q 35 431 42 421 q 29 454 28 440 l 44 524 q 59 549 47 539 q 85 558 71 558 l 158 558 l 239 938 q 253 963 242 953 q 279 972 264 972 l 597 972 q 763 948 689 972 q 885 876 836 924 q 953 757 935 828 q 956 594 972 686 q 935 486 944 533 q 910 379 925 439 q 822 166 878 250 q 673 41 765 82 q 438 0 581 0 l 74 0 m 267 160 l 444 160 q 576 182 524 160 q 663 253 629 204 q 715 383 696 303 q 732 456 725 425 q 745 519 739 488 q 760 590 751 550 q 738 758 781 704 q 578 813 696 813 l 406 813 l 351 558 l 507 558 q 528 549 521 558 q 532 524 535 539 l 518 454 q 504 431 517 440 q 478 421 492 421 l 322 421 l 267 160 z "},"E":{"ha":863,"x_min":25,"x_max":901,"o":"m 56 0 q 33 10 40 0 q 28 33 25 19 l 221 938 q 235 963 224 953 q 261 972 246 972 l 872 972 q 894 963 888 972 q 899 938 901 953 l 879 846 q 865 822 876 832 q 839 813 854 813 l 382 813 l 329 567 l 756 567 q 778 558 771 567 q 782 533 785 549 l 764 447 q 750 423 761 432 q 724 414 739 414 l 297 414 l 242 160 l 711 160 q 733 150 726 160 q 738 125 740 140 l 718 33 q 704 10 715 19 q 678 0 693 0 l 56 0 z "},"É":{"ha":863,"x_min":25,"x_max":901,"o":"m 56 0 q 33 10 40 0 q 28 33 25 19 l 221 938 q 235 963 224 953 q 261 972 246 972 l 872 972 q 894 963 888 972 q 899 938 901 953 l 879 846 q 865 822 876 832 q 839 813 854 813 l 382 813 l 329 567 l 756 567 q 778 558 771 567 q 782 533 785 549 l 764 447 q 750 423 761 432 q 724 414 739 414 l 297 414 l 242 160 l 711 160 q 733 150 726 160 q 738 125 740 140 l 718 33 q 704 10 715 19 q 678 0 693 0 l 56 0 m 508 1042 q 490 1061 489 1042 q 500 1081 492 1072 l 644 1219 q 672 1240 661 1235 q 701 1244 683 1244 l 850 1244 q 868 1238 863 1244 q 872 1222 874 1231 q 860 1201 871 1208 l 657 1060 q 632 1046 643 1050 q 604 1042 621 1042 l 508 1042 z "},"Ĕ":{"ha":863,"x_min":25,"x_max":901,"o":"m 56 0 q 33 10 40 0 q 28 33 25 19 l 221 938 q 235 963 224 953 q 261 972 246 972 l 872 972 q 894 963 888 972 q 899 938 901 953 l 879 846 q 865 822 876 832 q 839 813 854 813 l 382 813 l 329 567 l 756 567 q 778 558 771 567 q 782 533 785 549 l 764 447 q 750 423 761 432 q 724 414 739 414 l 297 414 l 242 160 l 711 160 q 733 150 726 160 q 738 125 740 140 l 718 33 q 704 10 715 19 q 678 0 693 0 l 56 0 m 579 1031 q 474 1056 514 1031 q 418 1124 433 1082 q 413 1214 403 1165 q 424 1233 415 1225 q 444 1240 432 1240 l 513 1240 q 531 1233 525 1240 q 533 1214 536 1225 q 537 1156 528 1182 q 588 1129 546 1129 q 651 1156 629 1129 q 681 1214 672 1182 q 692 1233 683 1225 q 713 1240 700 1240 l 781 1240 q 799 1233 793 1240 q 801 1214 804 1225 q 767 1124 792 1165 q 697 1056 742 1082 q 579 1031 653 1031 z "},"Ě":{"ha":863,"x_min":25,"x_max":901,"o":"m 56 0 q 33 10 40 0 q 28 33 25 19 l 221 938 q 235 963 224 953 q 261 972 246 972 l 872 972 q 894 963 888 972 q 899 938 901 953 l 879 846 q 865 822 876 832 q 839 813 854 813 l 382 813 l 329 567 l 756 567 q 778 558 771 567 q 782 533 785 549 l 764 447 q 750 423 761 432 q 724 414 739 414 l 297 414 l 242 160 l 711 160 q 733 150 726 160 q 738 125 740 140 l 718 33 q 704 10 715 19 q 678 0 693 0 l 56 0 m 532 1042 q 510 1046 519 1042 q 489 1064 500 1050 l 381 1207 q 376 1226 374 1215 q 400 1244 379 1244 l 451 1244 q 471 1242 463 1244 q 488 1235 479 1240 l 588 1163 l 719 1235 q 740 1242 731 1240 q 758 1244 749 1244 l 832 1244 q 847 1228 850 1244 q 836 1208 847 1217 l 665 1064 q 638 1046 649 1050 q 614 1042 626 1042 l 532 1042 z "},"Ê":{"ha":863,"x_min":25,"x_max":901,"o":"m 56 0 q 33 10 40 0 q 28 33 25 19 l 221 938 q 235 963 224 953 q 261 972 246 972 l 872 972 q 894 963 888 972 q 899 938 901 953 l 879 846 q 865 822 876 832 q 839 813 854 813 l 382 813 l 329 567 l 756 567 q 778 558 771 567 q 782 533 785 549 l 764 447 q 750 423 761 432 q 724 414 739 414 l 297 414 l 242 160 l 711 160 q 733 150 726 160 q 738 125 740 140 l 718 33 q 704 10 715 19 q 678 0 693 0 l 56 0 m 349 1042 q 332 1058 331 1042 q 344 1079 333 1069 l 514 1222 q 543 1241 532 1238 q 567 1244 554 1244 l 647 1244 q 670 1241 661 1244 q 690 1222 679 1238 l 799 1079 q 803 1060 806 1071 q 781 1042 800 1042 l 728 1042 q 709 1044 718 1042 q 692 1051 700 1046 l 592 1125 l 460 1051 q 441 1044 450 1047 q 421 1042 432 1042 l 349 1042 z "},"Ë":{"ha":863,"x_min":25,"x_max":901,"o":"m 56 0 q 33 10 40 0 q 28 33 25 19 l 221 938 q 235 963 224 953 q 261 972 246 972 l 872 972 q 894 963 888 972 q 899 938 901 953 l 879 846 q 865 822 876 832 q 839 813 854 813 l 382 813 l 329 567 l 756 567 q 778 558 771 567 q 782 533 785 549 l 764 447 q 750 423 761 432 q 724 414 739 414 l 297 414 l 242 160 l 711 160 q 733 150 726 160 q 738 125 740 140 l 718 33 q 704 10 715 19 q 678 0 693 0 l 56 0 m 672 1042 q 652 1050 658 1042 q 649 1072 646 1058 l 669 1174 q 683 1197 672 1188 q 708 1206 694 1206 l 810 1206 q 831 1197 824 1206 q 835 1174 838 1188 l 813 1072 q 799 1050 810 1058 q 774 1042 788 1042 l 672 1042 m 369 1042 q 349 1050 356 1042 q 346 1072 343 1058 l 367 1174 q 381 1197 369 1188 q 406 1206 392 1206 l 507 1206 q 528 1197 521 1206 q 532 1174 535 1188 l 510 1072 q 496 1050 507 1058 q 471 1042 485 1042 l 369 1042 z "},"Ė":{"ha":863,"x_min":25,"x_max":901,"o":"m 56 0 q 33 10 40 0 q 28 33 25 19 l 221 938 q 235 963 224 953 q 261 972 246 972 l 872 972 q 894 963 888 972 q 899 938 901 953 l 879 846 q 865 822 876 832 q 839 813 854 813 l 382 813 l 329 567 l 756 567 q 778 558 771 567 q 782 533 785 549 l 764 447 q 750 423 761 432 q 724 414 739 414 l 297 414 l 242 160 l 711 160 q 733 150 726 160 q 738 125 740 140 l 718 33 q 704 10 715 19 q 678 0 693 0 l 56 0 m 514 1042 q 494 1050 500 1042 q 490 1072 488 1058 l 515 1189 q 528 1212 518 1203 q 553 1221 539 1221 l 669 1221 q 690 1212 683 1221 q 694 1189 697 1203 l 669 1072 q 656 1050 667 1058 q 631 1042 644 1042 l 514 1042 z "},"È":{"ha":863,"x_min":25,"x_max":901,"o":"m 56 0 q 33 10 40 0 q 28 33 25 19 l 221 938 q 235 963 224 953 q 261 972 246 972 l 872 972 q 894 963 888 972 q 899 938 901 953 l 879 846 q 865 822 876 832 q 839 813 854 813 l 382 813 l 329 567 l 756 567 q 778 558 771 567 q 782 533 785 549 l 764 447 q 750 423 761 432 q 724 414 739 414 l 297 414 l 242 160 l 711 160 q 733 150 726 160 q 738 125 740 140 l 718 33 q 704 10 715 19 q 678 0 693 0 l 56 0 m 542 1042 q 515 1046 524 1042 q 496 1060 506 1050 l 356 1199 q 350 1218 347 1207 q 382 1244 356 1244 l 525 1244 q 551 1240 543 1244 q 571 1219 560 1235 l 654 1082 q 657 1064 660 1074 q 631 1042 653 1042 l 542 1042 z "},"Ē":{"ha":863,"x_min":25,"x_max":901,"o":"m 56 0 q 33 10 40 0 q 28 33 25 19 l 221 938 q 235 963 224 953 q 261 972 246 972 l 872 972 q 894 963 888 972 q 899 938 901 953 l 879 846 q 865 822 876 832 q 839 813 854 813 l 382 813 l 329 567 l 756 567 q 778 558 771 567 q 782 533 785 549 l 764 447 q 750 423 761 432 q 724 414 739 414 l 297 414 l 242 160 l 711 160 q 733 150 726 160 q 738 125 740 140 l 718 33 q 704 10 715 19 q 678 0 693 0 l 56 0 m 383 1042 q 364 1050 369 1042 q 360 1072 358 1058 l 375 1150 q 389 1172 378 1164 q 414 1181 400 1181 l 790 1181 q 810 1172 804 1181 q 814 1150 817 1164 l 799 1072 q 786 1050 797 1058 q 761 1042 775 1042 l 383 1042 z "},"Ę":{"ha":863,"x_min":25,"x_max":901,"o":"m 594 -306 q 486 -277 528 -306 q 430 -200 444 -249 q 428 -90 415 -151 q 443 -41 433 -64 q 467 0 453 -18 l 56 0 q 33 10 40 0 q 28 33 25 19 l 221 938 q 235 963 224 953 q 261 972 246 972 l 872 972 q 894 963 888 972 q 899 938 901 953 l 879 846 q 865 822 876 832 q 839 813 854 813 l 382 813 l 329 567 l 756 567 q 778 558 771 567 q 782 533 785 549 l 764 447 q 750 423 761 432 q 724 414 739 414 l 297 414 l 242 160 l 711 160 q 733 150 726 160 q 738 125 740 140 l 718 33 q 704 10 715 19 q 678 0 693 0 l 651 0 q 584 -30 611 -3 q 549 -96 557 -57 q 558 -163 540 -136 q 619 -190 576 -190 l 638 -190 q 659 -199 651 -190 q 664 -224 667 -208 l 653 -272 q 639 -296 650 -286 q 613 -306 628 -306 l 594 -306 z "},"F":{"ha":838,"x_min":25,"x_max":893,"o":"m 56 0 q 33 10 40 0 q 28 33 25 19 l 221 938 q 235 963 224 953 q 261 972 246 972 l 864 972 q 886 963 879 972 q 890 938 893 953 l 869 840 q 856 816 867 825 q 829 807 844 807 l 383 807 l 326 543 l 744 543 q 767 533 760 543 q 771 508 774 524 l 751 411 q 737 388 749 397 q 710 378 725 378 l 292 378 l 218 33 q 204 10 215 19 q 178 0 193 0 l 56 0 z "},"G":{"ha":972,"x_min":64,"x_max":985,"o":"m 415 -14 q 207 31 288 -14 q 95 159 126 75 q 85 360 64 243 q 110 488 96 419 q 140 618 125 557 q 235 815 168 733 q 403 942 303 897 q 628 986 503 986 q 800 959 729 986 q 913 890 871 932 q 969 799 954 847 q 978 708 985 750 q 966 688 976 696 q 942 679 956 679 l 799 679 q 780 685 786 679 q 769 701 774 690 q 749 759 767 731 q 695 807 732 788 q 594 826 658 826 q 433 776 500 826 q 338 611 365 726 q 309 490 322 551 q 285 367 296 428 q 312 197 265 249 q 453 146 358 146 q 569 168 515 146 q 662 238 624 190 q 715 358 700 285 l 725 401 l 554 401 q 533 411 540 401 q 529 436 526 421 l 544 510 q 559 535 547 525 q 585 544 571 544 l 917 544 q 939 535 932 544 q 943 510 946 525 l 913 364 q 819 163 889 247 q 647 32 750 78 q 415 -14 543 -14 z "},"Ğ":{"ha":972,"x_min":64,"x_max":985,"o":"m 415 -14 q 207 31 288 -14 q 95 159 126 75 q 85 360 64 243 q 110 488 96 419 q 140 618 125 557 q 235 815 168 733 q 403 942 303 897 q 628 986 503 986 q 800 959 729 986 q 913 890 871 932 q 969 799 954 847 q 978 708 985 750 q 966 688 976 696 q 942 679 956 679 l 799 679 q 780 685 786 679 q 769 701 774 690 q 749 759 767 731 q 695 807 732 788 q 594 826 658 826 q 433 776 500 826 q 338 611 365 726 q 309 490 322 551 q 285 367 296 428 q 312 197 265 249 q 453 146 358 146 q 569 168 515 146 q 662 238 624 190 q 715 358 700 285 l 725 401 l 554 401 q 533 411 540 401 q 529 436 526 421 l 544 510 q 559 535 547 525 q 585 544 571 544 l 917 544 q 939 535 932 544 q 943 510 946 525 l 913 364 q 819 163 889 247 q 647 32 750 78 q 415 -14 543 -14 m 631 1031 q 525 1056 565 1031 q 469 1124 485 1082 q 464 1214 454 1165 q 475 1233 467 1225 q 496 1240 483 1240 l 564 1240 q 582 1233 576 1240 q 585 1214 588 1225 q 588 1156 579 1182 q 639 1129 597 1129 q 702 1156 681 1129 q 732 1214 724 1182 q 743 1233 735 1225 q 764 1240 751 1240 l 832 1240 q 850 1233 844 1240 q 853 1214 856 1225 q 818 1124 843 1165 q 749 1056 793 1082 q 631 1031 704 1031 z "},"Ĝ":{"ha":972,"x_min":64,"x_max":985,"o":"m 415 -14 q 207 31 288 -14 q 95 159 126 75 q 85 360 64 243 q 110 488 96 419 q 140 618 125 557 q 235 815 168 733 q 403 942 303 897 q 628 986 503 986 q 800 959 729 986 q 913 890 871 932 q 969 799 954 847 q 978 708 985 750 q 966 688 976 696 q 942 679 956 679 l 799 679 q 780 685 786 679 q 769 701 774 690 q 749 759 767 731 q 695 807 732 788 q 594 826 658 826 q 433 776 500 826 q 338 611 365 726 q 309 490 322 551 q 285 367 296 428 q 312 197 265 249 q 453 146 358 146 q 569 168 515 146 q 662 238 624 190 q 715 358 700 285 l 725 401 l 554 401 q 533 411 540 401 q 529 436 526 421 l 544 510 q 559 535 547 525 q 585 544 571 544 l 917 544 q 939 535 932 544 q 943 510 946 525 l 913 364 q 819 163 889 247 q 647 32 750 78 q 415 -14 543 -14 m 400 1042 q 383 1058 382 1042 q 396 1079 385 1069 l 565 1222 q 594 1241 583 1238 q 618 1244 606 1244 l 699 1244 q 722 1241 713 1244 q 742 1222 731 1238 l 850 1079 q 854 1060 857 1071 q 832 1042 851 1042 l 779 1042 q 760 1044 769 1042 q 743 1051 751 1046 l 643 1125 l 511 1051 q 492 1044 501 1047 q 472 1042 483 1042 l 400 1042 z "},"Ģ":{"ha":972,"x_min":64,"x_max":985,"o":"m 415 -14 q 207 31 288 -14 q 95 159 126 75 q 85 360 64 243 q 110 488 96 419 q 140 618 125 557 q 235 815 168 733 q 403 942 303 897 q 628 986 503 986 q 800 959 729 986 q 913 890 871 932 q 969 799 954 847 q 978 708 985 750 q 966 688 976 696 q 942 679 956 679 l 799 679 q 780 685 786 679 q 769 701 774 690 q 749 759 767 731 q 695 807 732 788 q 594 826 658 826 q 433 776 500 826 q 338 611 365 726 q 309 490 322 551 q 285 367 296 428 q 312 197 265 249 q 453 146 358 146 q 569 168 515 146 q 662 238 624 190 q 715 358 700 285 l 725 401 l 554 401 q 533 411 540 401 q 529 436 526 421 l 544 510 q 559 535 547 525 q 585 544 571 544 l 917 544 q 939 535 932 544 q 943 510 946 525 l 913 364 q 819 163 889 247 q 647 32 750 78 q 415 -14 543 -14 m 240 -314 q 223 -305 228 -314 q 222 -283 218 -296 l 285 -114 q 305 -83 292 -96 q 339 -69 318 -69 l 461 -69 q 477 -76 472 -69 q 481 -93 482 -83 q 474 -114 479 -103 l 374 -279 q 353 -303 365 -293 q 321 -314 340 -314 l 240 -314 z "},"Ġ":{"ha":972,"x_min":64,"x_max":985,"o":"m 415 -14 q 207 31 288 -14 q 95 159 126 75 q 85 360 64 243 q 110 488 96 419 q 140 618 125 557 q 235 815 168 733 q 403 942 303 897 q 628 986 503 986 q 800 959 729 986 q 913 890 871 932 q 969 799 954 847 q 978 708 985 750 q 966 688 976 696 q 942 679 956 679 l 799 679 q 780 685 786 679 q 769 701 774 690 q 749 759 767 731 q 695 807 732 788 q 594 826 658 826 q 433 776 500 826 q 338 611 365 726 q 309 490 322 551 q 285 367 296 428 q 312 197 265 249 q 453 146 358 146 q 569 168 515 146 q 662 238 624 190 q 715 358 700 285 l 725 401 l 554 401 q 533 411 540 401 q 529 436 526 421 l 544 510 q 559 535 547 525 q 585 544 571 544 l 917 544 q 939 535 932 544 q 943 510 946 525 l 913 364 q 819 163 889 247 q 647 32 750 78 q 415 -14 543 -14 m 565 1042 q 545 1050 551 1042 q 542 1072 539 1058 l 567 1189 q 580 1212 569 1203 q 604 1221 590 1221 l 721 1221 q 742 1212 735 1221 q 746 1189 749 1203 l 721 1072 q 707 1050 718 1058 q 682 1042 696 1042 l 565 1042 z "},"H":{"ha":1013,"x_min":25,"x_max":1019,"o":"m 56 0 q 33 9 40 0 q 28 33 25 18 l 221 938 q 235 963 224 953 q 261 972 246 972 l 386 972 q 409 963 401 972 q 414 938 417 953 l 338 579 l 747 579 l 824 938 q 838 963 826 953 q 864 972 849 972 l 989 972 q 1012 963 1004 972 q 1017 938 1019 953 l 824 33 q 810 10 821 19 q 783 0 799 0 l 658 0 q 635 10 643 0 q 631 33 628 19 l 710 406 l 300 406 l 221 33 q 207 10 218 19 q 181 0 196 0 l 56 0 z "},"Ħ":{"ha":1021,"x_min":25,"x_max":1053,"o":"m 146 715 q 124 725 131 715 q 119 749 117 735 l 131 800 q 145 824 133 815 q 171 833 157 833 l 1024 833 q 1046 824 1039 833 q 1050 800 1053 815 l 1040 749 q 1025 725 1038 735 q 997 715 1013 715 l 146 715 m 56 0 q 33 9 40 0 q 28 33 25 18 l 221 938 q 235 963 224 953 q 261 972 246 972 l 386 972 q 409 963 401 972 q 414 938 417 953 l 338 579 l 747 579 l 824 938 q 838 963 826 953 q 864 972 849 972 l 989 972 q 1012 963 1004 972 q 1017 938 1019 953 l 824 33 q 810 10 821 19 q 783 0 799 0 l 658 0 q 635 10 643 0 q 631 33 628 19 l 710 406 l 300 406 l 221 33 q 207 10 218 19 q 181 0 196 0 l 56 0 z "},"Ĥ":{"ha":1013,"x_min":25,"x_max":1019,"o":"m 56 0 q 33 9 40 0 q 28 33 25 18 l 221 938 q 235 963 224 953 q 261 972 246 972 l 386 972 q 409 963 401 972 q 414 938 417 953 l 338 579 l 747 579 l 824 938 q 838 963 826 953 q 864 972 849 972 l 989 972 q 1012 963 1004 972 q 1017 938 1019 953 l 824 33 q 810 10 821 19 q 783 0 799 0 l 658 0 q 635 10 643 0 q 631 33 628 19 l 710 406 l 300 406 l 221 33 q 207 10 218 19 q 181 0 196 0 l 56 0 m 401 1042 q 385 1058 383 1042 q 397 1079 386 1069 l 567 1222 q 596 1241 585 1238 q 619 1244 607 1244 l 700 1244 q 723 1241 714 1244 q 743 1222 732 1238 l 851 1079 q 856 1060 858 1071 q 833 1042 853 1042 l 781 1042 q 762 1044 771 1042 q 744 1051 753 1046 l 644 1125 l 513 1051 q 494 1044 503 1047 q 474 1042 485 1042 l 401 1042 z "},"I":{"ha":415,"x_min":25,"x_max":422,"o":"m 54 0 q 33 10 40 0 q 28 33 25 19 l 221 939 q 235 963 224 953 q 261 972 246 972 l 392 972 q 414 963 406 972 q 419 939 422 953 l 225 33 q 211 10 222 19 q 186 0 200 0 l 54 0 z "},"Ĳ":{"ha":942,"x_min":25,"x_max":956,"o":"m 360 -14 q 338 -4 346 -14 q 333 19 331 6 l 356 122 q 370 147 358 138 q 396 157 382 157 q 553 216 493 157 q 636 379 614 275 l 756 939 q 769 963 758 953 q 794 972 781 972 l 925 972 q 948 963 940 972 q 953 938 956 953 l 829 356 q 749 149 804 232 q 599 26 693 67 q 360 -14 504 -14 m 56 0 q 33 10 40 0 q 28 33 25 19 l 221 939 q 235 963 224 953 q 261 972 246 972 l 392 972 q 414 963 406 972 q 419 939 422 953 l 225 33 q 211 10 222 19 q 186 0 200 0 l 56 0 z "},"Í":{"ha":415,"x_min":25,"x_max":642,"o":"m 54 0 q 33 10 40 0 q 28 33 25 19 l 221 939 q 235 963 224 953 q 261 972 246 972 l 392 972 q 414 963 406 972 q 419 939 422 953 l 225 33 q 211 10 222 19 q 186 0 200 0 l 54 0 m 276 1042 q 258 1061 257 1042 q 268 1081 260 1072 l 413 1219 q 440 1240 429 1235 q 469 1244 451 1244 l 618 1244 q 636 1238 631 1244 q 640 1222 642 1231 q 628 1201 639 1208 l 425 1060 q 400 1046 411 1050 q 372 1042 389 1042 l 276 1042 z "},"Ĭ":{"ha":415,"x_min":25,"x_max":572,"o":"m 54 0 q 33 10 40 0 q 28 33 25 19 l 221 939 q 235 963 224 953 q 261 972 246 972 l 392 972 q 414 963 406 972 q 419 939 422 953 l 225 33 q 211 10 222 19 q 186 0 200 0 l 54 0 m 347 1031 q 242 1056 282 1031 q 186 1124 201 1082 q 181 1214 171 1165 q 192 1233 183 1225 q 213 1240 200 1240 l 281 1240 q 299 1233 293 1240 q 301 1214 304 1225 q 305 1156 296 1182 q 356 1129 314 1129 q 419 1156 397 1129 q 449 1214 440 1182 q 460 1233 451 1225 q 481 1240 468 1240 l 549 1240 q 567 1233 561 1240 q 569 1214 572 1225 q 535 1124 560 1165 q 465 1056 510 1082 q 347 1031 421 1031 z "},"Î":{"ha":415,"x_min":25,"x_max":574,"o":"m 54 0 q 33 10 40 0 q 28 33 25 19 l 221 939 q 235 963 224 953 q 261 972 246 972 l 392 972 q 414 963 406 972 q 419 939 422 953 l 225 33 q 211 10 222 19 q 186 0 200 0 l 54 0 m 117 1042 q 100 1058 99 1042 q 113 1079 101 1069 l 282 1222 q 311 1241 300 1238 q 335 1244 322 1244 l 415 1244 q 438 1241 429 1244 q 458 1222 447 1238 l 567 1079 q 571 1060 574 1071 q 549 1042 568 1042 l 496 1042 q 477 1044 486 1042 q 460 1051 468 1046 l 360 1125 l 228 1051 q 209 1044 218 1047 q 189 1042 200 1042 l 117 1042 z "},"Ï":{"ha":415,"x_min":25,"x_max":606,"o":"m 54 0 q 33 10 40 0 q 28 33 25 19 l 221 939 q 235 963 224 953 q 261 972 246 972 l 392 972 q 414 963 406 972 q 419 939 422 953 l 225 33 q 211 10 222 19 q 186 0 200 0 l 54 0 m 440 1042 q 420 1050 426 1042 q 417 1072 414 1058 l 438 1174 q 451 1197 440 1188 q 476 1206 463 1206 l 578 1206 q 599 1197 592 1206 q 603 1174 606 1188 l 581 1072 q 567 1050 578 1058 q 542 1042 556 1042 l 440 1042 m 138 1042 q 117 1050 124 1042 q 114 1072 111 1058 l 135 1174 q 149 1197 138 1188 q 174 1206 160 1206 l 275 1206 q 296 1197 289 1206 q 300 1174 303 1188 l 278 1072 q 264 1050 275 1058 q 239 1042 253 1042 l 138 1042 z "},"İ":{"ha":415,"x_min":25,"x_max":464,"o":"m 54 0 q 33 10 40 0 q 28 33 25 19 l 221 939 q 235 963 224 953 q 261 972 246 972 l 392 972 q 414 963 406 972 q 419 939 422 953 l 225 33 q 211 10 222 19 q 186 0 200 0 l 54 0 m 282 1042 q 262 1050 268 1042 q 258 1072 256 1058 l 283 1189 q 297 1212 286 1203 q 321 1221 307 1221 l 438 1221 q 458 1212 451 1221 q 463 1189 465 1203 l 438 1072 q 424 1050 435 1058 q 399 1042 413 1042 l 282 1042 z "},"Ì":{"ha":415,"x_min":25,"x_max":428,"o":"m 54 0 q 33 10 40 0 q 28 33 25 19 l 221 939 q 235 963 224 953 q 261 972 246 972 l 392 972 q 414 963 406 972 q 419 939 422 953 l 225 33 q 211 10 222 19 q 186 0 200 0 l 54 0 m 310 1042 q 283 1046 292 1042 q 264 1060 274 1050 l 124 1199 q 118 1218 115 1207 q 150 1244 124 1244 l 293 1244 q 319 1240 311 1244 q 339 1219 328 1235 l 422 1082 q 425 1064 428 1074 q 399 1042 421 1042 l 310 1042 z "},"Ī":{"ha":415,"x_min":25,"x_max":586,"o":"m 54 0 q 33 10 40 0 q 28 33 25 19 l 221 939 q 235 963 224 953 q 261 972 246 972 l 392 972 q 414 963 406 972 q 419 939 422 953 l 225 33 q 211 10 222 19 q 186 0 200 0 l 54 0 m 151 1042 q 132 1050 138 1042 q 128 1072 126 1058 l 143 1150 q 157 1172 146 1164 q 182 1181 168 1181 l 558 1181 q 578 1172 572 1181 q 582 1150 585 1164 l 567 1072 q 554 1050 565 1058 q 529 1042 543 1042 l 151 1042 z "},"Į":{"ha":429,"x_min":-43,"x_max":456,"o":"m 131 -307 q 24 -280 64 -307 q -30 -205 -17 -253 q -29 -96 -43 -157 q 15 -3 -18 -40 q 93 46 49 33 l 82 53 q 73 61 76 54 q 72 76 69 68 l 254 939 q 269 963 257 953 q 296 972 281 972 l 426 972 q 448 963 440 972 q 453 939 456 953 l 260 33 q 245 10 257 19 q 219 0 233 0 l 201 0 q 128 -28 158 0 q 90 -96 99 -56 q 100 -163 82 -136 q 161 -190 118 -190 l 179 -190 q 201 -200 194 -190 q 206 -224 208 -210 l 194 -274 q 180 -297 192 -287 q 154 -307 168 -307 l 131 -307 z "},"Ĩ":{"ha":415,"x_min":25,"x_max":596,"o":"m 54 0 q 33 10 40 0 q 28 33 25 19 l 221 939 q 235 963 224 953 q 261 972 246 972 l 392 972 q 414 963 406 972 q 419 939 422 953 l 225 33 q 211 10 222 19 q 186 0 200 0 l 54 0 m 433 1035 q 374 1047 397 1035 q 333 1071 351 1058 q 290 1083 314 1083 q 258 1073 269 1083 q 239 1052 247 1063 q 215 1042 231 1042 l 151 1042 q 136 1049 142 1042 q 132 1065 131 1056 q 148 1113 136 1086 q 180 1163 160 1139 q 228 1203 200 1188 q 293 1218 257 1218 q 352 1206 329 1218 q 394 1182 375 1194 q 435 1169 413 1169 q 468 1181 457 1169 q 487 1202 479 1192 q 510 1213 494 1213 l 574 1213 q 591 1205 586 1213 q 593 1188 596 1197 q 577 1140 589 1167 q 545 1090 565 1114 q 497 1051 525 1067 q 433 1035 468 1035 z "},"J":{"ha":900,"x_min":0,"x_max":914,"o":"m 349 -14 q 217 5 282 -14 q 101 63 151 24 q 25 158 50 101 q 11 293 0 215 q 23 315 14 306 q 46 324 32 324 l 179 324 q 205 314 197 324 q 214 288 213 304 q 247 179 208 213 q 360 146 286 146 q 513 203 457 146 q 590 361 569 260 l 686 808 l 214 808 q 192 818 200 808 q 188 842 185 828 l 210 939 q 224 963 213 953 q 249 972 235 972 l 885 972 q 907 963 900 972 q 911 938 914 953 l 788 356 q 710 157 764 240 q 568 30 657 74 q 349 -14 479 -14 z "},"Ĵ":{"ha":900,"x_min":0,"x_max":914,"o":"m 349 -14 q 217 5 282 -14 q 101 63 151 24 q 25 158 50 101 q 11 293 0 215 q 23 315 14 306 q 46 324 32 324 l 179 324 q 205 314 197 324 q 214 288 213 304 q 247 179 208 213 q 360 146 286 146 q 513 203 457 146 q 590 361 569 260 l 686 808 l 214 808 q 192 818 200 808 q 188 842 185 828 l 210 939 q 224 963 213 953 q 249 972 235 972 l 885 972 q 907 963 900 972 q 911 938 914 953 l 788 356 q 710 157 764 240 q 568 30 657 74 q 349 -14 479 -14 m 360 1042 q 343 1058 342 1042 q 356 1079 344 1069 l 525 1222 q 554 1241 543 1238 q 578 1244 565 1244 l 658 1244 q 681 1241 672 1244 q 701 1222 690 1238 l 810 1079 q 814 1060 817 1071 q 792 1042 811 1042 l 739 1042 q 720 1044 729 1042 q 703 1051 711 1046 l 603 1125 l 471 1051 q 452 1044 461 1047 q 432 1042 443 1042 l 360 1042 z "},"K":{"ha":865,"x_min":25,"x_max":935,"o":"m 56 0 q 33 10 40 0 q 28 33 25 19 l 221 938 q 234 963 224 953 q 260 972 244 972 l 383 972 q 406 963 399 972 q 411 938 414 953 l 343 621 l 704 947 q 725 963 711 954 q 763 972 739 972 l 904 972 q 930 955 925 972 q 922 925 935 938 l 460 494 l 768 47 q 769 15 781 29 q 742 0 757 0 l 607 0 q 574 8 585 0 q 558 25 564 17 l 296 399 l 218 33 q 205 10 215 19 q 179 0 194 0 l 56 0 z "},"Ķ":{"ha":865,"x_min":25,"x_max":935,"o":"m 56 0 q 33 10 40 0 q 28 33 25 19 l 221 938 q 234 963 224 953 q 260 972 244 972 l 383 972 q 406 963 399 972 q 411 938 414 953 l 343 621 l 704 947 q 725 963 711 954 q 763 972 739 972 l 904 972 q 930 955 925 972 q 922 925 935 938 l 460 494 l 768 47 q 769 15 781 29 q 742 0 757 0 l 607 0 q 574 8 585 0 q 558 25 564 17 l 296 399 l 218 33 q 205 10 215 19 q 179 0 194 0 l 56 0 m 196 -314 q 178 -305 183 -314 q 178 -283 174 -296 l 240 -114 q 260 -83 247 -96 q 294 -69 274 -69 l 417 -69 q 433 -76 428 -69 q 436 -93 438 -83 q 429 -114 435 -103 l 329 -279 q 308 -303 321 -293 q 276 -314 296 -314 l 196 -314 z "},"L":{"ha":797,"x_min":25,"x_max":722,"o":"m 56 0 q 33 10 40 0 q 28 33 25 19 l 221 939 q 235 963 224 953 q 261 972 246 972 l 389 972 q 412 963 404 972 q 417 939 419 953 l 251 165 l 692 165 q 715 156 707 165 q 719 131 722 146 l 699 33 q 685 10 696 19 q 658 0 674 0 l 56 0 z "},"Ĺ":{"ha":797,"x_min":25,"x_max":722,"o":"m 56 0 q 33 10 40 0 q 28 33 25 19 l 221 939 q 235 963 224 953 q 261 972 246 972 l 389 972 q 412 963 404 972 q 417 939 419 953 l 251 165 l 692 165 q 715 156 707 165 q 719 131 722 146 l 699 33 q 685 10 696 19 q 658 0 674 0 l 56 0 m 278 1042 q 260 1061 258 1042 q 269 1081 261 1072 l 414 1219 q 442 1240 431 1235 q 471 1244 453 1244 l 619 1244 q 638 1238 632 1244 q 642 1222 643 1231 q 629 1201 640 1208 l 426 1060 q 401 1046 413 1050 q 374 1042 390 1042 l 278 1042 z "},"Ľ":{"ha":801,"x_min":25,"x_max":758,"o":"m 517 742 q 499 751 504 742 q 499 772 494 760 l 561 942 q 581 973 568 960 q 615 986 594 986 l 738 986 q 753 979 749 986 q 757 963 758 972 q 750 942 756 953 l 650 776 q 629 752 642 763 q 597 742 617 742 l 517 742 m 56 0 q 33 10 40 0 q 28 33 25 19 l 221 939 q 235 963 224 953 q 261 972 246 972 l 389 972 q 412 963 404 972 q 417 939 419 953 l 251 165 l 692 165 q 715 156 707 165 q 719 131 722 146 l 699 33 q 685 10 696 19 q 658 0 674 0 l 56 0 z "},"Ļ":{"ha":797,"x_min":25,"x_max":722,"o":"m 56 0 q 33 10 40 0 q 28 33 25 19 l 221 939 q 235 963 224 953 q 261 972 246 972 l 389 972 q 412 963 404 972 q 417 939 419 953 l 251 165 l 692 165 q 715 156 707 165 q 719 131 722 146 l 699 33 q 685 10 696 19 q 658 0 674 0 l 56 0 m 174 -314 q 156 -305 161 -314 q 156 -283 151 -296 l 218 -114 q 238 -83 225 -96 q 272 -69 251 -69 l 394 -69 q 410 -76 406 -69 q 414 -93 415 -83 q 407 -114 413 -103 l 307 -279 q 286 -303 299 -293 q 254 -314 274 -314 l 174 -314 z "},"Ŀ":{"ha":800,"x_min":25,"x_max":731,"o":"m 56 0 q 33 10 40 0 q 28 33 25 19 l 221 939 q 235 963 224 953 q 261 972 246 972 l 389 972 q 412 963 404 972 q 417 939 419 953 l 251 165 l 692 165 q 715 156 707 165 q 719 131 722 146 l 699 33 q 685 10 696 19 q 658 0 674 0 l 56 0 m 549 432 q 528 441 535 432 q 524 464 521 450 l 549 581 q 562 603 551 594 q 586 613 572 613 l 703 613 q 724 603 717 613 q 728 581 731 594 l 703 464 q 690 441 700 450 q 665 432 679 432 l 549 432 z "},"Ł":{"ha":808,"x_min":7,"x_max":735,"o":"m 67 0 q 44 10 51 0 q 39 33 36 19 l 111 368 l 49 346 q 29 342 36 342 q 13 349 18 342 q 8 368 7 356 l 25 444 q 36 470 28 461 q 63 485 44 479 l 142 511 l 232 939 q 246 963 235 953 q 272 972 257 972 l 400 972 q 423 963 415 972 q 428 939 431 953 l 353 589 l 571 667 q 589 671 583 671 q 607 664 600 671 q 611 644 614 657 l 594 568 q 583 544 592 551 q 556 529 574 536 l 322 444 l 263 165 l 704 165 q 726 156 718 165 q 731 132 735 146 l 710 33 q 696 10 707 19 q 669 0 685 0 l 67 0 z "},"M":{"ha":1128,"x_min":25,"x_max":1135,"o":"m 56 0 q 33 10 42 0 q 28 33 25 19 l 221 938 q 235 963 224 953 q 261 972 247 972 l 372 972 q 399 962 392 972 q 410 946 407 951 l 572 446 l 949 946 q 964 962 953 951 q 994 972 975 972 l 1104 972 q 1127 963 1119 972 q 1132 938 1135 953 l 939 33 q 925 10 936 19 q 899 0 914 0 l 781 0 q 758 10 767 0 q 753 33 750 19 l 879 622 l 613 264 q 590 242 603 251 q 560 233 578 233 l 503 233 q 476 242 485 233 q 463 264 467 251 l 343 643 l 214 33 q 200 10 211 19 q 174 0 189 0 l 56 0 z "},"N":{"ha":983,"x_min":25,"x_max":989,"o":"m 56 0 q 33 10 40 0 q 28 33 25 19 l 221 938 q 235 963 224 953 q 260 972 246 972 l 365 972 q 392 964 385 972 q 401 950 400 956 l 671 322 l 803 938 q 817 963 806 953 q 843 972 828 972 l 960 972 q 982 963 975 972 q 986 938 989 953 l 794 35 q 781 10 792 19 q 754 0 769 0 l 649 0 q 622 8 629 0 q 613 22 615 17 l 342 636 l 214 33 q 200 10 211 19 q 174 0 189 0 l 56 0 z "},"Ń":{"ha":983,"x_min":25,"x_max":989,"o":"m 56 0 q 33 10 40 0 q 28 33 25 19 l 221 938 q 235 963 224 953 q 260 972 246 972 l 365 972 q 392 964 385 972 q 401 950 400 956 l 671 322 l 803 938 q 817 963 806 953 q 843 972 828 972 l 960 972 q 982 963 975 972 q 986 938 989 953 l 794 35 q 781 10 792 19 q 754 0 769 0 l 649 0 q 622 8 629 0 q 613 22 615 17 l 342 636 l 214 33 q 200 10 211 19 q 174 0 189 0 l 56 0 m 547 1042 q 529 1061 528 1042 q 539 1081 531 1072 l 683 1219 q 711 1240 700 1235 q 740 1244 722 1244 l 889 1244 q 907 1238 901 1244 q 911 1222 913 1231 q 899 1201 910 1208 l 696 1060 q 671 1046 682 1050 q 643 1042 660 1042 l 547 1042 z "},"Ň":{"ha":983,"x_min":25,"x_max":989,"o":"m 56 0 q 33 10 40 0 q 28 33 25 19 l 221 938 q 235 963 224 953 q 260 972 246 972 l 365 972 q 392 964 385 972 q 401 950 400 956 l 671 322 l 803 938 q 817 963 806 953 q 843 972 828 972 l 960 972 q 982 963 975 972 q 986 938 989 953 l 794 35 q 781 10 792 19 q 754 0 769 0 l 649 0 q 622 8 629 0 q 613 22 615 17 l 342 636 l 214 33 q 200 10 211 19 q 174 0 189 0 l 56 0 m 571 1042 q 549 1046 558 1042 q 528 1064 539 1050 l 419 1207 q 415 1226 413 1215 q 439 1244 418 1244 l 490 1244 q 510 1242 501 1244 q 526 1235 518 1240 l 626 1163 l 758 1235 q 778 1242 769 1240 q 797 1244 788 1244 l 871 1244 q 886 1228 889 1244 q 875 1208 886 1217 l 704 1064 q 676 1046 688 1050 q 653 1042 665 1042 l 571 1042 z "},"Ņ":{"ha":983,"x_min":25,"x_max":989,"o":"m 56 0 q 33 10 40 0 q 28 33 25 19 l 221 938 q 235 963 224 953 q 260 972 246 972 l 365 972 q 392 964 385 972 q 401 950 400 956 l 671 322 l 803 938 q 817 963 806 953 q 843 972 828 972 l 960 972 q 982 963 975 972 q 986 938 989 953 l 794 35 q 781 10 792 19 q 754 0 769 0 l 649 0 q 622 8 629 0 q 613 22 615 17 l 342 636 l 214 33 q 200 10 211 19 q 174 0 189 0 l 56 0 m 247 -314 q 230 -305 235 -314 q 229 -283 225 -296 l 292 -114 q 312 -83 299 -96 q 346 -69 325 -69 l 468 -69 q 484 -76 479 -69 q 488 -93 489 -83 q 481 -114 486 -103 l 381 -279 q 360 -303 372 -293 q 328 -314 347 -314 l 247 -314 z "},"Ñ":{"ha":983,"x_min":25,"x_max":989,"o":"m 56 0 q 33 10 40 0 q 28 33 25 19 l 221 938 q 235 963 224 953 q 260 972 246 972 l 365 972 q 392 964 385 972 q 401 950 400 956 l 671 322 l 803 938 q 817 963 806 953 q 843 972 828 972 l 960 972 q 982 963 975 972 q 986 938 989 953 l 794 35 q 781 10 792 19 q 754 0 769 0 l 649 0 q 622 8 629 0 q 613 22 615 17 l 342 636 l 214 33 q 200 10 211 19 q 174 0 189 0 l 56 0 m 704 1035 q 645 1047 668 1035 q 603 1071 622 1058 q 561 1083 585 1083 q 529 1073 540 1083 q 510 1052 518 1063 q 486 1042 501 1042 l 422 1042 q 407 1049 413 1042 q 403 1065 401 1056 q 419 1113 407 1086 q 451 1163 431 1139 q 499 1203 471 1188 q 564 1218 528 1218 q 623 1206 600 1218 q 665 1182 646 1194 q 706 1169 683 1169 q 739 1181 728 1169 q 758 1202 750 1192 q 781 1213 765 1213 l 844 1213 q 862 1205 857 1213 q 864 1188 867 1197 q 848 1140 860 1167 q 816 1090 836 1114 q 767 1051 796 1067 q 704 1035 739 1035 z "},"Ŋ":{"ha":982,"x_min":46,"x_max":1007,"o":"m 418 -312 q 396 -303 403 -312 q 392 -279 389 -293 l 413 -182 q 427 -158 415 -168 q 453 -149 439 -149 l 479 -149 q 549 -133 522 -149 q 592 -89 576 -117 q 615 -26 608 -61 l 626 28 l 358 631 l 232 33 q 217 10 229 19 q 190 0 206 0 l 74 0 q 53 10 60 0 q 49 33 46 19 l 240 938 q 255 963 243 953 q 281 972 267 972 l 388 972 q 414 963 407 972 q 422 950 421 954 l 690 328 l 819 938 q 834 963 822 953 q 861 972 846 972 l 978 972 q 1000 963 993 972 q 1004 938 1007 953 l 799 -32 q 732 -182 781 -119 q 608 -278 683 -244 q 431 -312 533 -312 l 418 -312 z "},"O":{"ha":965,"x_min":50,"x_max":946,"o":"m 408 -14 q 253 9 324 -14 q 135 79 182 32 q 69 198 88 126 q 67 367 50 269 q 90 485 76 426 q 117 604 103 543 q 281 890 163 793 q 588 986 399 986 q 744 962 674 986 q 861 890 814 938 q 927 770 908 842 q 929 604 946 699 q 906 485 919 543 q 879 367 893 426 q 714 80 832 174 q 408 -14 596 -14 m 421 146 q 583 199 513 146 q 682 374 653 253 q 708 487 697 435 q 729 599 719 539 q 710 773 751 719 q 575 826 669 826 q 413 773 482 826 q 315 599 344 719 q 289 487 300 539 q 267 374 278 435 q 285 199 246 253 q 421 146 325 146 z "},"Ó":{"ha":965,"x_min":50,"x_max":946,"o":"m 408 -14 q 253 9 324 -14 q 135 79 182 32 q 69 198 88 126 q 67 367 50 269 q 90 485 76 426 q 117 604 103 543 q 281 890 163 793 q 588 986 399 986 q 744 962 674 986 q 861 890 814 938 q 927 770 908 842 q 929 604 946 699 q 906 485 919 543 q 879 367 893 426 q 714 80 832 174 q 408 -14 596 -14 m 421 146 q 583 199 513 146 q 682 374 653 253 q 708 487 697 435 q 729 599 719 539 q 710 773 751 719 q 575 826 669 826 q 413 773 482 826 q 315 599 344 719 q 289 487 300 539 q 267 374 278 435 q 285 199 246 253 q 421 146 325 146 m 544 1042 q 526 1061 525 1042 q 536 1081 528 1072 l 681 1219 q 708 1240 697 1235 q 738 1244 719 1244 l 886 1244 q 904 1238 899 1244 q 908 1222 910 1231 q 896 1201 907 1208 l 693 1060 q 668 1046 679 1050 q 640 1042 657 1042 l 544 1042 z "},"Ŏ":{"ha":965,"x_min":50,"x_max":946,"o":"m 408 -14 q 253 9 324 -14 q 135 79 182 32 q 69 198 88 126 q 67 367 50 269 q 90 485 76 426 q 117 604 103 543 q 281 890 163 793 q 588 986 399 986 q 744 962 674 986 q 861 890 814 938 q 927 770 908 842 q 929 604 946 699 q 906 485 919 543 q 879 367 893 426 q 714 80 832 174 q 408 -14 596 -14 m 421 146 q 583 199 513 146 q 682 374 653 253 q 708 487 697 435 q 729 599 719 539 q 710 773 751 719 q 575 826 669 826 q 413 773 482 826 q 315 599 344 719 q 289 487 300 539 q 267 374 278 435 q 285 199 246 253 q 421 146 325 146 m 615 1031 q 510 1056 550 1031 q 454 1124 469 1082 q 449 1214 439 1165 q 460 1233 451 1225 q 481 1240 468 1240 l 549 1240 q 567 1233 561 1240 q 569 1214 572 1225 q 573 1156 564 1182 q 624 1129 582 1129 q 687 1156 665 1129 q 717 1214 708 1182 q 728 1233 719 1225 q 749 1240 736 1240 l 817 1240 q 835 1233 829 1240 q 838 1214 840 1225 q 803 1124 828 1165 q 733 1056 778 1082 q 615 1031 689 1031 z "},"Ô":{"ha":965,"x_min":50,"x_max":946,"o":"m 408 -14 q 253 9 324 -14 q 135 79 182 32 q 69 198 88 126 q 67 367 50 269 q 90 485 76 426 q 117 604 103 543 q 281 890 163 793 q 588 986 399 986 q 744 962 674 986 q 861 890 814 938 q 927 770 908 842 q 929 604 946 699 q 906 485 919 543 q 879 367 893 426 q 714 80 832 174 q 408 -14 596 -14 m 421 146 q 583 199 513 146 q 682 374 653 253 q 708 487 697 435 q 729 599 719 539 q 710 773 751 719 q 575 826 669 826 q 413 773 482 826 q 315 599 344 719 q 289 487 300 539 q 267 374 278 435 q 285 199 246 253 q 421 146 325 146 m 385 1042 q 368 1058 367 1042 q 381 1079 369 1069 l 550 1222 q 579 1241 568 1238 q 603 1244 590 1244 l 683 1244 q 706 1241 697 1244 q 726 1222 715 1238 l 835 1079 q 839 1060 842 1071 q 817 1042 836 1042 l 764 1042 q 745 1044 754 1042 q 728 1051 736 1046 l 628 1125 l 496 1051 q 477 1044 486 1047 q 457 1042 468 1042 l 385 1042 z "},"Ö":{"ha":965,"x_min":50,"x_max":946,"o":"m 408 -14 q 253 9 324 -14 q 135 79 182 32 q 69 198 88 126 q 67 367 50 269 q 90 485 76 426 q 117 604 103 543 q 281 890 163 793 q 588 986 399 986 q 744 962 674 986 q 861 890 814 938 q 927 770 908 842 q 929 604 946 699 q 906 485 919 543 q 879 367 893 426 q 714 80 832 174 q 408 -14 596 -14 m 421 146 q 583 199 513 146 q 682 374 653 253 q 708 487 697 435 q 729 599 719 539 q 710 773 751 719 q 575 826 669 826 q 413 773 482 826 q 315 599 344 719 q 289 487 300 539 q 267 374 278 435 q 285 199 246 253 q 421 146 325 146 m 708 1042 q 688 1050 694 1042 q 685 1072 682 1058 l 706 1174 q 719 1197 708 1188 q 744 1206 731 1206 l 846 1206 q 867 1197 860 1206 q 871 1174 874 1188 l 849 1072 q 835 1050 846 1058 q 810 1042 824 1042 l 708 1042 m 406 1042 q 385 1050 392 1042 q 382 1072 379 1058 l 403 1174 q 417 1197 406 1188 q 442 1206 428 1206 l 543 1206 q 564 1197 557 1206 q 568 1174 571 1188 l 546 1072 q 532 1050 543 1058 q 507 1042 521 1042 l 406 1042 z "},"Ò":{"ha":965,"x_min":50,"x_max":946,"o":"m 408 -14 q 253 9 324 -14 q 135 79 182 32 q 69 198 88 126 q 67 367 50 269 q 90 485 76 426 q 117 604 103 543 q 281 890 163 793 q 588 986 399 986 q 744 962 674 986 q 861 890 814 938 q 927 770 908 842 q 929 604 946 699 q 906 485 919 543 q 879 367 893 426 q 714 80 832 174 q 408 -14 596 -14 m 421 146 q 583 199 513 146 q 682 374 653 253 q 708 487 697 435 q 729 599 719 539 q 710 773 751 719 q 575 826 669 826 q 413 773 482 826 q 315 599 344 719 q 289 487 300 539 q 267 374 278 435 q 285 199 246 253 q 421 146 325 146 m 576 1042 q 549 1046 558 1042 q 531 1060 540 1050 l 390 1199 q 385 1218 382 1207 q 417 1244 390 1244 l 560 1244 q 586 1240 578 1244 q 606 1219 594 1235 l 689 1082 q 692 1064 694 1074 q 665 1042 688 1042 l 576 1042 z "},"Ő":{"ha":965,"x_min":50,"x_max":975,"o":"m 408 -14 q 253 9 324 -14 q 135 79 182 32 q 69 198 88 126 q 67 367 50 269 q 90 485 76 426 q 117 604 103 543 q 281 890 163 793 q 588 986 399 986 q 744 962 674 986 q 861 890 814 938 q 927 770 908 842 q 929 604 946 699 q 906 485 919 543 q 879 367 893 426 q 714 80 832 174 q 408 -14 596 -14 m 421 146 q 583 199 513 146 q 682 374 653 253 q 708 487 697 435 q 729 599 719 539 q 710 773 751 719 q 575 826 669 826 q 413 773 482 826 q 315 599 344 719 q 289 487 300 539 q 267 374 278 435 q 285 199 246 253 q 421 146 325 146 m 688 1042 q 669 1060 668 1042 q 672 1069 669 1064 q 678 1079 675 1075 l 771 1218 q 792 1238 779 1232 q 828 1244 806 1244 l 950 1244 q 972 1222 975 1244 q 961 1201 971 1211 l 807 1061 q 758 1042 785 1042 l 688 1042 m 428 1042 q 408 1060 407 1042 q 413 1069 410 1064 q 418 1079 415 1075 l 511 1218 q 533 1238 519 1232 q 568 1244 546 1244 l 689 1244 q 711 1222 714 1244 q 700 1201 711 1211 l 546 1061 q 499 1042 524 1042 l 428 1042 z "},"Ō":{"ha":965,"x_min":50,"x_max":946,"o":"m 408 -14 q 253 9 324 -14 q 135 79 182 32 q 69 198 88 126 q 67 367 50 269 q 90 485 76 426 q 117 604 103 543 q 281 890 163 793 q 588 986 399 986 q 744 962 674 986 q 861 890 814 938 q 927 770 908 842 q 929 604 946 699 q 906 485 919 543 q 879 367 893 426 q 714 80 832 174 q 408 -14 596 -14 m 421 146 q 583 199 513 146 q 682 374 653 253 q 708 487 697 435 q 729 599 719 539 q 710 773 751 719 q 575 826 669 826 q 413 773 482 826 q 315 599 344 719 q 289 487 300 539 q 267 374 278 435 q 285 199 246 253 q 421 146 325 146 m 419 1042 q 400 1050 406 1042 q 396 1072 394 1058 l 411 1150 q 425 1172 414 1164 q 450 1181 436 1181 l 826 1181 q 847 1172 840 1181 q 850 1150 853 1164 l 835 1072 q 822 1050 833 1058 q 797 1042 811 1042 l 419 1042 z "},"Ø":{"ha":965,"x_min":21,"x_max":996,"o":"m 408 -14 q 253 9 324 -14 q 135 79 182 32 q 69 198 88 126 q 67 367 50 269 q 90 485 76 426 q 117 604 103 543 q 281 890 163 793 q 588 986 399 986 q 744 962 674 986 q 861 890 814 938 q 927 770 908 842 q 929 604 946 699 q 906 485 919 543 q 879 367 893 426 q 714 80 832 174 q 408 -14 596 -14 m 421 146 q 583 199 513 146 q 682 374 653 253 q 708 487 697 435 q 729 599 719 539 q 710 773 751 719 q 575 826 669 826 q 413 773 482 826 q 315 599 344 719 q 289 487 300 539 q 267 374 278 435 q 285 199 246 253 q 421 146 325 146 m 53 -90 q 29 -76 38 -90 q 35 -44 21 -62 l 892 1042 q 903 1055 894 1047 q 925 1063 911 1063 l 965 1063 q 988 1049 981 1063 q 983 1018 996 1035 l 125 -69 q 114 -83 122 -75 q 90 -90 106 -90 l 53 -90 z "},"Ǿ":{"ha":1000,"x_min":21,"x_max":996,"o":"m 563 1042 q 544 1061 543 1042 q 554 1081 546 1072 l 699 1219 q 726 1240 715 1235 q 756 1244 738 1244 l 904 1244 q 922 1238 917 1244 q 926 1222 928 1231 q 914 1201 925 1208 l 711 1060 q 686 1046 697 1050 q 658 1042 675 1042 l 563 1042 m 408 -14 q 253 9 324 -14 q 135 79 182 32 q 69 198 88 126 q 67 367 50 269 q 90 485 76 426 q 117 604 103 543 q 281 890 163 793 q 588 986 399 986 q 744 962 674 986 q 861 890 814 938 q 927 770 908 842 q 929 604 946 699 q 906 485 919 543 q 879 367 893 426 q 714 80 832 174 q 408 -14 596 -14 m 421 146 q 583 199 513 146 q 682 374 653 253 q 708 487 697 435 q 729 599 719 539 q 710 773 751 719 q 575 826 669 826 q 413 773 482 826 q 315 599 344 719 q 289 487 300 539 q 267 374 278 435 q 285 199 246 253 q 421 146 325 146 m 53 -90 q 29 -76 38 -90 q 35 -44 21 -62 l 892 1042 q 903 1055 894 1047 q 925 1063 911 1063 l 965 1063 q 988 1049 981 1063 q 983 1018 996 1035 l 125 -69 q 114 -83 122 -75 q 90 -90 106 -90 l 53 -90 z "},"Õ":{"ha":965,"x_min":50,"x_max":946,"o":"m 408 -14 q 253 9 324 -14 q 135 79 182 32 q 69 198 88 126 q 67 367 50 269 q 90 485 76 426 q 117 604 103 543 q 281 890 163 793 q 588 986 399 986 q 744 962 674 986 q 861 890 814 938 q 927 770 908 842 q 929 604 946 699 q 906 485 919 543 q 879 367 893 426 q 714 80 832 174 q 408 -14 596 -14 m 421 146 q 583 199 513 146 q 682 374 653 253 q 708 487 697 435 q 729 599 719 539 q 710 773 751 719 q 575 826 669 826 q 413 773 482 826 q 315 599 344 719 q 289 487 300 539 q 267 374 278 435 q 285 199 246 253 q 421 146 325 146 m 701 1035 q 642 1047 665 1035 q 601 1071 619 1058 q 558 1083 582 1083 q 526 1073 538 1083 q 507 1052 515 1063 q 483 1042 499 1042 l 419 1042 q 404 1049 410 1042 q 400 1065 399 1056 q 416 1113 404 1086 q 448 1163 428 1139 q 497 1203 468 1188 q 561 1218 525 1218 q 620 1206 597 1218 q 662 1182 643 1194 q 703 1169 681 1169 q 736 1181 725 1169 q 755 1202 747 1192 q 778 1213 763 1213 l 842 1213 q 859 1205 854 1213 q 861 1188 864 1197 q 845 1140 857 1167 q 813 1090 833 1114 q 765 1051 793 1067 q 701 1035 736 1035 z "},"Œ":{"ha":1304,"x_min":51,"x_max":1344,"o":"m 424 0 q 259 24 332 0 q 138 95 186 47 q 70 214 89 143 q 69 378 51 285 q 92 485 82 439 q 115 593 101 532 q 204 804 147 721 q 356 930 261 888 q 589 972 450 972 l 1314 972 q 1337 963 1329 972 q 1342 938 1344 953 l 1322 846 q 1307 822 1318 832 q 1281 813 1296 813 l 868 813 l 815 567 l 1197 567 q 1220 558 1213 567 q 1225 533 1228 549 l 1206 447 q 1192 423 1203 432 q 1165 414 1181 414 l 783 414 l 729 160 l 1153 160 q 1175 150 1168 160 q 1179 125 1182 140 l 1160 33 q 1146 10 1157 19 q 1119 0 1135 0 l 424 0 m 444 160 l 542 160 l 682 813 l 583 813 q 451 790 506 813 q 363 719 397 768 q 310 589 329 669 q 292 518 300 550 q 279 455 285 486 q 265 382 274 424 q 285 215 244 269 q 444 160 326 160 z "},"P":{"ha":917,"x_min":25,"x_max":943,"o":"m 56 0 q 33 10 40 0 q 28 33 25 19 l 221 938 q 235 963 224 953 q 261 972 246 972 l 617 972 q 763 953 699 972 q 869 894 828 933 q 927 798 911 856 q 926 664 943 740 q 790 434 893 510 q 518 358 688 358 l 296 358 l 226 33 q 213 10 224 19 q 186 0 201 0 l 56 0 m 326 513 l 522 513 q 655 551 599 513 q 728 664 711 589 q 732 745 738 711 q 695 799 726 779 q 597 818 664 818 l 392 818 l 326 513 z "},"Þ":{"ha":919,"x_min":25,"x_max":906,"o":"m 56 0 q 33 10 40 0 q 28 33 25 19 l 221 939 q 235 963 224 953 q 261 972 246 972 l 393 972 q 415 963 407 972 q 419 939 422 953 l 389 799 l 581 799 q 726 779 661 799 q 833 721 790 760 q 890 624 875 682 q 889 489 906 567 q 753 260 857 336 q 482 185 650 185 l 260 185 l 226 33 q 213 10 224 19 q 186 0 201 0 l 56 0 m 289 339 l 486 339 q 619 377 563 339 q 692 490 675 415 q 696 572 701 538 q 659 625 690 606 q 561 644 628 644 l 354 644 l 289 339 z "},"Q":{"ha":965,"x_min":63,"x_max":971,"o":"m 644 -90 q 616 -78 625 -90 q 601 -58 607 -67 l 565 11 q 411 -14 494 -14 q 207 27 288 -14 q 94 153 126 68 q 86 367 63 239 q 110 485 97 426 q 136 604 122 543 q 236 815 167 731 q 405 943 306 900 q 624 986 504 986 q 824 943 743 986 q 938 815 904 900 q 949 604 971 731 q 926 485 939 543 q 897 367 913 426 q 739 90 853 185 l 807 -47 q 808 -61 810 -53 q 796 -82 807 -74 q 774 -90 785 -90 l 644 -90 m 446 146 q 603 199 535 146 q 701 374 672 253 q 728 487 717 435 q 749 599 739 539 q 747 730 764 679 q 690 803 731 781 q 589 826 649 826 q 433 773 501 826 q 333 599 364 719 q 308 487 319 539 q 286 374 297 435 q 288 243 272 293 q 345 169 304 193 q 446 146 386 146 z "},"R":{"ha":935,"x_min":46,"x_max":969,"o":"m 74 0 q 53 10 60 0 q 49 33 46 19 l 240 938 q 255 963 243 953 q 281 972 267 972 l 640 972 q 889 894 808 972 q 938 668 969 817 q 851 497 915 565 q 694 399 788 429 l 822 44 q 824 37 824 40 q 822 29 824 33 q 810 8 821 17 q 788 0 799 0 l 661 0 q 628 13 638 0 q 614 38 619 25 l 506 367 l 313 367 l 242 33 q 227 10 239 19 q 200 0 215 0 l 74 0 m 346 524 l 540 524 q 675 562 625 524 q 739 669 725 600 q 722 778 754 739 q 603 818 689 818 l 407 818 l 346 524 z "},"Ŕ":{"ha":935,"x_min":46,"x_max":969,"o":"m 74 0 q 53 10 60 0 q 49 33 46 19 l 240 938 q 255 963 243 953 q 281 972 267 972 l 640 972 q 889 894 808 972 q 938 668 969 817 q 851 497 915 565 q 694 399 788 429 l 822 44 q 824 37 824 40 q 822 29 824 33 q 810 8 821 17 q 788 0 799 0 l 661 0 q 628 13 638 0 q 614 38 619 25 l 506 367 l 313 367 l 242 33 q 227 10 239 19 q 200 0 215 0 l 74 0 m 346 524 l 540 524 q 675 562 625 524 q 739 669 725 600 q 722 778 754 739 q 603 818 689 818 l 407 818 l 346 524 m 494 1042 q 476 1061 475 1042 q 486 1081 478 1072 l 631 1219 q 658 1240 647 1235 q 688 1244 669 1244 l 836 1244 q 854 1238 849 1244 q 858 1222 860 1231 q 846 1201 857 1208 l 643 1060 q 618 1046 629 1050 q 590 1042 607 1042 l 494 1042 z "},"Ř":{"ha":935,"x_min":46,"x_max":969,"o":"m 74 0 q 53 10 60 0 q 49 33 46 19 l 240 938 q 255 963 243 953 q 281 972 267 972 l 640 972 q 889 894 808 972 q 938 668 969 817 q 851 497 915 565 q 694 399 788 429 l 822 44 q 824 37 824 40 q 822 29 824 33 q 810 8 821 17 q 788 0 799 0 l 661 0 q 628 13 638 0 q 614 38 619 25 l 506 367 l 313 367 l 242 33 q 227 10 239 19 q 200 0 215 0 l 74 0 m 346 524 l 540 524 q 675 562 625 524 q 739 669 725 600 q 722 778 754 739 q 603 818 689 818 l 407 818 l 346 524 m 518 1042 q 496 1046 506 1042 q 475 1064 486 1050 l 367 1207 q 363 1226 360 1215 q 386 1244 365 1244 l 438 1244 q 457 1242 449 1244 q 474 1235 465 1240 l 574 1163 l 706 1235 q 726 1242 717 1240 q 744 1244 735 1244 l 818 1244 q 833 1228 836 1244 q 822 1208 833 1217 l 651 1064 q 624 1046 635 1050 q 600 1042 613 1042 l 518 1042 z "},"Ŗ":{"ha":935,"x_min":46,"x_max":969,"o":"m 74 0 q 53 10 60 0 q 49 33 46 19 l 240 938 q 255 963 243 953 q 281 972 267 972 l 640 972 q 889 894 808 972 q 938 668 969 817 q 851 497 915 565 q 694 399 788 429 l 822 44 q 824 37 824 40 q 822 29 824 33 q 810 8 821 17 q 788 0 799 0 l 661 0 q 628 13 638 0 q 614 38 619 25 l 506 367 l 313 367 l 242 33 q 227 10 239 19 q 200 0 215 0 l 74 0 m 346 524 l 540 524 q 675 562 625 524 q 739 669 725 600 q 722 778 754 739 q 603 818 689 818 l 407 818 l 346 524 m 225 -314 q 208 -305 213 -314 q 207 -283 203 -296 l 269 -114 q 290 -83 276 -96 q 324 -69 303 -69 l 446 -69 q 462 -76 457 -69 q 465 -93 467 -83 q 458 -114 464 -103 l 358 -279 q 338 -303 350 -293 q 306 -314 325 -314 l 225 -314 z "},"S":{"ha":890,"x_min":4,"x_max":882,"o":"m 371 -14 q 160 24 242 -14 q 41 123 78 61 q 15 254 4 185 q 26 275 17 267 q 47 283 35 283 l 175 283 q 199 276 192 283 q 211 257 207 268 q 233 205 215 231 q 288 163 251 179 q 383 146 325 146 q 542 179 483 146 q 613 269 600 213 q 600 334 621 310 q 528 378 579 358 q 392 421 476 399 q 232 485 294 446 q 147 582 169 524 q 142 722 124 640 q 270 915 167 843 q 542 986 374 986 q 694 962 629 986 q 803 898 760 938 q 864 813 846 858 q 875 725 882 768 q 865 705 874 714 q 843 696 857 696 l 711 696 q 689 701 699 696 q 675 722 679 707 q 637 796 676 765 q 531 826 597 826 q 402 799 456 826 q 335 713 349 771 q 344 648 328 674 q 407 603 361 622 q 533 561 453 583 q 713 497 647 535 q 803 401 779 458 q 808 263 826 344 q 668 56 781 126 q 371 -14 556 -14 z "},"Ś":{"ha":890,"x_min":4,"x_max":882,"o":"m 371 -14 q 160 24 242 -14 q 41 123 78 61 q 15 254 4 185 q 26 275 17 267 q 47 283 35 283 l 175 283 q 199 276 192 283 q 211 257 207 268 q 233 205 215 231 q 288 163 251 179 q 383 146 325 146 q 542 179 483 146 q 613 269 600 213 q 600 334 621 310 q 528 378 579 358 q 392 421 476 399 q 232 485 294 446 q 147 582 169 524 q 142 722 124 640 q 270 915 167 843 q 542 986 374 986 q 694 962 629 986 q 803 898 760 938 q 864 813 846 858 q 875 725 882 768 q 865 705 874 714 q 843 696 857 696 l 711 696 q 689 701 699 696 q 675 722 679 707 q 637 796 676 765 q 531 826 597 826 q 402 799 456 826 q 335 713 349 771 q 344 648 328 674 q 407 603 361 622 q 533 561 453 583 q 713 497 647 535 q 803 401 779 458 q 808 263 826 344 q 668 56 781 126 q 371 -14 556 -14 m 500 1042 q 482 1061 481 1042 q 492 1081 483 1072 l 636 1219 q 664 1240 653 1235 q 693 1244 675 1244 l 842 1244 q 860 1238 854 1244 q 864 1222 865 1231 q 851 1201 863 1208 l 649 1060 q 624 1046 635 1050 q 596 1042 613 1042 l 500 1042 z "},"Š":{"ha":890,"x_min":4,"x_max":882,"o":"m 371 -14 q 160 24 242 -14 q 41 123 78 61 q 15 254 4 185 q 26 275 17 267 q 47 283 35 283 l 175 283 q 199 276 192 283 q 211 257 207 268 q 233 205 215 231 q 288 163 251 179 q 383 146 325 146 q 542 179 483 146 q 613 269 600 213 q 600 334 621 310 q 528 378 579 358 q 392 421 476 399 q 232 485 294 446 q 147 582 169 524 q 142 722 124 640 q 270 915 167 843 q 542 986 374 986 q 694 962 629 986 q 803 898 760 938 q 864 813 846 858 q 875 725 882 768 q 865 705 874 714 q 843 696 857 696 l 711 696 q 689 701 699 696 q 675 722 679 707 q 637 796 676 765 q 531 826 597 826 q 402 799 456 826 q 335 713 349 771 q 344 648 328 674 q 407 603 361 622 q 533 561 453 583 q 713 497 647 535 q 803 401 779 458 q 808 263 826 344 q 668 56 781 126 q 371 -14 556 -14 m 524 1042 q 501 1046 511 1042 q 481 1064 492 1050 l 372 1207 q 368 1226 365 1215 q 392 1244 371 1244 l 443 1244 q 463 1242 454 1244 q 479 1235 471 1240 l 579 1163 l 711 1235 q 731 1242 722 1240 q 750 1244 740 1244 l 824 1244 q 839 1228 842 1244 q 828 1208 839 1217 l 657 1064 q 629 1046 640 1050 q 606 1042 618 1042 l 524 1042 z "},"Ş":{"ha":890,"x_min":4,"x_max":883,"o":"m 322 -306 q 257 -292 285 -304 q 220 -262 229 -279 q 226 -235 211 -246 l 254 -214 q 276 -208 268 -203 q 298 -222 285 -212 q 339 -231 311 -231 q 378 -217 360 -231 q 400 -183 396 -204 q 393 -151 406 -164 q 358 -139 381 -139 q 325 -144 340 -139 q 298 -151 310 -149 q 278 -142 286 -153 l 258 -117 q 257 -97 253 -107 q 271 -74 261 -86 l 310 -12 q 126 37 194 -3 q 31 134 57 76 q 15 254 4 192 q 28 275 18 267 q 51 283 39 283 l 176 283 q 201 276 193 283 q 211 257 208 268 q 233 205 215 231 q 289 163 250 179 q 390 146 328 146 q 546 179 490 146 q 613 269 601 213 q 601 334 621 310 q 529 378 581 358 q 393 421 478 399 q 233 481 296 446 q 145 571 169 517 q 139 708 121 625 q 213 851 156 789 q 358 950 269 914 q 560 986 447 986 q 715 962 651 986 q 817 898 779 938 q 869 813 854 858 q 876 725 883 768 q 865 705 875 714 q 842 696 854 696 l 711 696 q 690 701 700 696 q 676 722 681 707 q 638 796 678 765 q 526 826 599 826 q 400 799 451 826 q 336 713 349 771 q 346 648 329 674 q 408 603 363 622 q 535 561 454 583 q 714 500 647 535 q 805 412 781 465 q 811 276 829 358 q 735 127 793 190 q 588 28 676 64 q 392 -12 500 -7 l 350 -74 q 374 -67 358 -69 q 400 -64 389 -64 q 471 -97 449 -64 q 482 -182 493 -131 q 429 -271 472 -235 q 322 -306 386 -307 z "},"Ŝ":{"ha":890,"x_min":4,"x_max":882,"o":"m 371 -14 q 160 24 242 -14 q 41 123 78 61 q 15 254 4 185 q 26 275 17 267 q 47 283 35 283 l 175 283 q 199 276 192 283 q 211 257 207 268 q 233 205 215 231 q 288 163 251 179 q 383 146 325 146 q 542 179 483 146 q 613 269 600 213 q 600 334 621 310 q 528 378 579 358 q 392 421 476 399 q 232 485 294 446 q 147 582 169 524 q 142 722 124 640 q 270 915 167 843 q 542 986 374 986 q 694 962 629 986 q 803 898 760 938 q 864 813 846 858 q 875 725 882 768 q 865 705 874 714 q 843 696 857 696 l 711 696 q 689 701 699 696 q 675 722 679 707 q 637 796 676 765 q 531 826 597 826 q 402 799 456 826 q 335 713 349 771 q 344 648 328 674 q 407 603 361 622 q 533 561 453 583 q 713 497 647 535 q 803 401 779 458 q 808 263 826 344 q 668 56 781 126 q 371 -14 556 -14 m 340 1042 q 324 1058 322 1042 q 336 1079 325 1069 l 506 1222 q 535 1241 524 1238 q 558 1244 546 1244 l 639 1244 q 662 1241 653 1244 q 682 1222 671 1238 l 790 1079 q 794 1060 797 1071 q 772 1042 792 1042 l 719 1042 q 701 1044 710 1042 q 683 1051 692 1046 l 583 1125 l 451 1051 q 433 1044 442 1047 q 413 1042 424 1042 l 340 1042 z "},"Ș":{"ha":890,"x_min":4,"x_max":882,"o":"m 371 -14 q 160 24 242 -14 q 41 123 78 61 q 15 254 4 185 q 26 275 17 267 q 47 283 35 283 l 175 283 q 199 276 192 283 q 211 257 207 268 q 233 205 215 231 q 288 163 251 179 q 383 146 325 146 q 542 179 483 146 q 613 269 600 213 q 600 334 621 310 q 528 378 579 358 q 392 421 476 399 q 232 485 294 446 q 147 582 169 524 q 142 722 124 640 q 270 915 167 843 q 542 986 374 986 q 694 962 629 986 q 803 898 760 938 q 864 813 846 858 q 875 725 882 768 q 865 705 874 714 q 843 696 857 696 l 711 696 q 689 701 699 696 q 675 722 679 707 q 637 796 676 765 q 531 826 597 826 q 402 799 456 826 q 335 713 349 771 q 344 648 328 674 q 407 603 361 622 q 533 561 453 583 q 713 497 647 535 q 803 401 779 458 q 808 263 826 344 q 668 56 781 126 q 371 -14 556 -14 m 200 -314 q 183 -305 188 -314 q 182 -283 178 -296 l 244 -114 q 265 -83 251 -96 q 299 -69 278 -69 l 421 -69 q 437 -76 432 -69 q 440 -93 442 -83 q 433 -114 439 -103 l 333 -279 q 313 -303 325 -293 q 281 -314 300 -314 l 200 -314 z "},"ẞ":{"ha":932,"x_min":8,"x_max":917,"o":"m 38 0 q 16 10 24 0 q 11 33 8 19 l 139 636 q 294 899 176 811 q 592 986 411 986 q 758 959 685 986 q 874 890 832 932 q 917 800 917 849 q 898 739 917 764 q 854 692 879 714 l 567 446 l 599 528 q 793 477 725 528 q 861 332 861 426 q 807 163 861 238 q 660 44 753 88 q 453 0 568 0 l 297 0 q 273 9 282 0 q 268 33 264 18 l 286 115 q 301 140 289 131 q 331 149 314 149 l 442 149 q 601 193 543 149 q 660 313 660 238 q 621 392 660 365 q 500 419 582 419 l 440 419 q 416 429 424 419 q 413 454 408 439 l 428 519 q 437 543 431 535 q 460 568 443 551 l 660 738 q 679 756 671 746 q 688 776 688 767 q 649 817 688 799 q 553 836 611 836 q 410 790 467 836 q 331 636 354 744 l 203 33 q 188 10 200 19 q 161 0 175 0 l 38 0 z "},"T":{"ha":835,"x_min":115,"x_max":919,"o":"m 265 0 q 244 10 251 0 q 239 33 236 19 l 403 801 l 146 801 q 123 811 131 801 q 118 835 115 821 l 140 938 q 155 963 143 953 q 181 972 167 972 l 889 972 q 912 963 904 972 q 917 938 919 953 l 894 835 q 881 811 892 821 q 854 801 869 801 l 597 801 l 433 33 q 419 10 431 19 q 393 0 408 0 l 265 0 z "},"Ŧ":{"ha":849,"x_min":122,"x_max":926,"o":"m 272 0 q 250 10 258 0 q 244 33 242 19 l 331 435 l 182 435 q 161 444 168 435 q 157 468 154 453 l 167 519 q 182 544 169 535 q 208 554 194 554 l 357 554 l 410 801 l 153 801 q 130 811 138 801 q 125 835 122 821 l 147 938 q 162 963 150 953 q 188 972 174 972 l 896 972 q 919 963 911 972 q 924 938 926 953 l 901 835 q 888 811 899 821 q 861 801 876 801 l 604 801 l 551 554 l 699 554 q 721 544 714 554 q 725 519 728 535 l 715 468 q 700 444 713 453 q 672 435 688 435 l 525 435 l 440 33 q 426 10 438 19 q 400 0 415 0 l 272 0 z "},"Ť":{"ha":835,"x_min":115,"x_max":919,"o":"m 265 0 q 244 10 251 0 q 239 33 236 19 l 403 801 l 146 801 q 123 811 131 801 q 118 835 115 821 l 140 938 q 155 963 143 953 q 181 972 167 972 l 889 972 q 912 963 904 972 q 917 938 919 953 l 894 835 q 881 811 892 821 q 854 801 869 801 l 597 801 l 433 33 q 419 10 431 19 q 393 0 408 0 l 265 0 m 514 1042 q 492 1046 501 1042 q 471 1064 482 1050 l 363 1207 q 358 1226 356 1215 q 382 1244 361 1244 l 433 1244 q 453 1242 444 1244 q 469 1235 461 1240 l 569 1163 l 701 1235 q 722 1242 713 1240 q 740 1244 731 1244 l 814 1244 q 829 1228 832 1244 q 818 1208 829 1217 l 647 1064 q 619 1046 631 1050 q 596 1042 608 1042 l 514 1042 z "},"Ț":{"ha":835,"x_min":115,"x_max":919,"o":"m 265 0 q 244 10 251 0 q 239 33 236 19 l 403 801 l 146 801 q 123 811 131 801 q 118 835 115 821 l 140 938 q 155 963 143 953 q 181 972 167 972 l 889 972 q 912 963 904 972 q 917 938 919 953 l 894 835 q 881 811 892 821 q 854 801 869 801 l 597 801 l 433 33 q 419 10 431 19 q 393 0 408 0 l 265 0 m 164 -314 q 147 -305 151 -314 q 146 -283 142 -296 l 208 -114 q 228 -83 215 -96 q 263 -69 242 -69 l 385 -69 q 401 -76 396 -69 q 404 -93 406 -83 q 397 -114 403 -103 l 297 -279 q 276 -303 289 -293 q 244 -314 264 -314 l 164 -314 z "},"U":{"ha":990,"x_min":71,"x_max":1004,"o":"m 421 -14 q 261 9 332 -14 q 145 79 190 32 q 85 199 100 126 q 92 372 71 272 l 211 938 q 226 963 214 953 q 251 972 238 972 l 378 972 q 400 963 393 972 q 404 938 407 953 l 283 372 q 294 203 260 258 q 433 149 329 149 q 599 203 533 149 q 688 372 664 258 l 808 938 q 824 963 811 953 q 850 972 836 972 l 975 972 q 997 963 990 972 q 1001 938 1004 953 l 882 372 q 728 79 839 172 q 421 -14 617 -14 z "},"Ú":{"ha":990,"x_min":71,"x_max":1004,"o":"m 421 -14 q 261 9 332 -14 q 145 79 190 32 q 85 199 100 126 q 92 372 71 272 l 211 938 q 226 963 214 953 q 251 972 238 972 l 378 972 q 400 963 393 972 q 404 938 407 953 l 283 372 q 294 203 260 258 q 433 149 329 149 q 599 203 533 149 q 688 372 664 258 l 808 938 q 824 963 811 953 q 850 972 836 972 l 975 972 q 997 963 990 972 q 1001 938 1004 953 l 882 372 q 728 79 839 172 q 421 -14 617 -14 m 550 1042 q 532 1061 531 1042 q 542 1081 533 1072 l 686 1219 q 714 1240 703 1235 q 743 1244 725 1244 l 892 1244 q 910 1238 904 1244 q 914 1222 915 1231 q 901 1201 913 1208 l 699 1060 q 674 1046 685 1050 q 646 1042 663 1042 l 550 1042 z "},"Ŭ":{"ha":990,"x_min":71,"x_max":1004,"o":"m 421 -14 q 261 9 332 -14 q 145 79 190 32 q 85 199 100 126 q 92 372 71 272 l 211 938 q 226 963 214 953 q 251 972 238 972 l 378 972 q 400 963 393 972 q 404 938 407 953 l 283 372 q 294 203 260 258 q 433 149 329 149 q 599 203 533 149 q 688 372 664 258 l 808 938 q 824 963 811 953 q 850 972 836 972 l 975 972 q 997 963 990 972 q 1001 938 1004 953 l 882 372 q 728 79 839 172 q 421 -14 617 -14 m 621 1031 q 515 1056 556 1031 q 460 1124 475 1082 q 454 1214 444 1165 q 465 1233 457 1225 q 486 1240 474 1240 l 554 1240 q 572 1233 567 1240 q 575 1214 578 1225 q 578 1156 569 1182 q 629 1129 588 1129 q 692 1156 671 1129 q 722 1214 714 1182 q 733 1233 725 1225 q 754 1240 742 1240 l 822 1240 q 840 1233 835 1240 q 843 1214 846 1225 q 808 1124 833 1165 q 739 1056 783 1082 q 621 1031 694 1031 z "},"Û":{"ha":990,"x_min":71,"x_max":1004,"o":"m 421 -14 q 261 9 332 -14 q 145 79 190 32 q 85 199 100 126 q 92 372 71 272 l 211 938 q 226 963 214 953 q 251 972 238 972 l 378 972 q 400 963 393 972 q 404 938 407 953 l 283 372 q 294 203 260 258 q 433 149 329 149 q 599 203 533 149 q 688 372 664 258 l 808 938 q 824 963 811 953 q 850 972 836 972 l 975 972 q 997 963 990 972 q 1001 938 1004 953 l 882 372 q 728 79 839 172 q 421 -14 617 -14 m 390 1042 q 374 1058 372 1042 q 386 1079 375 1069 l 556 1222 q 585 1241 574 1238 q 608 1244 596 1244 l 689 1244 q 712 1241 703 1244 q 732 1222 721 1238 l 840 1079 q 844 1060 847 1071 q 822 1042 842 1042 l 769 1042 q 751 1044 760 1042 q 733 1051 742 1046 l 633 1125 l 501 1051 q 483 1044 492 1047 q 463 1042 474 1042 l 390 1042 z "},"Ü":{"ha":990,"x_min":71,"x_max":1004,"o":"m 421 -14 q 261 9 332 -14 q 145 79 190 32 q 85 199 100 126 q 92 372 71 272 l 211 938 q 226 963 214 953 q 251 972 238 972 l 378 972 q 400 963 393 972 q 404 938 407 953 l 283 372 q 294 203 260 258 q 433 149 329 149 q 599 203 533 149 q 688 372 664 258 l 808 938 q 824 963 811 953 q 850 972 836 972 l 975 972 q 997 963 990 972 q 1001 938 1004 953 l 882 372 q 728 79 839 172 q 421 -14 617 -14 m 715 1042 q 695 1050 701 1042 q 692 1072 689 1058 l 713 1174 q 726 1197 715 1188 q 751 1206 738 1206 l 853 1206 q 874 1197 867 1206 q 878 1174 881 1188 l 856 1072 q 842 1050 853 1058 q 817 1042 831 1042 l 715 1042 m 413 1042 q 392 1050 399 1042 q 389 1072 386 1058 l 410 1174 q 424 1197 413 1188 q 449 1206 435 1206 l 550 1206 q 571 1197 564 1206 q 575 1174 578 1188 l 553 1072 q 539 1050 550 1058 q 514 1042 528 1042 l 413 1042 z "},"Ù":{"ha":990,"x_min":71,"x_max":1004,"o":"m 421 -14 q 261 9 332 -14 q 145 79 190 32 q 85 199 100 126 q 92 372 71 272 l 211 938 q 226 963 214 953 q 251 972 238 972 l 378 972 q 400 963 393 972 q 404 938 407 953 l 283 372 q 294 203 260 258 q 433 149 329 149 q 599 203 533 149 q 688 372 664 258 l 808 938 q 824 963 811 953 q 850 972 836 972 l 975 972 q 997 963 990 972 q 1001 938 1004 953 l 882 372 q 728 79 839 172 q 421 -14 617 -14 m 583 1042 q 556 1046 565 1042 q 538 1060 547 1050 l 397 1199 q 392 1218 389 1207 q 424 1244 397 1244 l 567 1244 q 593 1240 585 1244 q 613 1219 601 1235 l 696 1082 q 699 1064 701 1074 q 672 1042 694 1042 l 583 1042 z "},"Ű":{"ha":990,"x_min":71,"x_max":1004,"o":"m 421 -14 q 261 9 332 -14 q 145 79 190 32 q 85 199 100 126 q 92 372 71 272 l 211 938 q 226 963 214 953 q 251 972 238 972 l 378 972 q 400 963 393 972 q 404 938 407 953 l 283 372 q 294 203 260 258 q 433 149 329 149 q 599 203 533 149 q 688 372 664 258 l 808 938 q 824 963 811 953 q 850 972 836 972 l 975 972 q 997 963 990 972 q 1001 938 1004 953 l 882 372 q 728 79 839 172 q 421 -14 617 -14 m 694 1042 q 676 1060 675 1042 q 679 1069 676 1064 q 685 1079 682 1075 l 778 1218 q 799 1238 786 1232 q 835 1244 813 1244 l 957 1244 q 979 1222 982 1244 q 968 1201 978 1211 l 814 1061 q 765 1042 792 1042 l 694 1042 m 435 1042 q 415 1060 414 1042 q 419 1069 417 1064 q 425 1079 422 1075 l 518 1218 q 540 1238 526 1232 q 575 1244 553 1244 l 696 1244 q 718 1222 721 1244 q 707 1201 718 1211 l 553 1061 q 506 1042 531 1042 l 435 1042 z "},"Ū":{"ha":990,"x_min":71,"x_max":1004,"o":"m 421 -14 q 261 9 332 -14 q 145 79 190 32 q 85 199 100 126 q 92 372 71 272 l 211 938 q 226 963 214 953 q 251 972 238 972 l 378 972 q 400 963 393 972 q 404 938 407 953 l 283 372 q 294 203 260 258 q 433 149 329 149 q 599 203 533 149 q 688 372 664 258 l 808 938 q 824 963 811 953 q 850 972 836 972 l 975 972 q 997 963 990 972 q 1001 938 1004 953 l 882 372 q 728 79 839 172 q 421 -14 617 -14 m 426 1042 q 407 1050 413 1042 q 403 1072 401 1058 l 418 1150 q 432 1172 421 1164 q 457 1181 443 1181 l 833 1181 q 853 1172 847 1181 q 857 1150 860 1164 l 842 1072 q 829 1050 840 1058 q 804 1042 818 1042 l 426 1042 z "},"Ų":{"ha":990,"x_min":68,"x_max":1004,"o":"m 458 -306 q 351 -277 396 -306 q 288 -200 307 -249 q 281 -90 269 -151 q 294 -43 285 -64 q 314 -4 303 -22 q 167 57 225 11 q 88 181 108 103 q 92 372 68 260 l 211 938 q 226 963 214 953 q 251 972 238 972 l 378 972 q 400 963 393 972 q 404 938 407 953 l 283 372 q 294 203 260 258 q 433 149 329 149 q 599 203 533 149 q 688 372 664 258 l 808 938 q 824 963 811 953 q 850 972 836 972 l 975 972 q 997 963 990 972 q 1001 938 1004 953 l 882 372 q 805 163 858 244 q 674 40 751 82 q 499 -10 597 -1 q 436 -35 463 -12 q 401 -96 410 -57 q 413 -163 393 -136 q 469 -190 433 -190 l 490 -190 q 513 -199 506 -190 q 517 -224 519 -208 l 504 -276 q 490 -298 500 -290 q 465 -306 481 -306 l 458 -306 z "},"Ů":{"ha":990,"x_min":71,"x_max":1004,"o":"m 421 -14 q 261 9 332 -14 q 145 79 190 32 q 85 199 100 126 q 92 372 71 272 l 211 938 q 226 963 214 953 q 251 972 238 972 l 378 972 q 400 963 393 972 q 404 938 407 953 l 283 372 q 294 203 260 258 q 433 149 329 149 q 599 203 533 149 q 688 372 664 258 l 808 938 q 824 963 811 953 q 850 972 836 972 l 975 972 q 997 963 990 972 q 1001 938 1004 953 l 882 372 q 728 79 839 172 q 421 -14 617 -14 m 613 1028 q 532 1060 563 1028 q 513 1143 501 1093 q 565 1226 524 1193 q 657 1258 607 1258 q 738 1226 707 1258 q 757 1143 768 1193 q 704 1060 746 1092 q 613 1028 663 1028 m 624 1101 q 658 1113 643 1101 q 676 1143 672 1125 q 672 1173 681 1161 q 646 1185 664 1185 q 612 1173 626 1185 q 593 1143 597 1161 q 597 1113 589 1125 q 624 1101 606 1101 z "},"Ũ":{"ha":990,"x_min":71,"x_max":1004,"o":"m 421 -14 q 261 9 332 -14 q 145 79 190 32 q 85 199 100 126 q 92 372 71 272 l 211 938 q 226 963 214 953 q 251 972 238 972 l 378 972 q 400 963 393 972 q 404 938 407 953 l 283 372 q 294 203 260 258 q 433 149 329 149 q 599 203 533 149 q 688 372 664 258 l 808 938 q 824 963 811 953 q 850 972 836 972 l 975 972 q 997 963 990 972 q 1001 938 1004 953 l 882 372 q 728 79 839 172 q 421 -14 617 -14 m 708 1035 q 649 1047 672 1035 q 608 1071 626 1058 q 565 1083 589 1083 q 533 1073 544 1083 q 514 1052 522 1063 q 490 1042 506 1042 l 426 1042 q 411 1049 417 1042 q 407 1065 406 1056 q 423 1113 411 1086 q 455 1163 435 1139 q 503 1203 475 1188 q 568 1218 532 1218 q 627 1206 604 1218 q 669 1182 650 1194 q 710 1169 688 1169 q 743 1181 732 1169 q 762 1202 754 1192 q 785 1213 769 1213 l 849 1213 q 866 1205 861 1213 q 868 1188 871 1197 q 852 1140 864 1167 q 820 1090 840 1114 q 772 1051 800 1067 q 708 1035 743 1035 z "},"V":{"ha":936,"x_min":149,"x_max":1014,"o":"m 303 0 q 270 11 281 0 q 258 39 260 22 l 150 936 q 158 963 149 954 q 182 972 167 972 l 300 972 q 328 963 319 972 q 338 942 336 953 l 419 226 l 806 942 q 822 962 810 951 q 853 972 833 972 l 988 972 q 1009 958 1004 972 q 1007 929 1014 944 l 521 39 q 497 11 511 22 q 460 0 482 0 l 303 0 z "},"W":{"ha":1122,"x_min":138,"x_max":1189,"o":"m 179 0 q 148 12 158 0 q 139 42 138 24 l 157 942 q 167 963 158 954 q 190 972 176 972 l 308 972 q 335 964 326 972 q 342 940 343 956 l 326 325 l 536 722 q 554 745 542 733 q 588 757 567 757 l 663 757 q 692 745 685 757 q 700 722 699 733 l 743 317 l 992 944 q 1036 972 1003 972 l 1163 972 q 1184 962 1179 972 q 1183 936 1189 951 l 836 42 q 815 12 829 24 q 779 0 800 0 l 681 0 q 650 11 660 0 q 639 35 640 22 l 574 497 l 331 35 q 310 11 324 22 q 275 0 296 0 l 179 0 z "},"Ẃ":{"ha":1122,"x_min":138,"x_max":1189,"o":"m 179 0 q 148 12 158 0 q 139 42 138 24 l 157 942 q 167 963 158 954 q 190 972 176 972 l 308 972 q 335 964 326 972 q 342 940 343 956 l 326 325 l 536 722 q 554 745 542 733 q 588 757 567 757 l 663 757 q 692 745 685 757 q 700 722 699 733 l 743 317 l 992 944 q 1036 972 1003 972 l 1163 972 q 1184 962 1179 972 q 1183 936 1189 951 l 836 42 q 815 12 829 24 q 779 0 800 0 l 681 0 q 650 11 660 0 q 639 35 640 22 l 574 497 l 331 35 q 310 11 324 22 q 275 0 296 0 l 179 0 m 614 1042 q 596 1061 594 1042 q 606 1081 597 1072 l 750 1219 q 778 1240 767 1235 q 807 1244 789 1244 l 956 1244 q 974 1238 968 1244 q 978 1222 979 1231 q 965 1201 976 1208 l 763 1060 q 738 1046 749 1050 q 710 1042 726 1042 l 614 1042 z "},"Ŵ":{"ha":1122,"x_min":138,"x_max":1189,"o":"m 179 0 q 148 12 158 0 q 139 42 138 24 l 157 942 q 167 963 158 954 q 190 972 176 972 l 308 972 q 335 964 326 972 q 342 940 343 956 l 326 325 l 536 722 q 554 745 542 733 q 588 757 567 757 l 663 757 q 692 745 685 757 q 700 722 699 733 l 743 317 l 992 944 q 1036 972 1003 972 l 1163 972 q 1184 962 1179 972 q 1183 936 1189 951 l 836 42 q 815 12 829 24 q 779 0 800 0 l 681 0 q 650 11 660 0 q 639 35 640 22 l 574 497 l 331 35 q 310 11 324 22 q 275 0 296 0 l 179 0 m 453 1042 q 436 1058 435 1042 q 449 1079 438 1069 l 618 1222 q 647 1241 636 1238 q 671 1244 658 1244 l 751 1244 q 774 1241 765 1244 q 794 1222 783 1238 l 903 1079 q 907 1060 910 1071 q 885 1042 904 1042 l 832 1042 q 813 1044 822 1042 q 796 1051 804 1046 l 696 1125 l 564 1051 q 545 1044 554 1047 q 525 1042 536 1042 l 453 1042 z "},"Ẅ":{"ha":1122,"x_min":138,"x_max":1189,"o":"m 179 0 q 148 12 158 0 q 139 42 138 24 l 157 942 q 167 963 158 954 q 190 972 176 972 l 308 972 q 335 964 326 972 q 342 940 343 956 l 326 325 l 536 722 q 554 745 542 733 q 588 757 567 757 l 663 757 q 692 745 685 757 q 700 722 699 733 l 743 317 l 992 944 q 1036 972 1003 972 l 1163 972 q 1184 962 1179 972 q 1183 936 1189 951 l 836 42 q 815 12 829 24 q 779 0 800 0 l 681 0 q 650 11 660 0 q 639 35 640 22 l 574 497 l 331 35 q 310 11 324 22 q 275 0 296 0 l 179 0 m 778 1042 q 758 1050 764 1042 q 754 1072 751 1058 l 775 1174 q 789 1197 778 1188 q 814 1206 800 1206 l 915 1206 q 936 1197 929 1206 q 940 1174 943 1188 l 918 1072 q 904 1050 915 1058 q 879 1042 893 1042 l 778 1042 m 475 1042 q 455 1050 461 1042 q 451 1072 449 1058 l 472 1174 q 486 1197 475 1188 q 511 1206 497 1206 l 613 1206 q 633 1197 626 1206 q 638 1174 640 1188 l 615 1072 q 601 1050 613 1058 q 576 1042 590 1042 l 475 1042 z "},"Ẁ":{"ha":1122,"x_min":138,"x_max":1189,"o":"m 179 0 q 148 12 158 0 q 139 42 138 24 l 157 942 q 167 963 158 954 q 190 972 176 972 l 308 972 q 335 964 326 972 q 342 940 343 956 l 326 325 l 536 722 q 554 745 542 733 q 588 757 567 757 l 663 757 q 692 745 685 757 q 700 722 699 733 l 743 317 l 992 944 q 1036 972 1003 972 l 1163 972 q 1184 962 1179 972 q 1183 936 1189 951 l 836 42 q 815 12 829 24 q 779 0 800 0 l 681 0 q 650 11 660 0 q 639 35 640 22 l 574 497 l 331 35 q 310 11 324 22 q 275 0 296 0 l 179 0 m 646 1042 q 619 1046 628 1042 q 600 1060 610 1050 l 460 1199 q 454 1218 451 1207 q 486 1244 460 1244 l 629 1244 q 656 1240 647 1244 q 675 1219 664 1235 l 758 1082 q 761 1064 764 1074 q 735 1042 757 1042 l 646 1042 z "},"X":{"ha":919,"x_min":-62,"x_max":1001,"o":"m -31 0 q -55 16 -47 0 q -50 46 -62 32 l 369 500 l 156 928 q 156 958 147 943 q 183 972 165 972 l 308 972 q 342 963 333 972 q 353 946 350 953 l 506 640 l 779 946 q 798 963 786 953 q 835 972 810 972 l 971 972 q 995 956 989 972 q 990 926 1001 940 l 590 474 l 808 43 q 806 14 815 28 q 778 0 797 0 l 654 0 q 623 10 632 0 q 611 25 614 19 l 454 331 l 171 25 q 155 10 167 19 q 119 0 143 0 l -31 0 z "},"Y":{"ha":919,"x_min":138,"x_max":1004,"o":"m 310 0 q 287 10 294 0 q 282 33 279 19 l 347 347 l 143 928 q 148 958 138 943 q 176 972 158 972 l 292 972 q 317 964 308 972 q 329 946 325 956 l 475 543 l 793 946 q 812 964 800 956 q 840 972 824 972 l 978 972 q 1002 957 1000 972 q 993 928 1004 942 l 542 347 l 474 33 q 460 10 471 19 q 433 0 449 0 l 310 0 z "},"Ý":{"ha":919,"x_min":138,"x_max":1004,"o":"m 310 0 q 287 10 294 0 q 282 33 279 19 l 347 347 l 143 928 q 148 958 138 943 q 176 972 158 972 l 292 972 q 317 964 308 972 q 329 946 325 956 l 475 543 l 793 946 q 812 964 800 956 q 840 972 824 972 l 978 972 q 1002 957 1000 972 q 993 928 1004 942 l 542 347 l 474 33 q 460 10 471 19 q 433 0 449 0 l 310 0 m 496 1042 q 478 1061 476 1042 q 488 1081 479 1072 l 632 1219 q 660 1240 649 1235 q 689 1244 671 1244 l 838 1244 q 856 1238 850 1244 q 860 1222 861 1231 q 847 1201 858 1208 l 644 1060 q 619 1046 631 1050 q 592 1042 608 1042 l 496 1042 z "},"Ŷ":{"ha":919,"x_min":138,"x_max":1004,"o":"m 310 0 q 287 10 294 0 q 282 33 279 19 l 347 347 l 143 928 q 148 958 138 943 q 176 972 158 972 l 292 972 q 317 964 308 972 q 329 946 325 956 l 475 543 l 793 946 q 812 964 800 956 q 840 972 824 972 l 978 972 q 1002 957 1000 972 q 993 928 1004 942 l 542 347 l 474 33 q 460 10 471 19 q 433 0 449 0 l 310 0 m 336 1042 q 319 1058 318 1042 q 332 1079 321 1069 l 501 1222 q 531 1241 519 1238 q 554 1244 542 1244 l 635 1244 q 658 1241 649 1244 q 678 1222 667 1238 l 786 1079 q 790 1060 793 1071 q 768 1042 788 1042 l 715 1042 q 697 1044 706 1042 q 679 1051 688 1046 l 579 1125 l 447 1051 q 428 1044 438 1047 q 408 1042 419 1042 l 336 1042 z "},"Ÿ":{"ha":919,"x_min":138,"x_max":1004,"o":"m 310 0 q 287 10 294 0 q 282 33 279 19 l 347 347 l 143 928 q 148 958 138 943 q 176 972 158 972 l 292 972 q 317 964 308 972 q 329 946 325 956 l 475 543 l 793 946 q 812 964 800 956 q 840 972 824 972 l 978 972 q 1002 957 1000 972 q 993 928 1004 942 l 542 347 l 474 33 q 460 10 471 19 q 433 0 449 0 l 310 0 m 661 1042 q 641 1050 647 1042 q 638 1072 635 1058 l 658 1174 q 672 1197 661 1188 q 697 1206 683 1206 l 799 1206 q 819 1197 813 1206 q 824 1174 826 1188 l 801 1072 q 788 1050 799 1058 q 763 1042 776 1042 l 661 1042 m 358 1042 q 338 1050 344 1042 q 335 1072 332 1058 l 356 1174 q 369 1197 358 1188 q 394 1206 381 1206 l 496 1206 q 517 1197 510 1206 q 521 1174 524 1188 l 499 1072 q 485 1050 496 1058 q 460 1042 474 1042 l 358 1042 z "},"Ỳ":{"ha":919,"x_min":138,"x_max":1004,"o":"m 310 0 q 287 10 294 0 q 282 33 279 19 l 347 347 l 143 928 q 148 958 138 943 q 176 972 158 972 l 292 972 q 317 964 308 972 q 329 946 325 956 l 475 543 l 793 946 q 812 964 800 956 q 840 972 824 972 l 978 972 q 1002 957 1000 972 q 993 928 1004 942 l 542 347 l 474 33 q 460 10 471 19 q 433 0 449 0 l 310 0 m 529 1042 q 502 1046 511 1042 q 483 1060 493 1050 l 343 1199 q 338 1218 335 1207 q 369 1244 343 1244 l 513 1244 q 539 1240 531 1244 q 558 1219 547 1235 l 642 1082 q 644 1064 647 1074 q 618 1042 640 1042 l 529 1042 z "},"Z":{"ha":864,"x_min":-31,"x_max":913,"o":"m 0 0 q -23 10 -15 0 q -28 35 -31 19 l -6 132 q 9 165 -1 153 q 25 182 19 176 l 629 808 l 183 808 q 162 818 169 808 q 157 842 154 828 l 178 938 q 192 963 181 953 q 218 972 204 972 l 883 972 q 906 963 899 972 q 910 938 913 953 l 889 842 q 878 814 886 825 q 861 793 869 803 l 264 165 l 726 165 q 749 156 742 165 q 754 131 757 146 l 733 33 q 719 10 731 19 q 693 0 708 0 l 0 0 z "},"Ź":{"ha":864,"x_min":-31,"x_max":913,"o":"m 0 0 q -23 10 -15 0 q -28 35 -31 19 l -6 132 q 9 165 -1 153 q 25 182 19 176 l 629 808 l 183 808 q 162 818 169 808 q 157 842 154 828 l 178 938 q 192 963 181 953 q 218 972 204 972 l 883 972 q 906 963 899 972 q 910 938 913 953 l 889 842 q 878 814 886 825 q 861 793 869 803 l 264 165 l 726 165 q 749 156 742 165 q 754 131 757 146 l 733 33 q 719 10 731 19 q 693 0 708 0 l 0 0 m 503 1042 q 485 1061 483 1042 q 494 1081 486 1072 l 639 1219 q 667 1240 656 1235 q 696 1244 678 1244 l 844 1244 q 863 1238 857 1244 q 867 1222 868 1231 q 854 1201 865 1208 l 651 1060 q 626 1046 638 1050 q 599 1042 615 1042 l 503 1042 z "},"Ž":{"ha":864,"x_min":-31,"x_max":913,"o":"m 0 0 q -23 10 -15 0 q -28 35 -31 19 l -6 132 q 9 165 -1 153 q 25 182 19 176 l 629 808 l 183 808 q 162 818 169 808 q 157 842 154 828 l 178 938 q 192 963 181 953 q 218 972 204 972 l 883 972 q 906 963 899 972 q 910 938 913 953 l 889 842 q 878 814 886 825 q 861 793 869 803 l 264 165 l 726 165 q 749 156 742 165 q 754 131 757 146 l 733 33 q 719 10 731 19 q 693 0 708 0 l 0 0 m 526 1042 q 504 1046 514 1042 q 483 1064 494 1050 l 375 1207 q 371 1226 368 1215 q 394 1244 374 1244 l 446 1244 q 465 1242 457 1244 q 482 1235 474 1240 l 582 1163 l 714 1235 q 734 1242 725 1240 q 753 1244 743 1244 l 826 1244 q 842 1228 844 1244 q 831 1208 842 1217 l 660 1064 q 632 1046 643 1050 q 608 1042 621 1042 l 526 1042 z "},"Ż":{"ha":864,"x_min":-31,"x_max":913,"o":"m 0 0 q -23 10 -15 0 q -28 35 -31 19 l -6 132 q 9 165 -1 153 q 25 182 19 176 l 629 808 l 183 808 q 162 818 169 808 q 157 842 154 828 l 178 938 q 192 963 181 953 q 218 972 204 972 l 883 972 q 906 963 899 972 q 910 938 913 953 l 889 842 q 878 814 886 825 q 861 793 869 803 l 264 165 l 726 165 q 749 156 742 165 q 754 131 757 146 l 733 33 q 719 10 731 19 q 693 0 708 0 l 0 0 m 507 1042 q 487 1050 493 1042 q 483 1072 481 1058 l 508 1189 q 522 1212 511 1203 q 546 1221 532 1221 l 663 1221 q 683 1212 676 1221 q 688 1189 690 1203 l 663 1072 q 649 1050 660 1058 q 624 1042 638 1042 l 507 1042 z "},"a":{"ha":842,"x_min":31,"x_max":811,"o":"m 276 -14 q 154 10 204 -14 q 76 79 104 35 q 39 184 47 124 q 42 317 31 244 q 51 362 47 342 q 61 407 56 382 q 109 536 79 476 q 183 641 139 596 q 285 711 226 686 q 421 736 344 736 q 552 709 507 736 q 622 643 597 682 l 632 689 q 646 713 635 703 q 671 722 657 722 l 781 722 q 803 713 794 722 q 808 689 811 703 l 668 33 q 654 10 665 19 q 629 0 643 0 l 519 0 q 497 10 504 0 q 492 33 489 19 l 503 85 q 411 14 461 42 q 276 -14 361 -14 m 339 135 q 439 161 397 135 q 506 228 481 188 q 543 313 532 269 q 556 366 550 338 q 565 419 561 394 q 567 499 574 461 q 531 563 560 538 q 446 588 503 588 q 353 562 392 588 q 290 494 315 536 q 250 403 265 453 q 240 361 244 382 q 233 319 236 340 q 230 228 226 269 q 259 160 233 186 q 339 135 285 135 z "},"á":{"ha":842,"x_min":31,"x_max":811,"o":"m 276 -14 q 154 10 204 -14 q 76 79 104 35 q 39 184 47 124 q 42 317 31 244 q 51 362 47 342 q 61 407 56 382 q 109 536 79 476 q 183 641 139 596 q 285 711 226 686 q 421 736 344 736 q 552 709 507 736 q 622 643 597 682 l 632 689 q 646 713 635 703 q 671 722 657 722 l 781 722 q 803 713 794 722 q 808 689 811 703 l 668 33 q 654 10 665 19 q 629 0 643 0 l 519 0 q 497 10 504 0 q 492 33 489 19 l 503 85 q 411 14 461 42 q 276 -14 361 -14 m 339 135 q 439 161 397 135 q 506 228 481 188 q 543 313 532 269 q 556 366 550 338 q 565 419 561 394 q 567 499 574 461 q 531 563 560 538 q 446 588 503 588 q 353 562 392 588 q 290 494 315 536 q 250 403 265 453 q 240 361 244 382 q 233 319 236 340 q 230 228 226 269 q 259 160 233 186 q 339 135 285 135 m 429 826 q 413 849 407 826 q 424 867 415 858 l 567 1004 q 594 1024 583 1019 q 624 1029 604 1029 l 763 1029 q 783 1006 785 1029 q 772 986 782 993 l 569 844 q 544 831 556 835 q 517 826 533 826 l 429 826 z "},"ă":{"ha":842,"x_min":31,"x_max":811,"o":"m 276 -14 q 154 10 204 -14 q 76 79 104 35 q 39 184 47 124 q 42 317 31 244 q 51 362 47 342 q 61 407 56 382 q 109 536 79 476 q 183 641 139 596 q 285 711 226 686 q 421 736 344 736 q 552 709 507 736 q 622 643 597 682 l 632 689 q 646 713 635 703 q 671 722 657 722 l 781 722 q 803 713 794 722 q 808 689 811 703 l 668 33 q 654 10 665 19 q 629 0 643 0 l 519 0 q 497 10 504 0 q 492 33 489 19 l 503 85 q 411 14 461 42 q 276 -14 361 -14 m 339 135 q 439 161 397 135 q 506 228 481 188 q 543 313 532 269 q 556 366 550 338 q 565 419 561 394 q 567 499 574 461 q 531 563 560 538 q 446 588 503 588 q 353 562 392 588 q 290 494 315 536 q 250 403 265 453 q 240 361 244 382 q 233 319 236 340 q 230 228 226 269 q 259 160 233 186 q 339 135 285 135 m 507 819 q 406 845 446 819 q 352 913 367 871 q 347 1003 338 954 q 358 1022 350 1014 q 379 1029 367 1029 l 444 1029 q 463 1022 457 1029 q 465 1003 468 1014 q 467 944 460 971 q 515 918 475 918 q 577 944 557 918 q 604 1003 597 971 q 615 1022 607 1014 q 636 1029 624 1029 l 701 1029 q 719 1022 714 1029 q 722 1003 725 1014 q 689 913 713 954 q 622 845 665 871 q 507 819 578 819 z "},"â":{"ha":842,"x_min":31,"x_max":811,"o":"m 276 -14 q 154 10 204 -14 q 76 79 104 35 q 39 184 47 124 q 42 317 31 244 q 51 362 47 342 q 61 407 56 382 q 109 536 79 476 q 183 641 139 596 q 285 711 226 686 q 421 736 344 736 q 552 709 507 736 q 622 643 597 682 l 632 689 q 646 713 635 703 q 671 722 657 722 l 781 722 q 803 713 794 722 q 808 689 811 703 l 668 33 q 654 10 665 19 q 629 0 643 0 l 519 0 q 497 10 504 0 q 492 33 489 19 l 503 85 q 411 14 461 42 q 276 -14 361 -14 m 339 135 q 439 161 397 135 q 506 228 481 188 q 543 313 532 269 q 556 366 550 338 q 565 419 561 394 q 567 499 574 461 q 531 563 560 538 q 446 588 503 588 q 353 562 392 588 q 290 494 315 536 q 250 403 265 453 q 240 361 244 382 q 233 319 236 340 q 230 228 226 269 q 259 160 233 186 q 339 135 285 135 m 278 826 q 261 843 260 826 q 274 864 263 854 l 443 1007 q 472 1026 461 1022 q 496 1029 483 1029 l 571 1029 q 594 1026 585 1029 q 614 1007 603 1022 l 722 864 q 726 844 729 856 q 704 826 724 826 l 654 826 q 635 828 644 826 q 618 836 626 831 l 518 910 l 386 836 q 367 828 376 831 q 347 826 358 826 l 278 826 z "},"ä":{"ha":842,"x_min":31,"x_max":811,"o":"m 276 -14 q 154 10 204 -14 q 76 79 104 35 q 39 184 47 124 q 42 317 31 244 q 51 362 47 342 q 61 407 56 382 q 109 536 79 476 q 183 641 139 596 q 285 711 226 686 q 421 736 344 736 q 552 709 507 736 q 622 643 597 682 l 632 689 q 646 713 635 703 q 671 722 657 722 l 781 722 q 803 713 794 722 q 808 689 811 703 l 668 33 q 654 10 665 19 q 629 0 643 0 l 519 0 q 497 10 504 0 q 492 33 489 19 l 503 85 q 411 14 461 42 q 276 -14 361 -14 m 339 135 q 439 161 397 135 q 506 228 481 188 q 543 313 532 269 q 556 366 550 338 q 565 419 561 394 q 567 499 574 461 q 531 563 560 538 q 446 588 503 588 q 353 562 392 588 q 290 494 315 536 q 250 403 265 453 q 240 361 244 382 q 233 319 236 340 q 230 228 226 269 q 259 160 233 186 q 339 135 285 135 m 582 853 q 562 861 568 853 q 557 883 556 869 l 579 985 q 592 1008 582 999 q 617 1017 603 1017 l 718 1017 q 739 1008 732 1017 q 743 985 746 999 l 721 883 q 708 861 718 869 q 683 853 697 853 l 582 853 m 321 853 q 301 861 307 853 q 296 883 294 869 l 318 985 q 331 1008 321 999 q 356 1017 342 1017 l 457 1017 q 478 1008 471 1017 q 482 985 485 999 l 460 883 q 447 861 457 869 q 422 853 436 853 l 321 853 z "},"à":{"ha":842,"x_min":31,"x_max":811,"o":"m 276 -14 q 154 10 204 -14 q 76 79 104 35 q 39 184 47 124 q 42 317 31 244 q 51 362 47 342 q 61 407 56 382 q 109 536 79 476 q 183 641 139 596 q 285 711 226 686 q 421 736 344 736 q 552 709 507 736 q 622 643 597 682 l 632 689 q 646 713 635 703 q 671 722 657 722 l 781 722 q 803 713 794 722 q 808 689 811 703 l 668 33 q 654 10 665 19 q 629 0 643 0 l 519 0 q 497 10 504 0 q 492 33 489 19 l 503 85 q 411 14 461 42 q 276 -14 361 -14 m 339 135 q 439 161 397 135 q 506 228 481 188 q 543 313 532 269 q 556 366 550 338 q 565 419 561 394 q 567 499 574 461 q 531 563 560 538 q 446 588 503 588 q 353 562 392 588 q 290 494 315 536 q 250 403 265 453 q 240 361 244 382 q 233 319 236 340 q 230 228 226 269 q 259 160 233 186 q 339 135 285 135 m 472 826 q 445 831 454 826 q 426 844 436 835 l 286 983 q 281 1003 278 992 q 311 1029 286 1029 l 457 1029 q 484 1024 475 1029 q 503 1004 493 1019 l 586 868 q 589 847 592 858 q 563 826 585 826 l 472 826 z "},"ā":{"ha":842,"x_min":31,"x_max":811,"o":"m 276 -14 q 154 10 204 -14 q 76 79 104 35 q 39 184 47 124 q 42 317 31 244 q 51 362 47 342 q 61 407 56 382 q 109 536 79 476 q 183 641 139 596 q 285 711 226 686 q 421 736 344 736 q 552 709 507 736 q 622 643 597 682 l 632 689 q 646 713 635 703 q 671 722 657 722 l 781 722 q 803 713 794 722 q 808 689 811 703 l 668 33 q 654 10 665 19 q 629 0 643 0 l 519 0 q 497 10 504 0 q 492 33 489 19 l 503 85 q 411 14 461 42 q 276 -14 361 -14 m 339 135 q 439 161 397 135 q 506 228 481 188 q 543 313 532 269 q 556 366 550 338 q 565 419 561 394 q 567 499 574 461 q 531 563 560 538 q 446 588 503 588 q 353 562 392 588 q 290 494 315 536 q 250 403 265 453 q 240 361 244 382 q 233 319 236 340 q 230 228 226 269 q 259 160 233 186 q 339 135 285 135 m 325 849 q 305 857 311 849 q 300 879 299 865 l 315 950 q 328 972 318 964 q 353 981 339 981 l 701 981 q 722 972 715 981 q 726 950 729 964 l 711 879 q 698 857 708 865 q 674 849 688 849 l 325 849 z "},"ą":{"ha":842,"x_min":32,"x_max":811,"o":"m 561 -306 q 449 -263 488 -306 q 410 -156 410 -221 q 424 -78 410 -118 q 470 -1 439 -37 q 549 61 501 35 l 546 0 l 519 0 q 498 8 507 0 q 493 35 489 15 l 503 85 q 411 14 461 42 q 276 -14 361 -14 q 153 11 203 -14 q 74 81 103 36 q 39 186 46 126 q 42 317 32 246 q 51 362 47 342 q 61 407 56 382 q 109 536 79 476 q 183 641 139 596 q 285 711 226 686 q 421 736 344 736 q 552 709 507 736 q 622 643 597 682 l 632 689 q 646 713 635 703 q 671 722 657 722 l 781 722 q 803 713 794 722 q 808 689 811 703 l 668 31 q 658 8 667 18 q 639 -6 650 -3 l 631 -7 q 562 -50 592 -17 q 532 -132 532 -83 q 547 -174 532 -158 q 592 -190 563 -190 l 601 -190 q 623 -199 615 -190 q 628 -224 631 -208 l 617 -272 q 602 -296 614 -286 q 576 -306 590 -306 l 561 -306 m 339 135 q 439 161 397 135 q 506 228 481 188 q 543 313 532 269 q 556 366 550 338 q 565 419 561 394 q 569 477 572 447 q 554 531 567 507 q 515 572 542 556 q 446 588 489 588 q 353 562 392 588 q 290 494 315 536 q 250 403 265 453 q 240 361 244 382 q 233 319 236 340 q 228 252 229 285 q 238 192 228 219 q 272 150 249 165 q 339 135 296 135 z "},"å":{"ha":842,"x_min":31,"x_max":811,"o":"m 276 -14 q 154 10 204 -14 q 76 79 104 35 q 39 184 47 124 q 42 317 31 244 q 51 362 47 342 q 61 407 56 382 q 109 536 79 476 q 183 641 139 596 q 285 711 226 686 q 421 736 344 736 q 552 709 507 736 q 622 643 597 682 l 632 689 q 646 713 635 703 q 671 722 657 722 l 781 722 q 803 713 794 722 q 808 689 811 703 l 668 33 q 654 10 665 19 q 629 0 643 0 l 519 0 q 497 10 504 0 q 492 33 489 19 l 503 85 q 411 14 461 42 q 276 -14 361 -14 m 339 135 q 439 161 397 135 q 506 228 481 188 q 543 313 532 269 q 556 366 550 338 q 565 419 561 394 q 567 499 574 461 q 531 563 560 538 q 446 588 503 588 q 353 562 392 588 q 290 494 315 536 q 250 403 265 453 q 240 361 244 382 q 233 319 236 340 q 230 228 226 269 q 259 160 233 186 q 339 135 285 135 m 494 819 q 414 852 444 819 q 394 935 383 885 q 447 1017 406 985 q 539 1050 489 1050 q 619 1017 589 1050 q 639 935 650 985 q 586 851 628 883 q 494 819 544 819 m 506 893 q 540 905 525 893 q 558 935 554 917 q 554 965 563 953 q 528 976 546 976 q 494 965 508 976 q 475 935 479 953 q 479 905 471 917 q 506 893 488 893 z "},"ã":{"ha":842,"x_min":31,"x_max":811,"o":"m 276 -14 q 154 10 204 -14 q 76 79 104 35 q 39 184 47 124 q 42 317 31 244 q 51 362 47 342 q 61 407 56 382 q 109 536 79 476 q 183 641 139 596 q 285 711 226 686 q 421 736 344 736 q 552 709 507 736 q 622 643 597 682 l 632 689 q 646 713 635 703 q 671 722 657 722 l 781 722 q 803 713 794 722 q 808 689 811 703 l 668 33 q 654 10 665 19 q 629 0 643 0 l 519 0 q 497 10 504 0 q 492 33 489 19 l 503 85 q 411 14 461 42 q 276 -14 361 -14 m 339 135 q 439 161 397 135 q 506 228 481 188 q 543 313 532 269 q 556 366 550 338 q 565 419 561 394 q 567 499 574 461 q 531 563 560 538 q 446 588 503 588 q 353 562 392 588 q 290 494 315 536 q 250 403 265 453 q 240 361 244 382 q 233 319 236 340 q 230 228 226 269 q 259 160 233 186 q 339 135 285 135 m 588 819 q 530 831 551 819 q 491 856 508 843 q 450 868 474 868 q 422 858 433 868 q 401 837 411 847 q 376 826 392 826 l 313 826 q 297 833 303 826 q 293 850 292 840 q 309 897 297 871 q 340 946 321 922 q 388 984 360 969 q 451 999 417 999 q 510 987 489 999 q 549 963 532 975 q 590 950 567 950 q 619 961 608 950 q 638 983 629 972 q 663 993 647 993 l 726 993 q 742 985 738 993 q 746 968 747 978 q 730 922 742 947 q 698 872 718 896 q 650 834 678 849 q 588 819 622 819 z "},"æ":{"ha":1254,"x_min":7,"x_max":1221,"o":"m 243 -14 q 106 15 161 -14 q 29 91 51 43 q 19 199 7 139 q 132 354 40 296 q 357 432 224 413 l 553 460 l 558 489 q 547 578 569 547 q 456 610 525 610 q 385 597 415 610 q 334 566 356 583 q 296 535 313 549 q 285 522 290 525 q 271 518 279 518 l 165 518 q 146 526 153 518 q 140 549 139 535 q 169 603 146 571 q 235 665 193 635 q 340 715 278 694 q 483 736 403 736 q 628 710 578 736 q 699 643 678 683 q 808 710 746 685 q 949 736 871 736 q 1081 714 1028 736 q 1164 654 1133 692 q 1208 569 1194 617 q 1219 471 1221 522 q 1208 369 1218 419 l 1203 340 q 1188 317 1200 326 q 1161 307 1175 307 l 707 307 l 706 296 q 706 192 693 232 q 749 133 719 151 q 814 115 779 115 q 890 131 851 115 q 960 179 928 147 q 983 199 975 194 q 1007 203 992 203 l 1124 203 q 1144 194 1138 203 q 1147 174 1150 186 q 1117 122 1143 154 q 1044 60 1090 90 q 934 8 999 29 q 788 -14 869 -14 q 635 20 693 -14 q 549 111 578 54 q 407 15 486 44 q 243 -14 328 -14 m 307 118 q 400 139 356 118 q 477 203 444 160 q 522 314 510 247 l 529 343 l 383 321 q 253 281 300 308 q 200 213 207 253 q 207 160 193 182 q 247 128 221 139 q 307 118 274 118 m 732 424 l 1032 424 l 1032 429 q 1034 524 1042 483 q 999 588 1026 565 q 921 610 972 610 q 844 590 883 610 q 776 531 806 571 q 733 429 746 492 l 732 424 z "},"ǽ":{"ha":1254,"x_min":7,"x_max":1221,"o":"m 243 -14 q 106 15 161 -14 q 29 91 51 43 q 19 199 7 139 q 132 354 40 296 q 357 432 224 413 l 553 460 l 558 489 q 547 578 569 547 q 456 610 525 610 q 385 597 415 610 q 334 566 356 583 q 296 535 313 549 q 285 522 290 525 q 271 518 279 518 l 165 518 q 146 526 153 518 q 140 549 139 535 q 169 603 146 571 q 235 665 193 635 q 340 715 278 694 q 483 736 403 736 q 628 710 578 736 q 699 643 678 683 q 808 710 746 685 q 949 736 871 736 q 1081 714 1028 736 q 1164 654 1133 692 q 1208 569 1194 617 q 1219 471 1221 522 q 1208 369 1218 419 l 1203 340 q 1188 317 1200 326 q 1161 307 1175 307 l 707 307 l 706 296 q 706 192 693 232 q 749 133 719 151 q 814 115 779 115 q 890 131 851 115 q 960 179 928 147 q 983 199 975 194 q 1007 203 992 203 l 1124 203 q 1144 194 1138 203 q 1147 174 1150 186 q 1117 122 1143 154 q 1044 60 1090 90 q 934 8 999 29 q 788 -14 869 -14 q 635 20 693 -14 q 549 111 578 54 q 407 15 486 44 q 243 -14 328 -14 m 307 118 q 400 139 356 118 q 477 203 444 160 q 522 314 510 247 l 529 343 l 383 321 q 253 281 300 308 q 200 213 207 253 q 207 160 193 182 q 247 128 221 139 q 307 118 274 118 m 732 424 l 1032 424 l 1032 429 q 1034 524 1042 483 q 999 588 1026 565 q 921 610 972 610 q 844 590 883 610 q 776 531 806 571 q 733 429 746 492 l 732 424 m 667 826 q 650 849 644 826 q 661 867 653 858 l 804 1004 q 831 1024 821 1019 q 861 1029 842 1029 l 1000 1029 q 1021 1006 1022 1029 q 1010 986 1019 993 l 807 844 q 782 831 793 835 q 754 826 771 826 l 667 826 z "},"b":{"ha":851,"x_min":10,"x_max":800,"o":"m 410 -14 q 277 14 329 -14 q 201 85 225 42 l 190 33 q 176 10 188 19 q 150 0 164 0 l 39 0 q 17 10 25 0 q 13 33 10 19 l 208 953 q 223 976 211 967 q 249 986 235 986 l 367 986 q 389 976 382 986 q 393 953 396 967 l 328 644 q 422 710 371 685 q 547 736 472 736 q 672 711 621 736 q 752 642 722 686 q 791 540 782 599 q 788 411 800 481 q 778 362 783 386 q 767 313 774 338 q 696 143 743 217 q 578 28 649 69 q 410 -14 507 -14 m 379 135 q 475 160 436 135 q 540 228 514 186 q 581 319 565 271 q 592 361 588 340 q 597 403 596 382 q 601 494 606 453 q 570 562 596 536 q 485 588 544 588 q 387 563 429 588 q 317 499 344 538 q 279 419 290 461 q 267 366 272 394 q 258 313 261 338 q 257 228 250 269 q 292 161 264 188 q 379 135 321 135 z "},"c":{"ha":792,"x_min":22,"x_max":761,"o":"m 322 -14 q 159 24 229 -14 q 56 133 89 61 q 40 306 22 204 q 51 360 44 326 q 64 417 58 394 q 203 652 101 568 q 461 736 304 736 q 608 711 549 736 q 701 647 667 686 q 748 567 735 608 q 757 492 761 525 q 745 467 756 476 q 721 458 735 458 l 594 458 q 573 465 581 458 q 564 486 565 472 q 534 567 564 542 q 449 592 504 592 q 327 548 381 592 q 250 410 274 504 q 239 358 244 385 q 229 313 233 332 q 243 174 214 217 q 340 131 272 131 q 438 153 394 131 q 510 232 481 176 q 527 253 518 247 q 550 260 536 260 l 675 260 q 697 251 689 260 q 700 226 704 242 q 665 155 690 196 q 594 75 639 114 q 483 11 550 36 q 322 -14 415 -14 z "},"ć":{"ha":792,"x_min":22,"x_max":774,"o":"m 322 -14 q 159 24 229 -14 q 56 133 89 61 q 40 306 22 204 q 51 360 44 326 q 64 417 58 394 q 203 652 101 568 q 461 736 304 736 q 608 711 549 736 q 701 647 667 686 q 748 567 735 608 q 757 492 761 525 q 745 467 756 476 q 721 458 735 458 l 594 458 q 573 465 581 458 q 564 486 565 472 q 534 567 564 542 q 449 592 504 592 q 327 548 381 592 q 250 410 274 504 q 239 358 244 385 q 229 313 233 332 q 243 174 214 217 q 340 131 272 131 q 438 153 394 131 q 510 232 481 176 q 527 253 518 247 q 550 260 536 260 l 675 260 q 697 251 689 260 q 700 226 704 242 q 665 155 690 196 q 594 75 639 114 q 483 11 550 36 q 322 -14 415 -14 m 418 826 q 401 849 396 826 q 413 867 404 858 l 556 1004 q 583 1024 572 1019 q 613 1029 593 1029 l 751 1029 q 772 1006 774 1029 q 761 986 771 993 l 558 844 q 533 831 544 835 q 506 826 522 826 l 418 826 z "},"č":{"ha":792,"x_min":22,"x_max":761,"o":"m 322 -14 q 159 24 229 -14 q 56 133 89 61 q 40 306 22 204 q 51 360 44 326 q 64 417 58 394 q 203 652 101 568 q 461 736 304 736 q 608 711 549 736 q 701 647 667 686 q 748 567 735 608 q 757 492 761 525 q 745 467 756 476 q 721 458 735 458 l 594 458 q 573 465 581 458 q 564 486 565 472 q 534 567 564 542 q 449 592 504 592 q 327 548 381 592 q 250 410 274 504 q 239 358 244 385 q 229 313 233 332 q 243 174 214 217 q 340 131 272 131 q 438 153 394 131 q 510 232 481 176 q 527 253 518 247 q 550 260 536 260 l 675 260 q 697 251 689 260 q 700 226 704 242 q 665 155 690 196 q 594 75 639 114 q 483 11 550 36 q 322 -14 415 -14 m 449 826 q 426 831 436 826 q 406 849 417 835 l 297 992 q 292 1008 292 1000 q 300 1024 293 1018 q 317 1029 307 1029 l 365 1029 q 385 1027 376 1029 q 401 1019 393 1025 l 501 947 l 633 1019 q 653 1027 644 1025 q 672 1029 663 1029 l 743 1029 q 758 1013 761 1029 q 747 993 758 1001 l 576 849 q 549 831 560 835 q 525 826 538 826 l 449 826 z "},"ç":{"ha":792,"x_min":25,"x_max":761,"o":"m 271 -306 q 202 -293 233 -306 q 158 -263 171 -281 q 161 -235 146 -246 l 189 -214 q 210 -209 201 -204 q 231 -222 218 -214 q 274 -231 244 -231 q 313 -217 296 -231 q 335 -183 329 -204 q 327 -151 339 -164 q 292 -139 315 -139 q 258 -144 274 -139 q 231 -151 243 -149 q 211 -142 219 -153 l 190 -112 q 188 -92 183 -104 q 203 -68 193 -81 l 242 -6 q 119 49 171 8 q 47 155 68 90 q 40 306 25 219 q 51 360 44 326 q 64 417 58 394 q 203 652 101 568 q 461 736 304 736 q 608 711 549 736 q 701 647 667 686 q 748 567 735 608 q 757 492 761 525 q 745 467 756 476 q 721 458 735 458 l 594 458 q 573 465 581 458 q 564 486 565 472 q 534 567 564 542 q 449 592 504 592 q 327 548 381 592 q 250 410 274 504 q 239 358 244 385 q 229 313 233 332 q 243 174 214 217 q 340 131 272 131 q 438 153 394 131 q 510 232 481 176 q 527 253 518 247 q 550 260 536 260 l 675 260 q 697 251 689 260 q 700 226 704 242 q 665 155 690 196 q 594 76 639 114 q 483 12 550 38 q 325 -14 417 -14 l 283 -72 q 308 -66 293 -68 q 333 -64 322 -64 q 403 -99 379 -64 q 415 -187 426 -135 q 369 -273 404 -240 q 271 -306 333 -306 z "},"ĉ":{"ha":792,"x_min":22,"x_max":761,"o":"m 322 -14 q 159 24 229 -14 q 56 133 89 61 q 40 306 22 204 q 51 360 44 326 q 64 417 58 394 q 203 652 101 568 q 461 736 304 736 q 608 711 549 736 q 701 647 667 686 q 748 567 735 608 q 757 492 761 525 q 745 467 756 476 q 721 458 735 458 l 594 458 q 573 465 581 458 q 564 486 565 472 q 534 567 564 542 q 449 592 504 592 q 327 548 381 592 q 250 410 274 504 q 239 358 244 385 q 229 313 233 332 q 243 174 214 217 q 340 131 272 131 q 438 153 394 131 q 510 232 481 176 q 527 253 518 247 q 550 260 536 260 l 675 260 q 697 251 689 260 q 700 226 704 242 q 665 155 690 196 q 594 75 639 114 q 483 11 550 36 q 322 -14 415 -14 m 267 826 q 250 843 249 826 q 263 864 251 854 l 432 1007 q 461 1026 450 1022 q 485 1029 472 1029 l 560 1029 q 583 1026 574 1029 q 603 1007 592 1022 l 711 864 q 715 844 718 856 q 693 826 713 826 l 643 826 q 624 828 633 826 q 607 836 615 831 l 507 910 l 375 836 q 356 828 365 831 q 336 826 347 826 l 267 826 z "},"ċ":{"ha":792,"x_min":22,"x_max":761,"o":"m 322 -14 q 159 24 229 -14 q 56 133 89 61 q 40 306 22 204 q 51 360 44 326 q 64 417 58 394 q 203 652 101 568 q 461 736 304 736 q 608 711 549 736 q 701 647 667 686 q 748 567 735 608 q 757 492 761 525 q 745 467 756 476 q 721 458 735 458 l 594 458 q 573 465 581 458 q 564 486 565 472 q 534 567 564 542 q 449 592 504 592 q 327 548 381 592 q 250 410 274 504 q 239 358 244 385 q 229 313 233 332 q 243 174 214 217 q 340 131 272 131 q 438 153 394 131 q 510 232 481 176 q 527 253 518 247 q 550 260 536 260 l 675 260 q 697 251 689 260 q 700 226 704 242 q 665 155 690 196 q 594 75 639 114 q 483 11 550 36 q 322 -14 415 -14 m 429 844 q 408 853 415 844 q 404 875 401 861 l 429 989 q 442 1012 432 1003 q 467 1021 453 1021 l 579 1021 q 601 1012 593 1021 q 606 989 608 1003 l 581 875 q 567 853 578 861 q 543 844 557 844 l 429 844 z "},"d":{"ha":850,"x_min":31,"x_max":875,"o":"m 281 -14 q 157 10 208 -14 q 76 79 106 35 q 39 184 47 124 q 42 317 31 244 q 50 362 46 342 q 61 407 54 382 q 109 536 79 476 q 183 641 139 596 q 286 711 228 686 q 418 736 344 736 q 547 710 497 736 q 621 644 596 685 l 688 953 q 701 976 690 967 q 726 986 713 986 l 844 986 q 867 976 860 986 q 872 953 875 967 l 676 33 q 663 10 674 19 q 636 0 651 0 l 526 0 q 505 10 513 0 q 500 33 497 19 l 511 85 q 416 14 468 42 q 281 -14 364 -14 m 343 135 q 443 161 400 135 q 513 228 486 188 q 550 313 539 269 q 563 366 557 338 q 574 419 569 394 q 573 499 582 461 q 535 563 564 538 q 450 588 506 588 q 355 562 394 588 q 290 494 315 536 q 250 403 265 453 q 240 361 244 382 q 232 319 235 340 q 230 228 225 269 q 261 160 235 186 q 343 135 288 135 z "},"ð":{"ha":814,"x_min":38,"x_max":843,"o":"m 332 -14 q 156 27 224 -14 q 63 143 88 68 q 60 321 38 218 q 139 497 81 422 q 283 613 197 572 q 474 653 369 653 q 537 644 510 653 q 585 621 564 636 q 569 691 579 658 q 542 751 558 724 l 385 696 q 365 692 372 692 q 349 699 354 692 q 344 718 343 706 l 351 749 q 363 775 354 767 q 390 789 372 783 l 490 825 q 450 870 472 847 q 403 914 428 893 q 390 931 393 924 q 389 943 388 938 q 401 964 392 956 q 424 972 411 972 l 546 972 q 580 967 567 972 q 601 954 593 963 q 633 921 618 938 q 663 886 649 904 l 800 935 q 819 939 813 939 q 837 932 831 939 q 840 913 843 925 l 833 882 q 822 857 831 865 q 794 842 814 849 l 714 814 q 773 626 760 735 q 756 354 786 517 q 751 335 753 344 q 747 315 750 325 q 667 141 724 215 q 526 26 611 67 q 332 -14 442 -14 m 361 124 q 453 147 414 124 q 519 212 493 171 q 556 303 544 253 q 560 319 558 313 q 564 336 561 326 q 565 426 574 386 q 528 491 557 467 q 446 515 500 515 q 352 491 392 515 q 288 426 313 467 q 251 336 264 386 q 247 318 249 325 q 244 301 246 311 q 243 211 235 251 q 281 147 251 171 q 361 124 310 124 z "},"ď":{"ha":946,"x_min":31,"x_max":1158,"o":"m 281 -14 q 157 10 208 -14 q 76 79 106 35 q 39 184 47 124 q 42 317 31 244 q 50 362 46 342 q 61 407 54 382 q 109 536 79 476 q 183 641 139 596 q 286 711 228 686 q 418 736 344 736 q 547 710 497 736 q 621 644 596 685 l 688 953 q 701 976 690 967 q 726 986 713 986 l 844 986 q 867 976 860 986 q 872 953 875 967 l 676 33 q 663 10 674 19 q 636 0 651 0 l 526 0 q 505 10 513 0 q 500 33 497 19 l 511 85 q 416 14 468 42 q 281 -14 364 -14 m 343 135 q 443 161 400 135 q 513 228 486 188 q 550 313 539 269 q 563 366 557 338 q 574 419 569 394 q 573 499 582 461 q 535 563 564 538 q 450 588 506 588 q 355 562 394 588 q 290 494 315 536 q 250 403 265 453 q 240 361 244 382 q 232 319 235 340 q 230 228 225 269 q 261 160 235 186 q 343 135 288 135 m 921 742 q 903 750 908 742 q 903 771 899 758 l 965 942 q 985 973 972 960 q 1019 986 999 986 l 1136 986 q 1151 978 1146 986 q 1154 961 1157 971 q 1151 952 1153 957 q 1146 942 1150 947 l 1047 776 q 1027 752 1039 763 q 994 742 1015 742 l 921 742 z "},"đ":{"ha":851,"x_min":31,"x_max":953,"o":"m 268 -14 q 140 13 189 -14 q 65 85 90 39 q 35 192 40 132 q 43 317 31 251 q 51 362 47 342 q 63 407 56 382 q 107 528 78 469 q 181 635 136 588 q 288 709 226 682 q 428 736 349 736 q 550 710 503 736 q 622 644 597 685 l 651 781 l 586 781 q 565 790 572 781 q 561 814 558 799 l 569 854 q 583 878 572 868 q 608 888 594 888 l 674 888 l 688 953 q 701 976 690 967 q 728 986 713 986 l 846 986 q 869 976 861 986 q 874 953 876 967 l 858 888 l 924 888 q 945 878 938 888 q 950 854 953 868 l 942 814 q 927 790 939 799 q 901 781 915 781 l 836 781 l 678 33 q 664 10 675 19 q 638 0 653 0 l 528 0 q 506 10 514 0 q 500 33 497 19 l 513 89 q 410 15 471 44 q 268 -14 349 -14 m 351 135 q 450 161 410 135 q 515 228 490 188 q 551 313 540 269 q 564 366 558 338 q 574 419 569 394 q 573 499 582 461 q 534 563 564 538 q 449 588 504 588 q 351 562 390 588 q 288 494 311 536 q 250 403 264 453 q 240 361 244 382 q 232 319 235 340 q 230 228 224 269 q 265 160 236 186 q 351 135 294 135 z "},"e":{"ha":799,"x_min":44,"x_max":778,"o":"m 332 -14 q 163 26 231 -14 q 70 143 96 67 q 63 328 44 219 q 69 363 65 342 q 78 397 74 385 q 164 578 106 503 q 306 695 222 654 q 492 736 390 736 q 669 690 604 736 q 756 560 735 643 q 757 369 778 478 l 750 340 q 735 317 747 326 q 708 307 724 307 l 247 307 q 247 303 247 307 q 244 296 246 299 q 246 206 238 247 q 283 140 254 165 q 358 115 311 115 q 426 127 397 115 q 474 154 456 139 q 503 179 493 169 q 528 199 519 196 q 551 203 536 203 l 672 203 q 692 194 685 203 q 696 174 699 186 q 661 119 689 151 q 586 57 633 88 q 474 6 539 26 q 332 -14 410 -14 m 272 424 l 579 424 l 581 428 q 584 523 594 482 q 544 587 574 564 q 465 610 514 610 q 378 587 417 610 q 313 523 339 564 q 274 428 286 482 l 272 424 z "},"é":{"ha":799,"x_min":44,"x_max":793,"o":"m 332 -14 q 163 26 231 -14 q 70 143 96 67 q 63 328 44 219 q 69 363 65 342 q 78 397 74 385 q 164 578 106 503 q 306 695 222 654 q 492 736 390 736 q 669 690 604 736 q 756 560 735 643 q 757 369 778 478 l 750 340 q 735 317 747 326 q 708 307 724 307 l 247 307 q 247 303 247 307 q 244 296 246 299 q 246 206 238 247 q 283 140 254 165 q 358 115 311 115 q 426 127 397 115 q 474 154 456 139 q 503 179 493 169 q 528 199 519 196 q 551 203 536 203 l 672 203 q 692 194 685 203 q 696 174 699 186 q 661 119 689 151 q 586 57 633 88 q 474 6 539 26 q 332 -14 410 -14 m 272 424 l 579 424 l 581 428 q 584 523 594 482 q 544 587 574 564 q 465 610 514 610 q 378 587 417 610 q 313 523 339 564 q 274 428 286 482 l 272 424 m 438 826 q 421 849 415 826 q 432 867 424 858 l 575 1004 q 602 1024 592 1019 q 632 1029 613 1029 l 771 1029 q 792 1006 793 1029 q 781 986 790 993 l 578 844 q 553 831 564 835 q 525 826 542 826 l 438 826 z "},"ĕ":{"ha":799,"x_min":44,"x_max":778,"o":"m 332 -14 q 163 26 231 -14 q 70 143 96 67 q 63 328 44 219 q 69 363 65 342 q 78 397 74 385 q 164 578 106 503 q 306 695 222 654 q 492 736 390 736 q 669 690 604 736 q 756 560 735 643 q 757 369 778 478 l 750 340 q 735 317 747 326 q 708 307 724 307 l 247 307 q 247 303 247 307 q 244 296 246 299 q 246 206 238 247 q 283 140 254 165 q 358 115 311 115 q 426 127 397 115 q 474 154 456 139 q 503 179 493 169 q 528 199 519 196 q 551 203 536 203 l 672 203 q 692 194 685 203 q 696 174 699 186 q 661 119 689 151 q 586 57 633 88 q 474 6 539 26 q 332 -14 410 -14 m 272 424 l 579 424 l 581 428 q 584 523 594 482 q 544 587 574 564 q 465 610 514 610 q 378 587 417 610 q 313 523 339 564 q 274 428 286 482 l 272 424 m 515 819 q 415 845 454 819 q 360 913 375 871 q 356 1003 346 954 q 367 1022 358 1014 q 388 1029 375 1029 l 453 1029 q 471 1022 465 1029 q 474 1003 476 1014 q 476 944 468 971 q 524 918 483 918 q 585 944 565 918 q 613 1003 606 971 q 624 1022 615 1014 q 644 1029 632 1029 l 710 1029 q 728 1022 722 1029 q 731 1003 733 1014 q 697 913 721 954 q 630 845 674 871 q 515 819 586 819 z "},"ě":{"ha":799,"x_min":44,"x_max":781,"o":"m 332 -14 q 163 26 231 -14 q 70 143 96 67 q 63 328 44 219 q 69 363 65 342 q 78 397 74 385 q 164 578 106 503 q 306 695 222 654 q 492 736 390 736 q 669 690 604 736 q 756 560 735 643 q 757 369 778 478 l 750 340 q 735 317 747 326 q 708 307 724 307 l 247 307 q 247 303 247 307 q 244 296 246 299 q 246 206 238 247 q 283 140 254 165 q 358 115 311 115 q 426 127 397 115 q 474 154 456 139 q 503 179 493 169 q 528 199 519 196 q 551 203 536 203 l 672 203 q 692 194 685 203 q 696 174 699 186 q 661 119 689 151 q 586 57 633 88 q 474 6 539 26 q 332 -14 410 -14 m 272 424 l 579 424 l 581 428 q 584 523 594 482 q 544 587 574 564 q 465 610 514 610 q 378 587 417 610 q 313 523 339 564 q 274 428 286 482 l 272 424 m 468 826 q 446 831 456 826 q 425 849 436 835 l 317 992 q 311 1008 311 1000 q 319 1024 313 1018 q 336 1029 326 1029 l 385 1029 q 404 1027 396 1029 q 421 1019 413 1025 l 521 947 l 653 1019 q 673 1027 664 1025 q 692 1029 682 1029 l 763 1029 q 778 1013 781 1029 q 767 993 778 1001 l 596 849 q 568 831 579 835 q 544 826 557 826 l 468 826 z "},"ê":{"ha":799,"x_min":44,"x_max":778,"o":"m 332 -14 q 163 26 231 -14 q 70 143 96 67 q 63 328 44 219 q 69 363 65 342 q 78 397 74 385 q 164 578 106 503 q 306 695 222 654 q 492 736 390 736 q 669 690 604 736 q 756 560 735 643 q 757 369 778 478 l 750 340 q 735 317 747 326 q 708 307 724 307 l 247 307 q 247 303 247 307 q 244 296 246 299 q 246 206 238 247 q 283 140 254 165 q 358 115 311 115 q 426 127 397 115 q 474 154 456 139 q 503 179 493 169 q 528 199 519 196 q 551 203 536 203 l 672 203 q 692 194 685 203 q 696 174 699 186 q 661 119 689 151 q 586 57 633 88 q 474 6 539 26 q 332 -14 410 -14 m 272 424 l 579 424 l 581 428 q 584 523 594 482 q 544 587 574 564 q 465 610 514 610 q 378 587 417 610 q 313 523 339 564 q 274 428 286 482 l 272 424 m 288 826 q 271 843 269 826 q 283 864 272 854 l 453 1007 q 482 1026 471 1022 q 506 1029 493 1029 l 581 1029 q 603 1026 594 1029 q 624 1007 613 1022 l 732 864 q 736 844 739 856 q 714 826 733 826 l 664 826 q 645 828 654 826 q 628 836 636 831 l 528 910 l 396 836 q 377 828 386 831 q 357 826 368 826 l 288 826 z "},"ë":{"ha":799,"x_min":44,"x_max":778,"o":"m 332 -14 q 163 26 231 -14 q 70 143 96 67 q 63 328 44 219 q 69 363 65 342 q 78 397 74 385 q 164 578 106 503 q 306 695 222 654 q 492 736 390 736 q 669 690 604 736 q 756 560 735 643 q 757 369 778 478 l 750 340 q 735 317 747 326 q 708 307 724 307 l 247 307 q 247 303 247 307 q 244 296 246 299 q 246 206 238 247 q 283 140 254 165 q 358 115 311 115 q 426 127 397 115 q 474 154 456 139 q 503 179 493 169 q 528 199 519 196 q 551 203 536 203 l 672 203 q 692 194 685 203 q 696 174 699 186 q 661 119 689 151 q 586 57 633 88 q 474 6 539 26 q 332 -14 410 -14 m 272 424 l 579 424 l 581 428 q 584 523 594 482 q 544 587 574 564 q 465 610 514 610 q 378 587 417 610 q 313 523 339 564 q 274 428 286 482 l 272 424 m 590 853 q 570 861 576 853 q 565 883 564 869 l 588 985 q 601 1008 590 999 q 625 1017 611 1017 l 726 1017 q 747 1008 740 1017 q 751 985 754 999 l 729 883 q 716 861 726 869 q 692 853 706 853 l 590 853 m 329 853 q 309 861 315 853 q 304 883 303 869 l 326 985 q 340 1008 329 999 q 364 1017 350 1017 l 465 1017 q 486 1008 479 1017 q 490 985 493 999 l 468 883 q 455 861 465 869 q 431 853 444 853 l 329 853 z "},"ė":{"ha":799,"x_min":44,"x_max":778,"o":"m 332 -14 q 163 26 231 -14 q 70 143 96 67 q 63 328 44 219 q 69 363 65 342 q 78 397 74 385 q 164 578 106 503 q 306 695 222 654 q 492 736 390 736 q 669 690 604 736 q 756 560 735 643 q 757 369 778 478 l 750 340 q 735 317 747 326 q 708 307 724 307 l 247 307 q 247 303 247 307 q 244 296 246 299 q 246 206 238 247 q 283 140 254 165 q 358 115 311 115 q 426 127 397 115 q 474 154 456 139 q 503 179 493 169 q 528 199 519 196 q 551 203 536 203 l 672 203 q 692 194 685 203 q 696 174 699 186 q 661 119 689 151 q 586 57 633 88 q 474 6 539 26 q 332 -14 410 -14 m 272 424 l 579 424 l 581 428 q 584 523 594 482 q 544 587 574 564 q 465 610 514 610 q 378 587 417 610 q 313 523 339 564 q 274 428 286 482 l 272 424 m 449 844 q 428 853 435 844 q 424 875 421 861 l 449 989 q 462 1012 451 1003 q 486 1021 472 1021 l 599 1021 q 620 1012 613 1021 q 625 989 628 1003 l 600 875 q 587 853 597 861 q 563 844 576 844 l 449 844 z "},"è":{"ha":799,"x_min":44,"x_max":778,"o":"m 332 -14 q 163 26 231 -14 q 70 143 96 67 q 63 328 44 219 q 69 363 65 342 q 78 397 74 385 q 164 578 106 503 q 306 695 222 654 q 492 736 390 736 q 669 690 604 736 q 756 560 735 643 q 757 369 778 478 l 750 340 q 735 317 747 326 q 708 307 724 307 l 247 307 q 247 303 247 307 q 244 296 246 299 q 246 206 238 247 q 283 140 254 165 q 358 115 311 115 q 426 127 397 115 q 474 154 456 139 q 503 179 493 169 q 528 199 519 196 q 551 203 536 203 l 672 203 q 692 194 685 203 q 696 174 699 186 q 661 119 689 151 q 586 57 633 88 q 474 6 539 26 q 332 -14 410 -14 m 272 424 l 579 424 l 581 428 q 584 523 594 482 q 544 587 574 564 q 465 610 514 610 q 378 587 417 610 q 313 523 339 564 q 274 428 286 482 l 272 424 m 481 826 q 453 831 463 826 q 435 844 444 835 l 294 983 q 289 1003 286 992 q 319 1029 294 1029 l 465 1029 q 492 1024 483 1029 q 511 1004 501 1019 l 594 868 q 597 847 600 858 q 571 826 593 826 l 481 826 z "},"ē":{"ha":799,"x_min":44,"x_max":778,"o":"m 332 -14 q 163 26 231 -14 q 70 143 96 67 q 63 328 44 219 q 69 363 65 342 q 78 397 74 385 q 164 578 106 503 q 306 695 222 654 q 492 736 390 736 q 669 690 604 736 q 756 560 735 643 q 757 369 778 478 l 750 340 q 735 317 747 326 q 708 307 724 307 l 247 307 q 247 303 247 307 q 244 296 246 299 q 246 206 238 247 q 283 140 254 165 q 358 115 311 115 q 426 127 397 115 q 474 154 456 139 q 503 179 493 169 q 528 199 519 196 q 551 203 536 203 l 672 203 q 692 194 685 203 q 696 174 699 186 q 661 119 689 151 q 586 57 633 88 q 474 6 539 26 q 332 -14 410 -14 m 272 424 l 579 424 l 581 428 q 584 523 594 482 q 544 587 574 564 q 465 610 514 610 q 378 587 417 610 q 313 523 339 564 q 274 428 286 482 l 272 424 m 335 849 q 315 857 321 849 q 310 879 308 865 l 325 950 q 338 972 328 964 q 363 981 349 981 l 711 981 q 732 972 725 981 q 736 950 739 964 l 721 879 q 708 857 718 865 q 683 849 697 849 l 335 849 z "},"ę":{"ha":803,"x_min":42,"x_max":781,"o":"m 343 -306 q 236 -278 276 -306 q 183 -204 196 -251 q 183 -96 169 -157 q 199 -44 189 -68 q 222 0 208 -19 q 83 113 124 29 q 64 328 42 197 q 70 363 65 342 q 78 396 75 383 q 165 578 106 501 q 307 695 224 654 q 492 736 390 736 q 672 690 606 736 q 759 560 738 643 q 757 369 781 478 l 751 340 q 736 317 749 326 q 710 307 724 307 l 249 307 l 246 296 q 246 206 238 247 q 283 140 254 165 q 360 115 313 115 q 427 127 399 115 q 475 154 456 139 q 504 179 494 169 q 528 199 521 196 q 553 203 536 203 l 672 203 q 693 194 686 203 q 696 174 700 186 q 652 110 689 147 q 553 39 615 72 q 408 -8 492 6 q 338 -36 365 -15 q 303 -96 311 -57 q 313 -163 294 -136 q 374 -190 331 -190 l 392 -190 q 414 -199 407 -190 q 418 -224 421 -208 l 407 -272 q 392 -296 404 -286 q 367 -306 381 -306 l 343 -306 m 272 424 l 579 424 l 581 428 q 583 523 593 482 q 543 587 572 564 q 465 610 514 610 q 377 587 417 610 q 311 523 338 564 q 274 428 285 482 l 272 424 z "},"f":{"ha":571,"x_min":61,"x_max":694,"o":"m 115 0 q 92 10 100 0 q 88 33 85 19 l 203 575 l 90 575 q 69 585 76 575 q 64 610 61 594 l 81 689 q 95 713 83 703 q 122 722 107 722 l 235 722 l 246 779 q 306 917 265 863 q 408 1000 346 972 q 554 1028 471 1028 l 665 1028 q 688 1018 681 1028 q 692 994 694 1008 l 675 915 q 660 890 672 900 q 635 881 649 881 l 551 881 q 465 853 496 881 q 425 772 435 825 l 414 722 l 586 722 q 608 713 601 722 q 613 689 615 703 l 596 610 q 582 585 593 594 q 556 575 571 575 l 383 575 l 267 33 q 253 10 264 19 q 228 0 242 0 l 115 0 z "},"g":{"ha":853,"x_min":-33,"x_max":821,"o":"m 271 -306 q 115 -279 175 -306 q 21 -215 54 -253 q -23 -141 -12 -178 q -29 -83 -33 -104 q -17 -59 -26 -69 q 7 -49 -7 -49 l 132 -49 q 153 -55 146 -49 q 161 -78 160 -61 q 173 -117 164 -96 q 207 -152 182 -137 q 282 -167 232 -167 q 370 -151 329 -167 q 441 -100 411 -136 q 485 0 471 -64 l 504 94 q 411 29 463 54 q 285 4 360 4 q 157 28 208 4 q 77 97 106 53 q 41 200 49 140 q 44 332 33 260 q 51 369 47 353 q 60 407 54 386 q 109 536 79 476 q 182 641 139 596 q 283 711 225 686 q 418 736 342 736 q 549 706 497 736 q 626 632 601 676 l 638 688 q 652 713 640 703 q 679 722 664 722 l 790 722 q 813 713 806 722 q 818 688 821 703 l 676 18 q 631 -117 661 -57 q 553 -219 601 -176 q 436 -283 506 -261 q 271 -306 367 -306 m 346 151 q 444 176 403 151 q 514 242 486 201 q 553 324 542 282 q 563 369 557 342 q 571 414 568 397 q 570 497 578 457 q 534 562 563 536 q 449 588 506 588 q 354 562 394 588 q 288 494 314 536 q 249 403 263 453 q 240 369 244 386 q 233 335 236 353 q 231 244 226 286 q 262 176 235 201 q 346 151 289 151 z "},"ğ":{"ha":853,"x_min":-33,"x_max":821,"o":"m 271 -306 q 115 -279 175 -306 q 21 -215 54 -253 q -23 -141 -12 -178 q -29 -83 -33 -104 q -17 -59 -26 -69 q 7 -49 -7 -49 l 132 -49 q 153 -55 146 -49 q 161 -78 160 -61 q 173 -117 164 -96 q 207 -152 182 -137 q 282 -167 232 -167 q 370 -151 329 -167 q 441 -100 411 -136 q 485 0 471 -64 l 504 94 q 411 29 463 54 q 285 4 360 4 q 157 28 208 4 q 77 97 106 53 q 41 200 49 140 q 44 332 33 260 q 51 369 47 353 q 60 407 54 386 q 109 536 79 476 q 182 641 139 596 q 283 711 225 686 q 418 736 342 736 q 549 706 497 736 q 626 632 601 676 l 638 688 q 652 713 640 703 q 679 722 664 722 l 790 722 q 813 713 806 722 q 818 688 821 703 l 676 18 q 631 -117 661 -57 q 553 -219 601 -176 q 436 -283 506 -261 q 271 -306 367 -306 m 346 151 q 444 176 403 151 q 514 242 486 201 q 553 324 542 282 q 563 369 557 342 q 571 414 568 397 q 570 497 578 457 q 534 562 563 536 q 449 588 506 588 q 354 562 394 588 q 288 494 314 536 q 249 403 263 453 q 240 369 244 386 q 233 335 236 353 q 231 244 226 286 q 262 176 235 201 q 346 151 289 151 m 508 819 q 408 845 447 819 q 353 913 368 871 q 349 1003 339 954 q 360 1022 351 1014 q 381 1029 368 1029 l 446 1029 q 464 1022 458 1029 q 467 1003 469 1014 q 469 944 461 971 q 517 918 476 918 q 578 944 558 918 q 606 1003 599 971 q 617 1022 608 1014 q 638 1029 625 1029 l 703 1029 q 721 1022 715 1029 q 724 1003 726 1014 q 690 913 714 954 q 623 845 667 871 q 508 819 579 819 z "},"ĝ":{"ha":853,"x_min":-33,"x_max":821,"o":"m 271 -306 q 115 -279 175 -306 q 21 -215 54 -253 q -23 -141 -12 -178 q -29 -83 -33 -104 q -17 -59 -26 -69 q 7 -49 -7 -49 l 132 -49 q 153 -55 146 -49 q 161 -78 160 -61 q 173 -117 164 -96 q 207 -152 182 -137 q 282 -167 232 -167 q 370 -151 329 -167 q 441 -100 411 -136 q 485 0 471 -64 l 504 94 q 411 29 463 54 q 285 4 360 4 q 157 28 208 4 q 77 97 106 53 q 41 200 49 140 q 44 332 33 260 q 51 369 47 353 q 60 407 54 386 q 109 536 79 476 q 182 641 139 596 q 283 711 225 686 q 418 736 342 736 q 549 706 497 736 q 626 632 601 676 l 638 688 q 652 713 640 703 q 679 722 664 722 l 790 722 q 813 713 806 722 q 818 688 821 703 l 676 18 q 631 -117 661 -57 q 553 -219 601 -176 q 436 -283 506 -261 q 271 -306 367 -306 m 346 151 q 444 176 403 151 q 514 242 486 201 q 553 324 542 282 q 563 369 557 342 q 571 414 568 397 q 570 497 578 457 q 534 562 563 536 q 449 588 506 588 q 354 562 394 588 q 288 494 314 536 q 249 403 263 453 q 240 369 244 386 q 233 335 236 353 q 231 244 226 286 q 262 176 235 201 q 346 151 289 151 m 279 826 q 263 843 261 826 q 275 864 264 854 l 444 1007 q 474 1026 463 1022 q 497 1029 485 1029 l 572 1029 q 595 1026 586 1029 q 615 1007 604 1022 l 724 864 q 728 844 731 856 q 706 826 725 826 l 656 826 q 637 828 646 826 q 619 836 628 831 l 519 910 l 388 836 q 369 828 378 831 q 349 826 360 826 l 279 826 z "},"ģ":{"ha":853,"x_min":-33,"x_max":821,"o":"m 271 -306 q 115 -279 175 -306 q 21 -215 54 -253 q -23 -141 -12 -178 q -29 -83 -33 -104 q -17 -59 -26 -69 q 7 -49 -7 -49 l 132 -49 q 153 -55 146 -49 q 161 -78 160 -61 q 173 -117 164 -96 q 207 -152 182 -137 q 282 -167 232 -167 q 370 -151 329 -167 q 441 -100 411 -136 q 485 0 471 -64 l 504 94 q 411 29 463 54 q 285 4 360 4 q 157 28 208 4 q 77 97 106 53 q 41 200 49 140 q 44 332 33 260 q 51 369 47 353 q 60 407 54 386 q 109 536 79 476 q 182 641 139 596 q 283 711 225 686 q 418 736 342 736 q 549 706 497 736 q 626 632 601 676 l 638 688 q 652 713 640 703 q 679 722 664 722 l 790 722 q 813 713 806 722 q 818 688 821 703 l 676 18 q 631 -117 661 -57 q 553 -219 601 -176 q 436 -283 506 -261 q 271 -306 367 -306 m 346 151 q 444 176 403 151 q 514 242 486 201 q 553 324 542 282 q 563 369 557 342 q 571 414 568 397 q 570 497 578 457 q 534 562 563 536 q 449 588 506 588 q 354 562 394 588 q 288 494 314 536 q 249 403 263 453 q 240 369 244 386 q 233 335 236 353 q 231 244 226 286 q 262 176 235 201 q 346 151 289 151 m 425 826 q 409 834 414 826 q 406 851 404 842 q 409 861 407 857 q 414 871 411 865 l 513 1036 q 534 1060 522 1050 q 565 1071 546 1071 l 640 1071 q 656 1063 651 1071 q 657 1042 661 1054 l 596 871 q 576 840 589 853 q 540 826 563 826 l 425 826 z "},"ġ":{"ha":853,"x_min":-33,"x_max":821,"o":"m 271 -306 q 115 -279 175 -306 q 21 -215 54 -253 q -23 -141 -12 -178 q -29 -83 -33 -104 q -17 -59 -26 -69 q 7 -49 -7 -49 l 132 -49 q 153 -55 146 -49 q 161 -78 160 -61 q 173 -117 164 -96 q 207 -152 182 -137 q 282 -167 232 -167 q 370 -151 329 -167 q 441 -100 411 -136 q 485 0 471 -64 l 504 94 q 411 29 463 54 q 285 4 360 4 q 157 28 208 4 q 77 97 106 53 q 41 200 49 140 q 44 332 33 260 q 51 369 47 353 q 60 407 54 386 q 109 536 79 476 q 182 641 139 596 q 283 711 225 686 q 418 736 342 736 q 549 706 497 736 q 626 632 601 676 l 638 688 q 652 713 640 703 q 679 722 664 722 l 790 722 q 813 713 806 722 q 818 688 821 703 l 676 18 q 631 -117 661 -57 q 553 -219 601 -176 q 436 -283 506 -261 q 271 -306 367 -306 m 346 151 q 444 176 403 151 q 514 242 486 201 q 553 324 542 282 q 563 369 557 342 q 571 414 568 397 q 570 497 578 457 q 534 562 563 536 q 449 588 506 588 q 354 562 394 588 q 288 494 314 536 q 249 403 263 453 q 240 369 244 386 q 233 335 236 353 q 231 244 226 286 q 262 176 235 201 q 346 151 289 151 m 442 844 q 421 853 428 844 q 417 875 414 861 l 442 989 q 455 1012 444 1003 q 479 1021 465 1021 l 592 1021 q 613 1012 606 1021 q 618 989 621 1003 l 593 875 q 580 853 590 861 q 556 844 569 844 l 442 844 z "},"h":{"ha":874,"x_min":10,"x_max":813,"o":"m 39 0 q 17 10 25 0 q 13 33 10 19 l 208 953 q 222 976 211 967 q 247 986 233 986 l 372 986 q 394 976 386 986 q 399 953 401 967 l 331 636 q 430 708 375 681 q 563 736 485 736 q 710 698 653 736 q 790 590 768 660 q 792 424 813 521 l 708 33 q 694 10 706 19 q 668 0 683 0 l 543 0 q 522 10 529 0 q 517 33 514 19 l 597 415 q 590 542 615 496 q 489 588 565 588 q 399 567 442 588 q 326 508 357 547 q 283 415 296 469 l 203 33 q 189 10 200 19 q 164 0 178 0 l 39 0 z "},"ħ":{"ha":874,"x_min":10,"x_max":813,"o":"m 108 775 q 86 784 93 775 q 82 808 79 793 l 90 849 q 104 872 93 863 q 131 882 115 882 l 444 882 q 467 872 460 882 q 471 849 475 863 l 464 808 q 449 784 460 793 q 422 775 438 775 l 108 775 m 39 0 q 17 10 25 0 q 13 33 10 19 l 208 953 q 222 976 211 967 q 247 986 233 986 l 372 986 q 394 976 386 986 q 399 953 401 967 l 331 636 q 430 708 375 681 q 563 736 485 736 q 710 698 653 736 q 790 590 768 660 q 792 424 813 521 l 708 33 q 694 10 706 19 q 668 0 683 0 l 543 0 q 522 10 529 0 q 517 33 514 19 l 597 415 q 590 542 615 496 q 489 588 565 588 q 399 567 442 588 q 326 508 357 547 q 283 415 296 469 l 203 33 q 189 10 200 19 q 164 0 178 0 l 39 0 z "},"ĥ":{"ha":874,"x_min":10,"x_max":813,"o":"m 39 0 q 17 10 25 0 q 13 33 10 19 l 208 953 q 222 976 211 967 q 247 986 233 986 l 372 986 q 394 976 386 986 q 399 953 401 967 l 331 636 q 430 708 375 681 q 563 736 485 736 q 710 698 653 736 q 790 590 768 660 q 792 424 813 521 l 708 33 q 694 10 706 19 q 668 0 683 0 l 543 0 q 522 10 529 0 q 517 33 514 19 l 597 415 q 590 542 615 496 q 489 588 565 588 q 399 567 442 588 q 326 508 357 547 q 283 415 296 469 l 203 33 q 189 10 200 19 q 164 0 178 0 l 39 0 m 314 1043 q 297 1060 296 1043 q 310 1081 299 1071 l 479 1224 q 508 1242 497 1239 q 532 1246 519 1246 l 607 1246 q 630 1242 621 1246 q 650 1224 639 1239 l 758 1081 q 763 1061 765 1072 q 740 1043 760 1043 l 690 1043 q 672 1045 681 1043 q 654 1053 663 1047 l 554 1126 l 422 1053 q 403 1045 413 1047 q 383 1043 394 1043 l 314 1043 z "},"i":{"ha":367,"x_min":10,"x_max":404,"o":"m 39 0 q 17 10 25 0 q 13 33 10 19 l 151 689 q 166 713 154 703 q 192 722 178 722 l 307 722 q 329 713 322 722 q 333 689 336 703 l 194 33 q 181 10 192 19 q 154 0 169 0 l 39 0 m 211 842 q 190 851 197 842 q 185 875 182 861 l 207 975 q 221 999 210 989 q 247 1008 232 1008 l 374 1008 q 396 999 388 1008 q 401 975 404 989 l 379 875 q 365 851 376 861 q 339 842 353 842 l 211 842 z "},"ı":{"ha":367,"x_min":10,"x_max":336,"o":"m 39 0 q 17 10 25 0 q 13 33 10 19 l 151 689 q 166 713 154 703 q 192 722 178 722 l 307 722 q 329 713 322 722 q 333 689 336 703 l 194 33 q 181 10 192 19 q 154 0 169 0 l 39 0 z "},"í":{"ha":367,"x_min":10,"x_max":561,"o":"m 39 0 q 17 10 25 0 q 13 33 10 19 l 151 689 q 166 713 154 703 q 192 722 178 722 l 307 722 q 329 713 322 722 q 333 689 336 703 l 194 33 q 181 10 192 19 q 154 0 169 0 l 39 0 m 206 826 q 189 849 183 826 q 200 867 192 858 l 343 1004 q 370 1024 360 1019 q 400 1029 381 1029 l 539 1029 q 560 1006 561 1029 q 549 986 558 993 l 346 844 q 321 831 332 835 q 293 826 310 826 l 206 826 z "},"ĭ":{"ha":367,"x_min":10,"x_max":501,"o":"m 39 0 q 17 10 25 0 q 13 33 10 19 l 151 689 q 166 713 154 703 q 192 722 178 722 l 307 722 q 329 713 322 722 q 333 689 336 703 l 194 33 q 181 10 192 19 q 154 0 169 0 l 39 0 m 282 819 q 181 845 221 819 q 127 913 142 871 q 122 1003 113 954 q 133 1022 125 1014 q 154 1029 142 1029 l 219 1029 q 238 1022 232 1029 q 240 1003 243 1014 q 242 944 235 971 q 290 918 250 918 q 352 944 332 918 q 379 1003 372 971 q 390 1022 382 1014 q 411 1029 399 1029 l 476 1029 q 494 1022 489 1029 q 497 1003 500 1014 q 464 913 488 954 q 397 845 440 871 q 282 819 353 819 z "},"î":{"ha":367,"x_min":10,"x_max":506,"o":"m 39 0 q 17 10 25 0 q 13 33 10 19 l 151 689 q 166 713 154 703 q 192 722 178 722 l 307 722 q 329 713 322 722 q 333 689 336 703 l 194 33 q 181 10 192 19 q 154 0 169 0 l 39 0 m 54 826 q 38 843 36 826 q 50 864 39 854 l 219 1007 q 249 1026 238 1022 q 272 1029 260 1029 l 347 1029 q 370 1026 361 1029 q 390 1007 379 1022 l 499 864 q 503 844 506 856 q 481 826 500 826 l 431 826 q 412 828 421 826 q 394 836 403 831 l 294 910 l 163 836 q 144 828 153 831 q 124 826 135 826 l 54 826 z "},"ï":{"ha":367,"x_min":10,"x_max":522,"o":"m 39 0 q 17 10 25 0 q 13 33 10 19 l 151 689 q 166 713 154 703 q 192 722 178 722 l 307 722 q 329 713 322 722 q 333 689 336 703 l 194 33 q 181 10 192 19 q 154 0 169 0 l 39 0 m 357 853 q 337 861 343 853 q 332 883 331 869 l 354 985 q 367 1008 357 999 q 392 1017 378 1017 l 493 1017 q 514 1008 507 1017 q 518 985 521 999 l 496 883 q 483 861 493 869 q 458 853 472 853 l 357 853 m 96 853 q 76 861 82 853 q 71 883 69 869 l 93 985 q 106 1008 96 999 q 131 1017 117 1017 l 232 1017 q 253 1008 246 1017 q 257 985 260 999 l 235 883 q 222 861 232 869 q 197 853 211 853 l 96 853 z "},"ì":{"ha":367,"x_min":10,"x_max":368,"o":"m 39 0 q 17 10 25 0 q 13 33 10 19 l 151 689 q 166 713 154 703 q 192 722 178 722 l 307 722 q 329 713 322 722 q 333 689 336 703 l 194 33 q 181 10 192 19 q 154 0 169 0 l 39 0 m 247 826 q 220 831 229 826 q 201 844 211 835 l 61 983 q 56 1003 53 992 q 86 1029 61 1029 l 232 1029 q 259 1024 250 1029 q 278 1004 268 1019 l 361 868 q 364 847 367 858 q 338 826 360 826 l 247 826 z "},"ĳ":{"ha":754,"x_min":10,"x_max":790,"o":"m 39 0 q 17 10 25 0 q 13 33 10 19 l 151 689 q 166 713 154 703 q 192 722 178 722 l 307 722 q 329 713 322 722 q 333 689 336 703 l 194 33 q 181 10 192 19 q 154 0 169 0 l 39 0 m 211 842 q 190 851 197 842 q 185 875 182 861 l 207 975 q 221 999 210 989 q 247 1008 232 1008 l 374 1008 q 396 999 388 1008 q 401 975 404 989 l 379 875 q 365 851 376 861 q 339 842 353 842 l 211 842 m 197 -264 q 175 -254 182 -264 q 171 -231 168 -244 l 188 -150 q 202 -126 190 -136 q 228 -117 214 -117 l 267 -117 q 349 -83 321 -117 q 386 1 376 -49 l 532 689 q 547 713 535 703 q 574 722 558 722 l 693 722 q 715 713 708 722 q 719 689 722 703 l 574 -1 q 518 -142 556 -83 q 417 -232 481 -200 q 260 -264 353 -264 l 197 -264 m 593 842 q 571 851 578 842 q 565 875 564 861 l 588 975 q 601 999 590 989 q 628 1008 613 1008 l 760 1008 q 781 999 774 1008 q 786 975 789 989 l 765 875 q 751 851 763 861 q 725 842 739 842 l 593 842 z "},"ī":{"ha":367,"x_min":10,"x_max":506,"o":"m 39 0 q 17 10 25 0 q 13 33 10 19 l 151 689 q 166 713 154 703 q 192 722 178 722 l 307 722 q 329 713 322 722 q 333 689 336 703 l 194 33 q 181 10 192 19 q 154 0 169 0 l 39 0 m 101 849 q 81 857 88 849 q 76 879 75 865 l 92 950 q 105 972 94 964 q 129 981 115 981 l 478 981 q 499 972 492 981 q 503 950 506 964 l 488 879 q 474 857 485 865 q 450 849 464 849 l 101 849 z "},"į":{"ha":383,"x_min":-62,"x_max":439,"o":"m 113 -290 q -24 -235 15 -290 q -44 -90 -62 -179 q -3 -3 -33 -37 q 71 44 28 32 l 68 47 q 58 56 61 50 q 57 68 54 61 l 188 689 q 202 713 190 703 q 229 722 214 722 l 344 722 q 365 713 358 722 q 369 689 372 703 l 231 33 q 216 10 228 19 q 190 0 204 0 l 181 0 q 108 -25 136 0 q 71 -90 79 -50 q 81 -155 63 -131 q 143 -179 99 -179 l 161 -179 q 183 -189 175 -179 q 186 -212 190 -199 l 178 -257 q 163 -281 175 -271 q 136 -290 150 -290 l 113 -290 m 247 842 q 226 851 233 842 q 221 875 218 861 l 243 975 q 258 999 246 989 q 283 1008 269 1008 l 410 1008 q 432 999 425 1008 q 436 975 439 989 l 415 875 q 401 851 413 861 q 374 842 389 842 l 247 842 z "},"ĩ":{"ha":367,"x_min":10,"x_max":522,"o":"m 39 0 q 17 10 25 0 q 13 33 10 19 l 151 689 q 166 713 154 703 q 192 722 178 722 l 307 722 q 329 713 322 722 q 333 689 336 703 l 194 33 q 181 10 192 19 q 154 0 169 0 l 39 0 m 363 819 q 305 831 326 819 q 266 856 283 843 q 225 868 249 868 q 197 858 208 868 q 176 837 186 847 q 151 826 167 826 l 88 826 q 72 833 78 826 q 68 850 67 840 q 84 897 72 871 q 115 946 96 922 q 163 984 135 969 q 226 999 192 999 q 285 987 264 999 q 324 963 307 975 q 365 950 342 950 q 394 961 383 950 q 413 983 404 972 q 438 993 422 993 l 501 993 q 517 985 513 993 q 521 968 522 978 q 505 922 517 947 q 473 872 493 896 q 425 834 453 849 q 363 819 397 819 z "},"j":{"ha":388,"x_min":-199,"x_max":422,"o":"m -169 -264 q -192 -254 -185 -264 q -196 -231 -199 -244 l -179 -150 q -165 -126 -176 -136 q -139 -117 -153 -117 l -100 -117 q -18 -83 -46 -117 q 19 1 10 -49 l 165 689 q 180 713 168 703 q 207 722 192 722 l 326 722 q 349 713 342 722 q 353 689 356 703 l 207 -1 q 151 -142 189 -83 q 50 -232 114 -200 q -107 -264 -14 -264 l -169 -264 m 226 842 q 204 851 211 842 q 199 875 197 861 l 221 975 q 235 999 224 989 q 261 1008 246 1008 l 393 1008 q 415 999 407 1008 q 419 975 422 989 l 399 875 q 384 851 396 861 q 358 842 372 842 l 226 842 z "},"ȷ":{"ha":490,"x_min":-121,"x_max":458,"o":"m -93 -264 q -114 -254 -107 -264 q -118 -231 -121 -244 l -97 -131 q -83 -107 -94 -117 q -58 -97 -72 -97 l 1 -97 q 68 -82 44 -97 q 106 -40 92 -67 q 126 21 119 -12 l 243 571 l 94 571 q 72 581 79 571 q 68 604 65 590 l 85 689 q 99 713 88 703 q 126 722 111 722 l 429 722 q 451 713 444 722 q 456 689 458 703 l 314 21 q 253 -128 296 -64 q 143 -228 210 -192 q -15 -264 76 -264 l -93 -264 z "},"ĵ":{"ha":490,"x_min":-121,"x_max":535,"o":"m -93 -264 q -114 -254 -107 -264 q -118 -231 -121 -244 l -97 -131 q -83 -107 -94 -117 q -58 -97 -72 -97 l 1 -97 q 68 -82 44 -97 q 106 -40 92 -67 q 126 21 119 -12 l 243 571 l 94 571 q 72 581 79 571 q 68 604 65 590 l 85 689 q 99 713 88 703 q 126 722 111 722 l 429 722 q 451 713 444 722 q 456 689 458 703 l 314 21 q 253 -128 296 -64 q 143 -228 210 -192 q -15 -264 76 -264 l -93 -264 m 82 826 q 65 843 64 826 q 78 864 67 854 l 247 1007 q 276 1026 265 1022 q 300 1029 288 1029 l 375 1029 q 398 1026 389 1029 q 418 1007 407 1022 l 526 864 q 531 844 533 856 q 508 826 528 826 l 458 826 q 440 828 449 826 q 422 836 431 831 l 322 910 l 190 836 q 172 828 181 831 q 151 826 163 826 l 82 826 z "},"k":{"ha":767,"x_min":10,"x_max":786,"o":"m 39 0 q 17 10 25 0 q 13 33 10 19 l 208 953 q 222 976 211 967 q 247 986 233 986 l 361 986 q 383 976 375 986 q 388 953 390 967 l 288 483 l 560 699 q 586 716 575 710 q 617 722 597 722 l 758 722 q 783 703 781 722 q 764 667 786 683 l 421 389 l 665 49 q 669 17 678 33 q 639 0 660 0 l 513 0 q 484 8 493 0 q 469 22 475 15 l 253 319 l 192 33 q 178 10 189 19 q 153 0 167 0 l 39 0 z "},"ķ":{"ha":767,"x_min":10,"x_max":786,"o":"m 39 0 q 17 10 25 0 q 13 33 10 19 l 208 953 q 222 976 211 967 q 247 986 233 986 l 361 986 q 383 976 375 986 q 388 953 390 967 l 288 483 l 560 699 q 586 716 575 710 q 617 722 597 722 l 758 722 q 783 703 781 722 q 764 667 786 683 l 421 389 l 665 49 q 669 17 678 33 q 639 0 660 0 l 513 0 q 484 8 493 0 q 469 22 475 15 l 253 319 l 192 33 q 178 10 189 19 q 153 0 167 0 l 39 0 m 140 -314 q 123 -306 128 -314 q 122 -285 118 -297 l 185 -114 q 205 -83 192 -96 q 239 -69 218 -69 l 356 -69 q 372 -77 367 -69 q 374 -94 376 -85 q 371 -103 372 -99 q 365 -114 369 -108 l 267 -279 q 247 -303 258 -293 q 214 -314 235 -314 l 140 -314 z "},"ĸ":{"ha":765,"x_min":29,"x_max":801,"o":"m 57 0 q 36 10 43 0 q 32 33 29 19 l 171 689 q 185 713 174 703 q 211 722 197 722 l 325 722 q 346 713 339 722 q 350 689 353 703 l 297 440 l 599 699 q 624 716 614 710 q 654 722 635 722 l 776 722 q 795 714 789 722 q 799 692 801 706 q 793 679 797 686 q 781 667 789 672 l 431 364 l 681 54 q 688 42 686 49 q 688 31 690 36 q 676 8 686 17 q 651 0 665 0 l 518 0 q 490 7 497 0 q 472 24 482 14 l 264 281 l 211 33 q 197 10 208 19 q 171 0 185 0 l 57 0 z "},"l":{"ha":368,"x_min":10,"x_max":393,"o":"m 39 0 q 17 10 25 0 q 13 33 10 19 l 208 953 q 222 976 211 967 q 247 986 233 986 l 363 986 q 385 976 378 986 q 390 953 393 967 l 194 33 q 181 10 192 19 q 154 0 169 0 l 39 0 z "},"ĺ":{"ha":368,"x_min":10,"x_max":621,"o":"m 39 0 q 17 10 25 0 q 13 33 10 19 l 208 953 q 222 976 211 967 q 247 986 233 986 l 363 986 q 385 976 378 986 q 390 953 393 967 l 194 33 q 181 10 192 19 q 154 0 169 0 l 39 0 m 265 1042 q 249 1064 243 1042 q 260 1082 251 1074 l 403 1219 q 430 1240 419 1235 q 460 1244 440 1244 l 599 1244 q 619 1221 621 1244 q 608 1201 618 1208 l 406 1060 q 381 1046 392 1050 q 353 1042 369 1042 l 265 1042 z "},"ľ":{"ha":472,"x_min":10,"x_max":676,"o":"m 39 0 q 17 10 25 0 q 13 33 10 19 l 208 953 q 222 976 211 967 q 247 986 233 986 l 363 986 q 385 976 378 986 q 390 953 393 967 l 194 33 q 181 10 192 19 q 154 0 169 0 l 39 0 m 440 742 q 423 750 428 742 q 422 771 418 758 l 485 942 q 505 973 492 960 q 539 986 518 986 l 656 986 q 671 978 665 986 q 674 961 676 971 q 671 952 672 957 q 665 942 669 947 l 567 776 q 547 752 558 763 q 514 742 535 742 l 440 742 z "},"ļ":{"ha":368,"x_min":-89,"x_max":393,"o":"m 39 0 q 17 10 25 0 q 13 33 10 19 l 208 953 q 222 976 211 967 q 247 986 233 986 l 363 986 q 385 976 378 986 q 390 953 393 967 l 194 33 q 181 10 192 19 q 154 0 169 0 l 39 0 m -68 -314 q -85 -306 -81 -314 q -86 -285 -90 -297 l -24 -114 q -3 -83 -17 -96 q 31 -69 10 -69 l 147 -69 q 163 -77 158 -69 q 165 -94 168 -85 q 163 -103 164 -99 q 157 -114 161 -108 l 58 -279 q 38 -303 50 -293 q 6 -314 26 -314 l -68 -314 z "},"ŀ":{"ha":543,"x_min":10,"x_max":578,"o":"m 39 0 q 17 10 25 0 q 13 33 10 19 l 208 953 q 222 976 211 967 q 247 986 233 986 l 363 986 q 385 976 378 986 q 390 953 393 967 l 194 33 q 181 10 192 19 q 154 0 169 0 l 39 0 m 397 411 q 376 420 383 411 q 372 443 369 429 l 397 556 q 410 578 400 569 q 435 588 421 588 l 549 588 q 569 578 561 588 q 574 556 576 569 l 549 443 q 535 420 546 429 q 511 411 525 411 l 397 411 z "},"ł":{"ha":429,"x_min":47,"x_max":461,"o":"m 90 0 q 69 10 76 0 q 64 33 61 19 l 140 392 l 90 374 q 72 369 78 369 q 53 376 60 369 q 50 396 47 383 l 65 472 q 78 499 69 490 q 104 513 86 507 l 171 535 l 260 953 q 274 976 263 967 q 300 986 286 986 l 415 986 q 437 976 429 986 q 440 953 444 967 l 368 606 l 418 624 q 436 628 431 628 q 455 621 449 628 q 458 601 461 614 l 442 525 q 430 500 439 508 q 403 485 421 492 l 338 461 l 246 33 q 231 10 243 19 q 206 0 219 0 l 90 0 z "},"m":{"ha":1254,"x_min":10,"x_max":1194,"o":"m 39 0 q 17 10 25 0 q 13 33 10 19 l 151 689 q 166 713 154 703 q 192 722 178 722 l 300 722 q 321 713 314 722 q 325 689 328 703 l 315 642 q 370 690 342 668 q 436 724 399 711 q 524 736 474 736 q 656 703 604 736 q 726 613 708 671 q 829 702 771 668 q 965 736 888 736 q 1095 703 1040 736 q 1172 602 1150 669 q 1174 432 1194 535 l 1088 33 q 1074 10 1085 19 q 1049 0 1063 0 l 935 0 q 913 10 921 0 q 908 33 906 19 l 990 421 q 996 520 1004 483 q 962 572 988 557 q 900 588 936 588 q 833 572 868 588 q 767 520 797 557 q 725 421 738 483 l 642 33 q 628 10 639 19 q 603 0 617 0 l 489 0 q 467 10 475 0 q 461 33 458 19 l 544 421 q 548 520 557 483 q 514 572 539 557 q 453 588 489 588 q 386 572 422 588 q 320 519 350 556 q 278 421 290 483 l 194 33 q 181 10 192 19 q 156 0 169 0 l 39 0 z "},"n":{"ha":867,"x_min":10,"x_max":806,"o":"m 39 0 q 17 10 25 0 q 13 33 10 19 l 151 689 q 166 713 154 703 q 192 722 178 722 l 306 722 q 326 713 319 722 q 331 689 333 703 l 318 632 q 423 706 363 676 q 560 736 483 736 q 711 698 654 736 q 787 590 768 660 q 785 424 806 521 l 701 33 q 688 10 699 19 q 661 0 676 0 l 539 0 q 517 10 525 0 q 513 33 510 19 l 593 415 q 590 544 611 500 q 488 588 568 588 q 353 542 408 588 q 281 415 299 496 l 200 33 q 186 10 197 19 q 161 0 175 0 l 39 0 z "},"ń":{"ha":867,"x_min":10,"x_max":807,"o":"m 39 0 q 17 10 25 0 q 13 33 10 19 l 151 689 q 166 713 154 703 q 192 722 178 722 l 306 722 q 326 713 319 722 q 331 689 333 703 l 318 632 q 423 706 363 676 q 560 736 483 736 q 711 698 654 736 q 787 590 768 660 q 785 424 806 521 l 701 33 q 688 10 699 19 q 661 0 676 0 l 539 0 q 517 10 525 0 q 513 33 510 19 l 593 415 q 590 544 611 500 q 488 588 568 588 q 353 542 408 588 q 281 415 299 496 l 200 33 q 186 10 197 19 q 161 0 175 0 l 39 0 m 451 826 q 435 849 429 826 q 446 867 438 858 l 589 1004 q 616 1024 606 1019 q 646 1029 626 1029 l 785 1029 q 806 1006 807 1029 q 794 986 804 993 l 592 844 q 567 831 578 835 q 539 826 556 826 l 451 826 z "},"ŉ":{"ha":867,"x_min":-7,"x_max":806,"o":"m 14 781 q -2 789 3 781 q -3 810 -7 797 l 58 981 q 79 1012 65 999 q 114 1025 93 1025 l 229 1025 q 246 1017 240 1025 q 249 1000 251 1010 q 245 991 247 996 q 240 981 243 986 l 142 815 q 120 791 132 801 q 89 781 108 781 l 14 781 m 39 0 q 17 10 25 0 q 13 33 10 19 l 151 689 q 166 713 154 703 q 192 722 178 722 l 306 722 q 326 713 319 722 q 331 689 333 703 l 318 632 q 423 706 363 676 q 560 736 483 736 q 711 698 654 736 q 787 590 768 660 q 785 424 806 521 l 701 33 q 688 10 699 19 q 661 0 676 0 l 539 0 q 517 10 525 0 q 513 33 510 19 l 593 415 q 590 544 611 500 q 488 588 568 588 q 353 542 408 588 q 281 415 299 496 l 200 33 q 186 10 197 19 q 161 0 175 0 l 39 0 z "},"ň":{"ha":867,"x_min":10,"x_max":806,"o":"m 39 0 q 17 10 25 0 q 13 33 10 19 l 151 689 q 166 713 154 703 q 192 722 178 722 l 306 722 q 326 713 319 722 q 331 689 333 703 l 318 632 q 423 706 363 676 q 560 736 483 736 q 711 698 654 736 q 787 590 768 660 q 785 424 806 521 l 701 33 q 688 10 699 19 q 661 0 676 0 l 539 0 q 517 10 525 0 q 513 33 510 19 l 593 415 q 590 544 611 500 q 488 588 568 588 q 353 542 408 588 q 281 415 299 496 l 200 33 q 186 10 197 19 q 161 0 175 0 l 39 0 m 482 826 q 460 831 469 826 q 439 849 450 835 l 331 992 q 325 1008 325 1000 q 333 1024 326 1018 q 350 1029 340 1029 l 399 1029 q 418 1027 410 1029 q 435 1019 426 1025 l 535 947 l 667 1019 q 687 1027 678 1025 q 706 1029 696 1029 l 776 1029 q 792 1013 794 1029 q 781 993 792 1001 l 610 849 q 582 831 593 835 q 558 826 571 826 l 482 826 z "},"ņ":{"ha":867,"x_min":10,"x_max":806,"o":"m 39 0 q 17 10 25 0 q 13 33 10 19 l 151 689 q 166 713 154 703 q 192 722 178 722 l 306 722 q 326 713 319 722 q 331 689 333 703 l 318 632 q 423 706 363 676 q 560 736 483 736 q 711 698 654 736 q 787 590 768 660 q 785 424 806 521 l 701 33 q 688 10 699 19 q 661 0 676 0 l 539 0 q 517 10 525 0 q 513 33 510 19 l 593 415 q 590 544 611 500 q 488 588 568 588 q 353 542 408 588 q 281 415 299 496 l 200 33 q 186 10 197 19 q 161 0 175 0 l 39 0 m 188 -314 q 170 -306 175 -314 q 169 -285 165 -297 l 232 -114 q 252 -83 239 -96 q 286 -69 265 -69 l 403 -69 q 419 -77 414 -69 q 421 -94 424 -85 q 418 -103 419 -99 q 413 -114 417 -108 l 314 -279 q 294 -303 306 -293 q 261 -314 282 -314 l 188 -314 z "},"ñ":{"ha":867,"x_min":10,"x_max":806,"o":"m 39 0 q 17 10 25 0 q 13 33 10 19 l 151 689 q 166 713 154 703 q 192 722 178 722 l 306 722 q 326 713 319 722 q 331 689 333 703 l 318 632 q 423 706 363 676 q 560 736 483 736 q 711 698 654 736 q 787 590 768 660 q 785 424 806 521 l 701 33 q 688 10 699 19 q 661 0 676 0 l 539 0 q 517 10 525 0 q 513 33 510 19 l 593 415 q 590 544 611 500 q 488 588 568 588 q 353 542 408 588 q 281 415 299 496 l 200 33 q 186 10 197 19 q 161 0 175 0 l 39 0 m 610 819 q 552 831 574 819 q 513 856 531 843 q 472 868 496 868 q 444 858 456 868 q 424 837 433 847 q 399 826 414 826 l 335 826 q 319 833 325 826 q 315 850 314 840 q 331 897 319 871 q 363 946 343 922 q 410 984 382 969 q 474 999 439 999 q 533 987 511 999 q 572 963 554 975 q 613 950 589 950 q 641 961 631 950 q 660 983 651 972 q 685 993 669 993 l 749 993 q 765 985 760 993 q 768 968 769 978 q 752 922 764 947 q 720 872 740 896 q 672 834 700 849 q 610 819 644 819 z "},"ŋ":{"ha":867,"x_min":10,"x_max":806,"o":"m 303 -312 q 280 -303 288 -312 q 275 -279 272 -293 l 296 -183 q 310 -160 299 -169 q 336 -150 322 -150 l 361 -150 q 434 -133 406 -150 q 478 -86 463 -117 q 503 -14 494 -56 l 593 415 q 590 544 611 500 q 488 588 568 588 q 353 542 408 588 q 281 415 299 496 l 200 33 q 186 10 197 19 q 161 0 175 0 l 39 0 q 17 10 25 0 q 13 33 10 19 l 151 689 q 166 713 154 703 q 192 722 178 722 l 306 722 q 326 713 319 722 q 331 689 333 703 l 318 632 q 423 706 363 676 q 560 736 483 736 q 711 698 654 736 q 787 590 768 660 q 785 424 806 521 l 690 -19 q 627 -178 669 -112 q 512 -278 585 -243 q 328 -312 439 -312 l 303 -312 z "},"o":{"ha":821,"x_min":24,"x_max":775,"o":"m 329 -14 q 153 25 224 -14 q 53 135 83 64 q 39 300 24 206 q 51 361 43 325 q 65 422 58 397 q 142 588 90 518 q 276 697 194 658 q 468 736 357 736 q 644 697 574 736 q 744 588 714 658 q 760 422 775 518 q 747 361 754 397 q 733 300 740 325 q 658 135 708 206 q 526 25 607 64 q 329 -14 444 -14 m 343 124 q 470 170 418 124 q 546 307 522 217 q 558 361 551 328 q 569 415 565 394 q 557 552 585 506 q 454 599 529 599 q 328 552 381 599 q 253 415 275 506 q 240 361 247 394 q 229 307 232 328 q 241 170 214 217 q 343 124 268 124 z "},"ó":{"ha":821,"x_min":24,"x_max":783,"o":"m 329 -14 q 153 25 224 -14 q 53 135 83 64 q 39 300 24 206 q 51 361 43 325 q 65 422 58 397 q 142 588 90 518 q 276 697 194 658 q 468 736 357 736 q 644 697 574 736 q 744 588 714 658 q 760 422 775 518 q 747 361 754 397 q 733 300 740 325 q 658 135 708 206 q 526 25 607 64 q 329 -14 444 -14 m 343 124 q 470 170 418 124 q 546 307 522 217 q 558 361 551 328 q 569 415 565 394 q 557 552 585 506 q 454 599 529 599 q 328 552 381 599 q 253 415 275 506 q 240 361 247 394 q 229 307 232 328 q 241 170 214 217 q 343 124 268 124 m 428 826 q 411 849 406 826 q 422 867 414 858 l 565 1004 q 592 1024 582 1019 q 622 1029 603 1029 l 761 1029 q 782 1006 783 1029 q 771 986 781 993 l 568 844 q 543 831 554 835 q 515 826 532 826 l 428 826 z "},"ŏ":{"ha":821,"x_min":24,"x_max":775,"o":"m 329 -14 q 153 25 224 -14 q 53 135 83 64 q 39 300 24 206 q 51 361 43 325 q 65 422 58 397 q 142 588 90 518 q 276 697 194 658 q 468 736 357 736 q 644 697 574 736 q 744 588 714 658 q 760 422 775 518 q 747 361 754 397 q 733 300 740 325 q 658 135 708 206 q 526 25 607 64 q 329 -14 444 -14 m 343 124 q 470 170 418 124 q 546 307 522 217 q 558 361 551 328 q 569 415 565 394 q 557 552 585 506 q 454 599 529 599 q 328 552 381 599 q 253 415 275 506 q 240 361 247 394 q 229 307 232 328 q 241 170 214 217 q 343 124 268 124 m 506 819 q 405 845 444 819 q 351 913 365 871 q 346 1003 336 954 q 357 1022 349 1014 q 378 1029 365 1029 l 443 1029 q 461 1022 456 1029 q 464 1003 467 1014 q 466 944 458 971 q 514 918 474 918 q 576 944 556 918 q 603 1003 596 971 q 614 1022 606 1014 q 635 1029 622 1029 l 700 1029 q 718 1022 713 1029 q 721 1003 724 1014 q 688 913 711 954 q 620 845 664 871 q 506 819 576 819 z "},"ô":{"ha":821,"x_min":24,"x_max":775,"o":"m 329 -14 q 153 25 224 -14 q 53 135 83 64 q 39 300 24 206 q 51 361 43 325 q 65 422 58 397 q 142 588 90 518 q 276 697 194 658 q 468 736 357 736 q 644 697 574 736 q 744 588 714 658 q 760 422 775 518 q 747 361 754 397 q 733 300 740 325 q 658 135 708 206 q 526 25 607 64 q 329 -14 444 -14 m 343 124 q 470 170 418 124 q 546 307 522 217 q 558 361 551 328 q 569 415 565 394 q 557 552 585 506 q 454 599 529 599 q 328 552 381 599 q 253 415 275 506 q 240 361 247 394 q 229 307 232 328 q 241 170 214 217 q 343 124 268 124 m 278 826 q 261 843 260 826 q 274 864 263 854 l 443 1007 q 472 1026 461 1022 q 496 1029 483 1029 l 571 1029 q 594 1026 585 1029 q 614 1007 603 1022 l 722 864 q 726 844 729 856 q 704 826 724 826 l 654 826 q 635 828 644 826 q 618 836 626 831 l 518 910 l 386 836 q 367 828 376 831 q 347 826 358 826 l 278 826 z "},"ö":{"ha":821,"x_min":24,"x_max":775,"o":"m 329 -14 q 153 25 224 -14 q 53 135 83 64 q 39 300 24 206 q 51 361 43 325 q 65 422 58 397 q 142 588 90 518 q 276 697 194 658 q 468 736 357 736 q 644 697 574 736 q 744 588 714 658 q 760 422 775 518 q 747 361 754 397 q 733 300 740 325 q 658 135 708 206 q 526 25 607 64 q 329 -14 444 -14 m 343 124 q 470 170 418 124 q 546 307 522 217 q 558 361 551 328 q 569 415 565 394 q 557 552 585 506 q 454 599 529 599 q 328 552 381 599 q 253 415 275 506 q 240 361 247 394 q 229 307 232 328 q 241 170 214 217 q 343 124 268 124 m 581 853 q 560 861 567 853 q 556 883 554 869 l 578 985 q 591 1008 581 999 q 615 1017 601 1017 l 717 1017 q 738 1008 731 1017 q 742 985 744 999 l 719 883 q 706 861 717 869 q 682 853 696 853 l 581 853 m 319 853 q 299 861 306 853 q 294 883 293 869 l 317 985 q 330 1008 319 999 q 354 1017 340 1017 l 456 1017 q 476 1008 469 1017 q 481 985 483 999 l 458 883 q 445 861 456 869 q 421 853 435 853 l 319 853 z "},"ò":{"ha":821,"x_min":24,"x_max":775,"o":"m 329 -14 q 153 25 224 -14 q 53 135 83 64 q 39 300 24 206 q 51 361 43 325 q 65 422 58 397 q 142 588 90 518 q 276 697 194 658 q 468 736 357 736 q 644 697 574 736 q 744 588 714 658 q 760 422 775 518 q 747 361 754 397 q 733 300 740 325 q 658 135 708 206 q 526 25 607 64 q 329 -14 444 -14 m 343 124 q 470 170 418 124 q 546 307 522 217 q 558 361 551 328 q 569 415 565 394 q 557 552 585 506 q 454 599 529 599 q 328 552 381 599 q 253 415 275 506 q 240 361 247 394 q 229 307 232 328 q 241 170 214 217 q 343 124 268 124 m 471 826 q 444 831 453 826 q 425 844 435 835 l 285 983 q 279 1003 276 992 q 310 1029 285 1029 l 456 1029 q 483 1024 474 1029 q 501 1004 492 1019 l 585 868 q 588 847 590 858 q 561 826 583 826 l 471 826 z "},"ő":{"ha":821,"x_min":24,"x_max":854,"o":"m 329 -14 q 153 25 224 -14 q 53 135 83 64 q 39 300 24 206 q 51 361 43 325 q 65 422 58 397 q 142 588 90 518 q 276 697 194 658 q 468 736 357 736 q 644 697 574 736 q 744 588 714 658 q 760 422 775 518 q 747 361 754 397 q 733 300 740 325 q 658 135 708 206 q 526 25 607 64 q 329 -14 444 -14 m 343 124 q 470 170 418 124 q 546 307 522 217 q 558 361 551 328 q 569 415 565 394 q 557 552 585 506 q 454 599 529 599 q 328 552 381 599 q 253 415 275 506 q 240 361 247 394 q 229 307 232 328 q 241 170 214 217 q 343 124 268 124 m 578 826 q 558 844 557 826 q 563 854 560 849 q 568 864 565 860 l 660 1003 q 682 1023 669 1017 q 717 1029 694 1029 l 829 1029 q 851 1007 854 1029 q 840 986 851 996 l 686 846 q 639 826 664 826 l 578 826 m 315 826 q 296 844 294 826 q 300 854 297 849 q 306 864 303 860 l 399 1003 q 420 1023 407 1017 q 456 1029 433 1029 l 567 1029 q 589 1007 592 1029 q 578 986 589 996 l 424 846 q 376 826 401 826 l 315 826 z "},"ō":{"ha":821,"x_min":24,"x_max":775,"o":"m 329 -14 q 153 25 224 -14 q 53 135 83 64 q 39 300 24 206 q 51 361 43 325 q 65 422 58 397 q 142 588 90 518 q 276 697 194 658 q 468 736 357 736 q 644 697 574 736 q 744 588 714 658 q 760 422 775 518 q 747 361 754 397 q 733 300 740 325 q 658 135 708 206 q 526 25 607 64 q 329 -14 444 -14 m 343 124 q 470 170 418 124 q 546 307 522 217 q 558 361 551 328 q 569 415 565 394 q 557 552 585 506 q 454 599 529 599 q 328 552 381 599 q 253 415 275 506 q 240 361 247 394 q 229 307 232 328 q 241 170 214 217 q 343 124 268 124 m 325 849 q 305 857 311 849 q 300 879 299 865 l 315 950 q 328 972 318 964 q 353 981 339 981 l 701 981 q 722 972 715 981 q 726 950 729 964 l 711 879 q 698 857 708 865 q 674 849 688 849 l 325 849 z "},"ø":{"ha":821,"x_min":-10,"x_max":825,"o":"m 329 -14 q 153 25 224 -14 q 53 135 83 64 q 39 300 24 206 q 51 361 43 325 q 65 422 58 397 q 142 588 90 518 q 276 697 194 658 q 468 736 357 736 q 644 697 574 736 q 744 588 714 658 q 760 422 775 518 q 747 361 754 397 q 733 300 740 325 q 658 135 708 206 q 526 25 607 64 q 329 -14 444 -14 m 343 124 q 470 170 418 124 q 546 307 522 217 q 558 361 551 328 q 569 415 565 394 q 557 552 585 506 q 454 599 529 599 q 328 552 381 599 q 253 415 275 506 q 240 361 247 394 q 229 307 232 328 q 241 170 214 217 q 343 124 268 124 m 15 -39 q -1 -32 7 -39 q -10 -15 -10 -25 q 3 7 -10 -4 l 724 739 q 742 753 733 747 q 767 760 751 760 l 801 760 q 818 753 811 760 q 825 736 825 746 q 815 714 825 725 l 93 -18 q 75 -33 85 -26 q 50 -39 65 -39 l 15 -39 z "},"ǿ":{"ha":821,"x_min":-10,"x_max":825,"o":"m 329 -14 q 153 25 224 -14 q 53 135 83 64 q 39 300 24 206 q 51 361 43 325 q 65 422 58 397 q 142 588 90 518 q 276 697 194 658 q 468 736 357 736 q 644 697 574 736 q 744 588 714 658 q 760 422 775 518 q 747 361 754 397 q 733 300 740 325 q 658 135 708 206 q 526 25 607 64 q 329 -14 444 -14 m 343 124 q 470 170 418 124 q 546 307 522 217 q 558 361 551 328 q 569 415 565 394 q 557 552 585 506 q 454 599 529 599 q 328 552 381 599 q 253 415 275 506 q 240 361 247 394 q 229 307 232 328 q 241 170 214 217 q 343 124 268 124 m 15 -39 q -1 -32 7 -39 q -10 -15 -10 -25 q 3 7 -10 -4 l 724 739 q 742 753 733 747 q 767 760 751 760 l 801 760 q 818 753 811 760 q 825 736 825 746 q 815 714 825 725 l 93 -18 q 75 -33 85 -26 q 50 -39 65 -39 l 15 -39 m 442 826 q 425 849 419 826 q 436 867 428 858 l 579 1004 q 606 1024 596 1019 q 636 1029 617 1029 l 775 1029 q 796 1006 797 1029 q 785 986 794 993 l 582 844 q 557 831 568 835 q 529 826 546 826 l 442 826 z "},"õ":{"ha":821,"x_min":24,"x_max":775,"o":"m 329 -14 q 153 25 224 -14 q 53 135 83 64 q 39 300 24 206 q 51 361 43 325 q 65 422 58 397 q 142 588 90 518 q 276 697 194 658 q 468 736 357 736 q 644 697 574 736 q 744 588 714 658 q 760 422 775 518 q 747 361 754 397 q 733 300 740 325 q 658 135 708 206 q 526 25 607 64 q 329 -14 444 -14 m 343 124 q 470 170 418 124 q 546 307 522 217 q 558 361 551 328 q 569 415 565 394 q 557 552 585 506 q 454 599 529 599 q 328 552 381 599 q 253 415 275 506 q 240 361 247 394 q 229 307 232 328 q 241 170 214 217 q 343 124 268 124 m 586 819 q 528 831 550 819 q 490 856 507 843 q 449 868 472 868 q 421 858 432 868 q 400 837 410 847 q 375 826 390 826 l 311 826 q 296 833 301 826 q 292 850 290 840 q 308 897 296 871 q 339 946 319 922 q 387 984 358 969 q 450 999 415 999 q 509 987 488 999 q 548 963 531 975 q 589 950 565 950 q 617 961 607 950 q 637 983 628 972 q 661 993 646 993 l 725 993 q 741 985 736 993 q 744 968 746 978 q 728 922 740 947 q 697 872 717 896 q 649 834 676 849 q 586 819 621 819 z "},"œ":{"ha":1311,"x_min":46,"x_max":1292,"o":"m 342 -14 q 163 25 231 -14 q 71 135 96 64 q 61 300 46 206 q 73 361 65 325 q 86 422 81 397 q 168 588 111 518 q 309 697 225 658 q 501 736 393 736 q 647 706 589 736 q 735 624 706 675 q 854 706 786 676 q 1003 736 922 736 q 1183 690 1117 736 q 1270 560 1249 643 q 1268 369 1292 478 l 1263 340 q 1247 317 1260 326 q 1221 307 1235 307 l 758 307 l 757 296 q 757 206 749 247 q 794 140 765 165 q 871 115 822 115 q 935 127 907 115 q 982 154 963 139 q 1011 179 1001 169 q 1035 199 1028 196 q 1060 203 1043 203 l 1179 203 q 1199 194 1192 203 q 1203 174 1206 186 q 1169 119 1197 151 q 1094 57 1142 88 q 984 6 1047 26 q 844 -14 921 -14 q 708 15 764 -14 q 621 96 651 44 q 500 15 569 44 q 342 -14 431 -14 m 371 124 q 494 170 444 124 q 568 307 544 217 q 581 361 574 328 q 590 415 588 394 q 576 552 606 506 q 472 599 546 599 q 348 552 399 599 q 274 415 297 506 q 261 361 268 394 q 251 307 254 328 q 267 170 236 217 q 371 124 297 124 m 785 424 l 1092 424 l 1092 428 q 1094 523 1104 482 q 1054 587 1083 564 q 976 610 1025 610 q 888 587 928 610 q 823 523 849 564 q 785 428 797 482 l 785 424 z "},"p":{"ha":850,"x_min":-46,"x_max":799,"o":"m -17 -264 q -38 -254 -31 -264 q -43 -231 -46 -244 l 153 689 q 167 713 156 703 q 192 722 178 722 l 303 722 q 324 713 317 722 q 329 689 332 703 l 317 633 q 412 707 360 678 q 549 736 464 736 q 672 712 621 736 q 751 643 722 688 q 790 538 781 599 q 786 406 799 478 q 778 361 783 382 q 767 315 774 340 q 719 187 750 247 q 645 81 689 126 q 542 11 601 36 q 410 -14 483 -14 q 282 13 332 -14 q 210 85 232 40 l 142 -231 q 128 -254 139 -244 q 101 -264 117 -264 l -17 -264 m 379 135 q 474 160 435 135 q 538 228 513 186 q 579 319 564 271 q 590 361 586 340 q 597 403 594 382 q 599 494 604 453 q 567 562 593 536 q 486 588 542 588 q 385 561 428 588 q 316 494 343 535 q 278 410 289 453 q 265 357 271 385 q 256 303 260 329 q 256 223 249 261 q 294 160 264 185 q 379 135 324 135 z "},"þ":{"ha":850,"x_min":-46,"x_max":799,"o":"m -17 -264 q -38 -254 -31 -264 q -43 -231 -46 -244 l 210 953 q 224 976 213 967 q 249 986 235 986 l 367 986 q 390 977 382 986 q 394 953 397 968 l 326 639 q 413 707 363 678 q 549 736 464 736 q 672 712 621 736 q 751 643 722 688 q 790 538 781 599 q 786 406 799 478 q 778 361 783 382 q 767 315 774 340 q 719 187 750 247 q 645 81 689 126 q 542 11 601 36 q 410 -14 483 -14 q 282 14 332 -14 q 210 85 232 42 l 142 -231 q 128 -254 139 -244 q 101 -264 117 -264 l -17 -264 m 379 135 q 474 160 435 135 q 538 228 513 186 q 579 319 564 271 q 590 361 586 340 q 597 403 594 382 q 599 494 604 453 q 567 562 593 536 q 486 588 542 588 q 385 561 428 588 q 316 494 343 535 q 278 410 289 453 q 265 357 271 385 q 256 303 260 329 q 256 223 249 261 q 294 160 264 185 q 379 135 324 135 z "},"q":{"ha":851,"x_min":31,"x_max":819,"o":"m 463 -264 q 441 -254 449 -264 q 436 -231 433 -244 l 503 85 q 409 13 461 40 q 282 -14 357 -14 q 158 11 210 -14 q 78 80 107 36 q 40 183 49 124 q 42 311 31 242 q 51 361 46 336 q 63 410 57 386 q 134 580 88 507 q 252 694 181 653 q 419 736 324 736 q 553 707 500 736 q 628 633 606 678 l 640 689 q 655 713 643 703 q 681 722 667 722 l 790 722 q 813 713 806 722 q 817 689 819 703 l 622 -231 q 608 -254 619 -244 q 581 -264 596 -264 l 463 -264 m 344 135 q 443 160 401 135 q 513 223 485 185 q 550 303 540 261 q 563 357 557 329 q 572 410 568 385 q 573 494 581 453 q 537 561 565 535 q 451 588 508 588 q 356 562 396 588 q 291 494 317 536 q 250 403 265 453 q 240 361 244 382 q 232 319 235 340 q 229 228 225 269 q 260 160 233 186 q 344 135 288 135 z "},"r":{"ha":582,"x_min":10,"x_max":625,"o":"m 39 0 q 17 10 25 0 q 13 33 10 19 l 151 688 q 166 713 154 703 q 192 722 178 722 l 304 722 q 326 713 318 722 q 331 688 333 703 l 318 631 q 403 699 351 675 q 528 722 454 722 l 596 722 q 618 713 611 722 q 622 689 625 703 l 601 589 q 587 565 599 575 q 561 556 575 556 l 453 556 q 341 519 386 556 q 282 415 296 482 l 200 33 q 186 10 197 19 q 160 0 175 0 l 39 0 z "},"ŕ":{"ha":582,"x_min":10,"x_max":690,"o":"m 39 0 q 17 10 25 0 q 13 33 10 19 l 151 688 q 166 713 154 703 q 192 722 178 722 l 304 722 q 326 713 318 722 q 331 688 333 703 l 318 631 q 403 699 351 675 q 528 722 454 722 l 596 722 q 618 713 611 722 q 622 689 625 703 l 601 589 q 587 565 599 575 q 561 556 575 556 l 453 556 q 341 519 386 556 q 282 415 296 482 l 200 33 q 186 10 197 19 q 160 0 175 0 l 39 0 m 336 826 q 319 849 314 826 q 331 867 322 858 l 474 1004 q 501 1024 490 1019 q 531 1029 511 1029 l 669 1029 q 690 1006 692 1029 q 679 986 689 993 l 476 844 q 451 831 463 835 q 424 826 440 826 l 336 826 z "},"ř":{"ha":582,"x_min":10,"x_max":678,"o":"m 39 0 q 17 10 25 0 q 13 33 10 19 l 151 688 q 166 713 154 703 q 192 722 178 722 l 304 722 q 326 713 318 722 q 331 688 333 703 l 318 631 q 403 699 351 675 q 528 722 454 722 l 596 722 q 618 713 611 722 q 622 689 625 703 l 601 589 q 587 565 599 575 q 561 556 575 556 l 453 556 q 341 519 386 556 q 282 415 296 482 l 200 33 q 186 10 197 19 q 160 0 175 0 l 39 0 m 365 826 q 343 831 353 826 q 322 849 333 835 l 214 992 q 208 1008 208 1000 q 217 1024 210 1018 q 233 1029 224 1029 l 282 1029 q 301 1027 293 1029 q 318 1019 310 1025 l 418 947 l 550 1019 q 570 1027 561 1025 q 589 1029 579 1029 l 660 1029 q 675 1013 678 1029 q 664 993 675 1001 l 493 849 q 465 831 476 835 q 442 826 454 826 l 365 826 z "},"ŗ":{"ha":582,"x_min":-86,"x_max":625,"o":"m 39 0 q 17 10 25 0 q 13 33 10 19 l 151 688 q 166 713 154 703 q 192 722 178 722 l 304 722 q 326 713 318 722 q 331 688 333 703 l 318 631 q 403 699 351 675 q 528 722 454 722 l 596 722 q 618 713 611 722 q 622 689 625 703 l 601 589 q 587 565 599 575 q 561 556 575 556 l 453 556 q 341 519 386 556 q 282 415 296 482 l 200 33 q 186 10 197 19 q 160 0 175 0 l 39 0 m -64 -314 q -81 -306 -76 -314 q -82 -285 -86 -297 l -19 -114 q 1 -83 -12 -96 q 35 -69 14 -69 l 151 -69 q 167 -77 163 -69 q 169 -94 172 -85 q 167 -103 168 -99 q 161 -114 165 -108 l 63 -279 q 42 -303 54 -293 q 10 -314 31 -314 l -64 -314 z "},"s":{"ha":739,"x_min":15,"x_max":715,"o":"m 294 -14 q 156 6 211 -14 q 70 54 101 25 q 27 113 39 83 q 18 161 15 142 q 33 185 21 176 q 57 194 44 194 l 167 194 q 176 193 172 194 q 185 185 181 192 q 217 153 200 169 q 259 124 233 136 q 326 113 285 113 q 422 134 381 113 q 471 196 463 156 q 464 243 476 225 q 413 276 451 261 q 297 307 374 290 q 177 353 222 325 q 116 422 132 381 q 113 519 100 464 q 167 623 124 574 q 281 704 210 672 q 449 736 353 736 q 576 717 524 736 q 659 671 628 699 q 703 615 690 643 q 711 565 715 586 q 698 541 710 550 q 674 532 686 532 l 572 532 q 560 535 565 532 q 551 542 554 538 q 523 572 538 556 q 485 599 508 588 q 421 610 463 610 q 335 587 368 610 q 294 529 303 564 q 299 488 290 506 q 346 456 308 471 q 460 424 383 440 q 598 374 550 407 q 660 299 646 342 q 664 206 675 257 q 603 93 651 143 q 478 15 556 43 q 294 -14 400 -14 z "},"ś":{"ha":739,"x_min":15,"x_max":735,"o":"m 294 -14 q 156 6 211 -14 q 70 54 101 25 q 27 113 39 83 q 18 161 15 142 q 33 185 21 176 q 57 194 44 194 l 167 194 q 176 193 172 194 q 185 185 181 192 q 217 153 200 169 q 259 124 233 136 q 326 113 285 113 q 422 134 381 113 q 471 196 463 156 q 464 243 476 225 q 413 276 451 261 q 297 307 374 290 q 177 353 222 325 q 116 422 132 381 q 113 519 100 464 q 167 623 124 574 q 281 704 210 672 q 449 736 353 736 q 576 717 524 736 q 659 671 628 699 q 703 615 690 643 q 711 565 715 586 q 698 541 710 550 q 674 532 686 532 l 572 532 q 560 535 565 532 q 551 542 554 538 q 523 572 538 556 q 485 599 508 588 q 421 610 463 610 q 335 587 368 610 q 294 529 303 564 q 299 488 290 506 q 346 456 308 471 q 460 424 383 440 q 598 374 550 407 q 660 299 646 342 q 664 206 675 257 q 603 93 651 143 q 478 15 556 43 q 294 -14 400 -14 m 381 826 q 364 849 358 826 q 375 867 367 858 l 518 1004 q 545 1024 535 1019 q 575 1029 556 1029 l 714 1029 q 735 1006 736 1029 q 724 986 733 993 l 521 844 q 496 831 507 835 q 468 826 485 826 l 381 826 z "},"š":{"ha":739,"x_min":15,"x_max":722,"o":"m 294 -14 q 156 6 211 -14 q 70 54 101 25 q 27 113 39 83 q 18 161 15 142 q 33 185 21 176 q 57 194 44 194 l 167 194 q 176 193 172 194 q 185 185 181 192 q 217 153 200 169 q 259 124 233 136 q 326 113 285 113 q 422 134 381 113 q 471 196 463 156 q 464 243 476 225 q 413 276 451 261 q 297 307 374 290 q 177 353 222 325 q 116 422 132 381 q 113 519 100 464 q 167 623 124 574 q 281 704 210 672 q 449 736 353 736 q 576 717 524 736 q 659 671 628 699 q 703 615 690 643 q 711 565 715 586 q 698 541 710 550 q 674 532 686 532 l 572 532 q 560 535 565 532 q 551 542 554 538 q 523 572 538 556 q 485 599 508 588 q 421 610 463 610 q 335 587 368 610 q 294 529 303 564 q 299 488 290 506 q 346 456 308 471 q 460 424 383 440 q 598 374 550 407 q 660 299 646 342 q 664 206 675 257 q 603 93 651 143 q 478 15 556 43 q 294 -14 400 -14 m 410 826 q 388 831 397 826 q 367 849 378 835 l 258 992 q 253 1008 253 1000 q 261 1024 254 1018 q 278 1029 268 1029 l 326 1029 q 346 1027 338 1029 q 363 1019 354 1025 l 463 947 l 594 1019 q 615 1027 606 1025 q 633 1029 624 1029 l 704 1029 q 719 1013 722 1029 q 708 993 719 1001 l 538 849 q 510 831 521 835 q 486 826 499 826 l 410 826 z "},"ş":{"ha":739,"x_min":14,"x_max":715,"o":"m 267 -306 q 201 -292 228 -304 q 165 -262 174 -279 q 171 -235 156 -246 l 199 -214 q 221 -208 213 -203 q 242 -222 229 -212 q 282 -231 254 -231 q 322 -217 304 -231 q 344 -183 340 -204 q 337 -151 349 -164 q 303 -139 325 -139 q 277 -144 290 -139 q 252 -151 264 -149 q 232 -142 240 -153 l 213 -117 q 209 -97 207 -107 q 221 -72 211 -86 l 257 -11 q 107 29 161 -3 q 33 99 53 61 q 18 161 14 138 q 33 185 21 176 q 57 194 44 194 l 163 194 q 173 193 168 194 q 182 185 178 192 q 215 153 199 171 q 258 124 232 136 q 326 113 283 113 q 422 134 381 113 q 471 196 463 156 q 464 243 476 225 q 413 276 451 261 q 297 307 374 290 q 177 353 222 325 q 116 422 132 381 q 113 519 100 464 q 167 623 124 574 q 281 704 210 672 q 449 736 353 736 q 576 717 524 736 q 659 671 628 699 q 703 615 690 643 q 711 565 715 586 q 698 541 710 550 q 674 532 686 532 l 571 532 q 559 535 564 532 q 551 542 554 538 q 523 572 538 556 q 485 599 508 588 q 421 610 463 610 q 335 587 368 610 q 294 529 303 564 q 299 488 290 506 q 346 456 308 471 q 460 424 383 440 q 598 374 550 407 q 660 299 646 342 q 664 206 675 257 q 560 56 646 117 q 335 -14 475 -4 l 303 -69 q 324 -65 311 -67 q 343 -64 336 -64 q 415 -97 392 -64 q 426 -182 438 -131 q 373 -271 415 -235 q 267 -306 331 -307 z "},"ŝ":{"ha":739,"x_min":15,"x_max":715,"o":"m 294 -14 q 156 6 211 -14 q 70 54 101 25 q 27 113 39 83 q 18 161 15 142 q 33 185 21 176 q 57 194 44 194 l 167 194 q 176 193 172 194 q 185 185 181 192 q 217 153 200 169 q 259 124 233 136 q 326 113 285 113 q 422 134 381 113 q 471 196 463 156 q 464 243 476 225 q 413 276 451 261 q 297 307 374 290 q 177 353 222 325 q 116 422 132 381 q 113 519 100 464 q 167 623 124 574 q 281 704 210 672 q 449 736 353 736 q 576 717 524 736 q 659 671 628 699 q 703 615 690 643 q 711 565 715 586 q 698 541 710 550 q 674 532 686 532 l 572 532 q 560 535 565 532 q 551 542 554 538 q 523 572 538 556 q 485 599 508 588 q 421 610 463 610 q 335 587 368 610 q 294 529 303 564 q 299 488 290 506 q 346 456 308 471 q 460 424 383 440 q 598 374 550 407 q 660 299 646 342 q 664 206 675 257 q 603 93 651 143 q 478 15 556 43 q 294 -14 400 -14 m 229 826 q 213 843 211 826 q 225 864 214 854 l 394 1007 q 424 1026 413 1022 q 447 1029 435 1029 l 522 1029 q 545 1026 536 1029 q 565 1007 554 1022 l 674 864 q 678 844 681 856 q 656 826 675 826 l 606 826 q 587 828 596 826 q 569 836 578 831 l 469 910 l 338 836 q 319 828 328 831 q 299 826 310 826 l 229 826 z "},"ș":{"ha":739,"x_min":15,"x_max":715,"o":"m 294 -14 q 156 6 211 -14 q 70 54 101 25 q 27 113 39 83 q 18 161 15 142 q 33 185 21 176 q 57 194 44 194 l 167 194 q 176 193 172 194 q 185 185 181 192 q 217 153 200 169 q 259 124 233 136 q 326 113 285 113 q 422 134 381 113 q 471 196 463 156 q 464 243 476 225 q 413 276 451 261 q 297 307 374 290 q 177 353 222 325 q 116 422 132 381 q 113 519 100 464 q 167 623 124 574 q 281 704 210 672 q 449 736 353 736 q 576 717 524 736 q 659 671 628 699 q 703 615 690 643 q 711 565 715 586 q 698 541 710 550 q 674 532 686 532 l 572 532 q 560 535 565 532 q 551 542 554 538 q 523 572 538 556 q 485 599 508 588 q 421 610 463 610 q 335 587 368 610 q 294 529 303 564 q 299 488 290 506 q 346 456 308 471 q 460 424 383 440 q 598 374 550 407 q 660 299 646 342 q 664 206 675 257 q 603 93 651 143 q 478 15 556 43 q 294 -14 400 -14 m 142 -314 q 124 -306 129 -314 q 124 -285 119 -297 l 186 -114 q 206 -83 193 -96 q 240 -69 219 -69 l 357 -69 q 373 -77 368 -69 q 375 -94 378 -85 q 372 -103 374 -99 q 367 -114 371 -108 l 268 -279 q 248 -303 260 -293 q 215 -314 236 -314 l 142 -314 z "},"ß":{"ha":853,"x_min":29,"x_max":853,"o":"m 58 0 q 37 10 44 0 q 32 33 29 19 l 168 669 q 235 827 186 756 q 367 942 285 899 q 568 986 450 986 q 750 946 686 986 q 833 845 814 906 q 839 718 853 785 q 805 630 828 668 q 751 565 782 592 q 690 522 721 539 q 765 468 740 503 q 796 388 790 433 q 789 289 801 342 q 748 188 778 239 q 669 94 718 138 q 550 26 619 51 q 390 0 481 0 l 310 0 q 285 10 292 0 q 281 33 278 19 l 296 110 q 311 133 299 124 q 340 143 324 143 l 394 143 q 533 187 479 143 q 600 294 588 231 q 580 403 615 360 q 457 447 544 447 l 403 447 q 378 457 385 447 q 375 481 372 467 l 390 547 q 402 572 393 563 q 431 581 411 581 l 478 581 q 603 616 556 582 q 661 711 650 650 q 641 806 675 768 q 538 843 607 843 q 418 801 468 843 q 349 669 368 758 l 214 33 q 199 10 211 19 q 172 0 188 0 l 58 0 z "},"ſ":{"ha":440,"x_min":60,"x_max":693,"o":"m 113 0 q 91 10 99 0 q 86 33 83 19 l 201 575 l 89 575 q 67 585 75 575 q 63 610 60 594 l 79 689 q 94 713 82 703 q 119 722 106 722 l 232 722 l 244 779 q 303 917 263 863 q 407 1000 344 972 q 553 1028 469 1028 l 664 1028 q 686 1018 679 1028 q 690 994 693 1008 l 674 915 q 659 890 671 900 q 633 881 647 881 l 550 881 q 464 853 494 881 q 422 772 433 825 l 265 33 q 251 10 263 19 q 226 0 240 0 l 113 0 z "},"t":{"ha":588,"x_min":56,"x_max":607,"o":"m 339 0 q 192 29 244 0 q 124 116 139 58 q 126 260 108 174 l 194 575 l 85 575 q 63 585 71 575 q 58 610 56 594 l 75 689 q 90 713 78 703 q 117 722 101 722 l 225 722 l 275 953 q 289 976 278 967 q 314 986 300 986 l 426 986 q 449 976 442 986 q 454 953 457 967 l 404 722 l 578 722 q 599 713 592 722 q 604 689 607 703 l 588 610 q 573 585 585 594 q 547 575 561 575 l 374 575 l 310 274 q 301 209 301 236 q 315 167 300 182 q 369 153 331 153 l 469 153 q 492 143 485 153 q 496 119 499 133 l 478 33 q 464 10 475 19 q 438 0 453 0 l 339 0 z "},"ŧ":{"ha":596,"x_min":25,"x_max":613,"o":"m 340 0 q 194 29 246 0 q 128 116 142 58 q 132 260 115 174 l 163 400 l 54 400 q 32 410 39 400 q 28 433 25 419 l 36 474 q 50 498 39 489 q 76 507 61 507 l 185 507 l 208 615 l 100 615 q 78 625 86 615 q 72 649 71 635 l 82 689 q 97 713 85 703 q 122 722 108 722 l 231 722 l 281 953 q 294 976 283 967 q 319 986 306 986 l 433 986 q 455 976 447 986 q 460 953 463 967 l 411 722 l 583 722 q 606 713 599 722 q 610 689 613 703 l 601 649 q 588 625 599 635 q 561 615 576 615 l 389 615 l 364 507 l 538 507 q 560 498 553 507 q 564 474 568 489 l 557 433 q 542 410 553 419 q 515 400 531 400 l 342 400 l 315 274 q 308 209 308 236 q 322 167 307 182 q 375 153 336 153 l 476 153 q 497 143 490 153 q 501 119 504 133 l 483 33 q 469 10 481 19 q 444 0 458 0 l 340 0 z "},"ť":{"ha":588,"x_min":56,"x_max":800,"o":"m 339 0 q 192 29 244 0 q 124 116 139 58 q 126 260 108 174 l 194 575 l 85 575 q 63 585 71 575 q 58 610 56 594 l 75 689 q 90 713 78 703 q 117 722 101 722 l 225 722 l 275 953 q 289 976 278 967 q 314 986 300 986 l 426 986 q 449 976 442 986 q 454 953 457 967 l 404 722 l 578 722 q 599 713 592 722 q 604 689 607 703 l 588 610 q 573 585 585 594 q 547 575 561 575 l 374 575 l 310 274 q 301 209 301 236 q 315 167 300 182 q 369 153 331 153 l 469 153 q 492 143 485 153 q 496 119 499 133 l 478 33 q 464 10 475 19 q 438 0 453 0 l 339 0 m 564 847 q 547 856 551 847 q 546 876 542 864 l 608 1047 q 628 1078 615 1065 q 663 1092 642 1092 l 779 1092 q 794 1084 789 1092 q 797 1067 800 1076 q 794 1058 796 1063 q 789 1047 793 1053 l 690 882 q 670 858 682 868 q 638 847 658 847 l 564 847 z "},"ț":{"ha":588,"x_min":56,"x_max":607,"o":"m 339 0 q 192 29 244 0 q 124 116 139 58 q 126 260 108 174 l 194 575 l 85 575 q 63 585 71 575 q 58 610 56 594 l 75 689 q 90 713 78 703 q 117 722 101 722 l 225 722 l 275 953 q 289 976 278 967 q 314 986 300 986 l 426 986 q 449 976 442 986 q 454 953 457 967 l 404 722 l 578 722 q 599 713 592 722 q 604 689 607 703 l 588 610 q 573 585 585 594 q 547 575 561 575 l 374 575 l 310 274 q 301 209 301 236 q 315 167 300 182 q 369 153 331 153 l 469 153 q 492 143 485 153 q 496 119 499 133 l 478 33 q 464 10 475 19 q 438 0 453 0 l 339 0 m 111 -314 q 94 -306 99 -314 q 93 -285 89 -297 l 156 -114 q 176 -83 163 -96 q 210 -69 189 -69 l 326 -69 q 342 -77 338 -69 q 344 -94 347 -85 q 342 -103 343 -99 q 336 -114 340 -108 l 238 -279 q 217 -303 229 -293 q 185 -314 206 -314 l 111 -314 z "},"u":{"ha":863,"x_min":42,"x_max":832,"o":"m 283 -14 q 136 24 193 -14 q 60 133 79 63 q 61 299 42 203 l 144 689 q 159 713 147 703 q 185 722 171 722 l 307 722 q 328 713 321 722 q 332 689 335 703 l 251 307 q 244 212 239 250 q 275 154 249 174 q 357 135 301 135 q 488 181 432 135 q 560 307 543 226 l 642 689 q 656 713 644 703 q 682 722 668 722 l 803 722 q 825 713 818 722 q 829 689 832 703 l 690 33 q 676 10 688 19 q 650 0 665 0 l 538 0 q 516 10 524 0 q 511 33 508 19 l 522 90 q 460 35 492 58 q 386 -1 428 11 q 283 -14 344 -14 z "},"ú":{"ha":863,"x_min":42,"x_max":832,"o":"m 283 -14 q 136 24 193 -14 q 60 133 79 63 q 61 299 42 203 l 144 689 q 159 713 147 703 q 185 722 171 722 l 307 722 q 328 713 321 722 q 332 689 335 703 l 251 307 q 244 212 239 250 q 275 154 249 174 q 357 135 301 135 q 488 181 432 135 q 560 307 543 226 l 642 689 q 656 713 644 703 q 682 722 668 722 l 803 722 q 825 713 818 722 q 829 689 832 703 l 690 33 q 676 10 688 19 q 650 0 665 0 l 538 0 q 516 10 524 0 q 511 33 508 19 l 522 90 q 460 35 492 58 q 386 -1 428 11 q 283 -14 344 -14 m 436 826 q 419 849 414 826 q 431 867 422 858 l 574 1004 q 601 1024 590 1019 q 631 1029 611 1029 l 769 1029 q 790 1006 792 1029 q 779 986 789 993 l 576 844 q 551 831 563 835 q 524 826 540 826 l 436 826 z "},"ŭ":{"ha":863,"x_min":42,"x_max":832,"o":"m 283 -14 q 136 24 193 -14 q 60 133 79 63 q 61 299 42 203 l 144 689 q 159 713 147 703 q 185 722 171 722 l 307 722 q 328 713 321 722 q 332 689 335 703 l 251 307 q 244 212 239 250 q 275 154 249 174 q 357 135 301 135 q 488 181 432 135 q 560 307 543 226 l 642 689 q 656 713 644 703 q 682 722 668 722 l 803 722 q 825 713 818 722 q 829 689 832 703 l 690 33 q 676 10 688 19 q 650 0 665 0 l 538 0 q 516 10 524 0 q 511 33 508 19 l 522 90 q 460 35 492 58 q 386 -1 428 11 q 283 -14 344 -14 m 514 819 q 413 845 453 819 q 359 913 374 871 q 354 1003 344 954 q 365 1022 357 1014 q 386 1029 374 1029 l 451 1029 q 469 1022 464 1029 q 472 1003 475 1014 q 474 944 467 971 q 522 918 482 918 q 584 944 564 918 q 611 1003 604 971 q 622 1022 614 1014 q 643 1029 631 1029 l 708 1029 q 726 1022 721 1029 q 729 1003 732 1014 q 696 913 719 954 q 628 845 672 871 q 514 819 585 819 z "},"û":{"ha":863,"x_min":42,"x_max":832,"o":"m 283 -14 q 136 24 193 -14 q 60 133 79 63 q 61 299 42 203 l 144 689 q 159 713 147 703 q 185 722 171 722 l 307 722 q 328 713 321 722 q 332 689 335 703 l 251 307 q 244 212 239 250 q 275 154 249 174 q 357 135 301 135 q 488 181 432 135 q 560 307 543 226 l 642 689 q 656 713 644 703 q 682 722 668 722 l 803 722 q 825 713 818 722 q 829 689 832 703 l 690 33 q 676 10 688 19 q 650 0 665 0 l 538 0 q 516 10 524 0 q 511 33 508 19 l 522 90 q 460 35 492 58 q 386 -1 428 11 q 283 -14 344 -14 m 285 826 q 268 843 267 826 q 281 864 269 854 l 450 1007 q 479 1026 468 1022 q 503 1029 490 1029 l 578 1029 q 601 1026 592 1029 q 621 1007 610 1022 l 729 864 q 733 844 736 856 q 711 826 731 826 l 661 826 q 642 828 651 826 q 625 836 633 831 l 525 910 l 393 836 q 374 828 383 831 q 354 826 365 826 l 285 826 z "},"ü":{"ha":863,"x_min":42,"x_max":832,"o":"m 283 -14 q 136 24 193 -14 q 60 133 79 63 q 61 299 42 203 l 144 689 q 159 713 147 703 q 185 722 171 722 l 307 722 q 328 713 321 722 q 332 689 335 703 l 251 307 q 244 212 239 250 q 275 154 249 174 q 357 135 301 135 q 488 181 432 135 q 560 307 543 226 l 642 689 q 656 713 644 703 q 682 722 668 722 l 803 722 q 825 713 818 722 q 829 689 832 703 l 690 33 q 676 10 688 19 q 650 0 665 0 l 538 0 q 516 10 524 0 q 511 33 508 19 l 522 90 q 460 35 492 58 q 386 -1 428 11 q 283 -14 344 -14 m 589 853 q 569 861 575 853 q 564 883 563 869 l 586 985 q 599 1008 589 999 q 624 1017 610 1017 l 725 1017 q 746 1008 739 1017 q 750 985 753 999 l 728 883 q 715 861 725 869 q 690 853 704 853 l 589 853 m 328 853 q 308 861 314 853 q 303 883 301 869 l 325 985 q 338 1008 328 999 q 363 1017 349 1017 l 464 1017 q 485 1008 478 1017 q 489 985 492 999 l 467 883 q 453 861 464 869 q 429 853 443 853 l 328 853 z "},"ù":{"ha":863,"x_min":42,"x_max":832,"o":"m 283 -14 q 136 24 193 -14 q 60 133 79 63 q 61 299 42 203 l 144 689 q 159 713 147 703 q 185 722 171 722 l 307 722 q 328 713 321 722 q 332 689 335 703 l 251 307 q 244 212 239 250 q 275 154 249 174 q 357 135 301 135 q 488 181 432 135 q 560 307 543 226 l 642 689 q 656 713 644 703 q 682 722 668 722 l 803 722 q 825 713 818 722 q 829 689 832 703 l 690 33 q 676 10 688 19 q 650 0 665 0 l 538 0 q 516 10 524 0 q 511 33 508 19 l 522 90 q 460 35 492 58 q 386 -1 428 11 q 283 -14 344 -14 m 479 826 q 452 831 461 826 q 433 844 443 835 l 293 983 q 288 1003 285 992 q 318 1029 293 1029 l 464 1029 q 491 1024 482 1029 q 510 1004 500 1019 l 593 868 q 596 847 599 858 q 569 826 592 826 l 479 826 z "},"ű":{"ha":863,"x_min":42,"x_max":863,"o":"m 283 -14 q 136 24 193 -14 q 60 133 79 63 q 61 299 42 203 l 144 689 q 159 713 147 703 q 185 722 171 722 l 307 722 q 328 713 321 722 q 332 689 335 703 l 251 307 q 244 212 239 250 q 275 154 249 174 q 357 135 301 135 q 488 181 432 135 q 560 307 543 226 l 642 689 q 656 713 644 703 q 682 722 668 722 l 803 722 q 825 713 818 722 q 829 689 832 703 l 690 33 q 676 10 688 19 q 650 0 665 0 l 538 0 q 516 10 524 0 q 511 33 508 19 l 522 90 q 460 35 492 58 q 386 -1 428 11 q 283 -14 344 -14 m 586 826 q 567 844 565 826 q 571 854 568 849 q 576 864 574 860 l 668 1003 q 690 1023 678 1017 q 725 1029 703 1029 l 838 1029 q 860 1007 863 1029 q 849 986 860 996 l 694 846 q 647 826 672 826 l 586 826 m 324 826 q 304 844 303 826 q 308 854 306 849 q 314 864 311 860 l 407 1003 q 428 1023 415 1017 q 464 1029 442 1029 l 575 1029 q 597 1007 600 1029 q 586 986 597 996 l 432 846 q 385 826 410 826 l 324 826 z "},"ū":{"ha":863,"x_min":42,"x_max":832,"o":"m 283 -14 q 136 24 193 -14 q 60 133 79 63 q 61 299 42 203 l 144 689 q 159 713 147 703 q 185 722 171 722 l 307 722 q 328 713 321 722 q 332 689 335 703 l 251 307 q 244 212 239 250 q 275 154 249 174 q 357 135 301 135 q 488 181 432 135 q 560 307 543 226 l 642 689 q 656 713 644 703 q 682 722 668 722 l 803 722 q 825 713 818 722 q 829 689 832 703 l 690 33 q 676 10 688 19 q 650 0 665 0 l 538 0 q 516 10 524 0 q 511 33 508 19 l 522 90 q 460 35 492 58 q 386 -1 428 11 q 283 -14 344 -14 m 333 849 q 313 857 319 849 q 308 879 307 865 l 324 950 q 337 972 326 964 q 361 981 347 981 l 710 981 q 731 972 724 981 q 735 950 738 964 l 719 879 q 706 857 717 865 q 682 849 696 849 l 333 849 z "},"ų":{"ha":863,"x_min":61,"x_max":851,"o":"m 589 -306 q 493 -280 531 -306 q 443 -208 456 -254 q 443 -101 431 -162 q 467 -45 450 -71 q 503 -1 483 -19 q 542 29 524 18 q 535 38 538 32 q 533 51 533 43 l 543 90 q 435 14 497 42 q 289 -14 372 -14 q 151 24 204 -14 q 79 133 97 63 q 81 299 61 203 l 164 689 q 178 713 167 703 q 204 722 190 722 l 326 722 q 349 713 342 722 q 353 689 356 703 l 272 307 q 385 135 235 135 q 510 181 457 135 q 581 307 563 226 l 661 689 q 676 713 664 703 q 701 722 688 722 l 824 722 q 844 713 838 722 q 849 689 851 703 l 710 33 q 699 13 708 22 q 674 0 689 4 l 663 -1 q 596 -40 619 -14 q 564 -101 572 -65 q 568 -166 554 -142 q 619 -190 582 -190 l 629 -190 q 651 -199 643 -190 q 656 -224 658 -208 l 644 -272 q 630 -296 642 -286 q 604 -306 618 -306 l 589 -306 z "},"ů":{"ha":863,"x_min":42,"x_max":832,"o":"m 283 -14 q 136 24 193 -14 q 60 133 79 63 q 61 299 42 203 l 144 689 q 159 713 147 703 q 185 722 171 722 l 307 722 q 328 713 321 722 q 332 689 335 703 l 251 307 q 244 212 239 250 q 275 154 249 174 q 357 135 301 135 q 488 181 432 135 q 560 307 543 226 l 642 689 q 656 713 644 703 q 682 722 668 722 l 803 722 q 825 713 818 722 q 829 689 832 703 l 690 33 q 676 10 688 19 q 650 0 665 0 l 538 0 q 516 10 524 0 q 511 33 508 19 l 522 90 q 460 35 492 58 q 386 -1 428 11 q 283 -14 344 -14 m 501 819 q 421 852 451 819 q 401 935 390 885 q 454 1017 413 985 q 546 1050 496 1050 q 626 1017 596 1050 q 646 935 657 985 q 593 851 635 883 q 501 819 551 819 m 513 893 q 547 905 532 893 q 565 935 561 917 q 561 965 569 953 q 535 976 553 976 q 501 965 515 976 q 482 935 486 953 q 486 905 478 917 q 513 893 494 893 z "},"ũ":{"ha":863,"x_min":42,"x_max":832,"o":"m 283 -14 q 136 24 193 -14 q 60 133 79 63 q 61 299 42 203 l 144 689 q 159 713 147 703 q 185 722 171 722 l 307 722 q 328 713 321 722 q 332 689 335 703 l 251 307 q 244 212 239 250 q 275 154 249 174 q 357 135 301 135 q 488 181 432 135 q 560 307 543 226 l 642 689 q 656 713 644 703 q 682 722 668 722 l 803 722 q 825 713 818 722 q 829 689 832 703 l 690 33 q 676 10 688 19 q 650 0 665 0 l 538 0 q 516 10 524 0 q 511 33 508 19 l 522 90 q 460 35 492 58 q 386 -1 428 11 q 283 -14 344 -14 m 594 819 q 537 831 558 819 q 498 856 515 843 q 457 868 481 868 q 429 858 440 868 q 408 837 418 847 q 383 826 399 826 l 319 826 q 304 833 310 826 q 300 850 299 840 q 316 897 304 871 q 347 946 328 922 q 395 984 367 969 q 458 999 424 999 q 517 987 496 999 q 556 963 539 975 q 597 950 574 950 q 626 961 615 950 q 645 983 636 972 q 669 993 654 993 l 733 993 q 749 985 744 993 q 753 968 754 978 q 737 922 749 947 q 705 872 725 896 q 657 834 685 849 q 594 819 629 819 z "},"v":{"ha":796,"x_min":90,"x_max":826,"o":"m 257 0 q 228 10 236 0 q 217 35 219 21 l 93 685 q 100 713 90 703 q 126 722 110 722 l 232 722 q 256 714 247 722 q 267 690 264 706 l 346 208 l 635 696 q 649 713 639 704 q 676 722 660 722 l 797 722 q 820 710 814 722 q 815 679 826 697 l 419 35 q 398 10 410 21 q 365 0 386 0 l 257 0 z "},"w":{"ha":1140,"x_min":97,"x_max":1160,"o":"m 199 0 q 171 10 179 0 q 161 35 163 19 l 99 685 q 107 711 97 700 q 135 722 117 722 l 232 722 q 256 715 249 722 q 265 696 264 707 l 306 236 l 544 692 q 561 712 550 701 q 590 722 572 722 l 663 722 q 689 712 682 722 q 697 692 696 701 l 747 236 l 981 696 q 994 713 985 704 q 1021 722 1004 722 l 1133 722 q 1156 710 1153 722 q 1153 682 1160 697 l 818 35 q 798 10 810 19 q 767 0 786 0 l 675 0 q 647 10 656 0 q 635 35 638 19 l 578 474 l 342 35 q 321 10 333 19 q 289 0 308 0 l 199 0 z "},"ẃ":{"ha":1140,"x_min":97,"x_max":1160,"o":"m 199 0 q 171 10 179 0 q 161 35 163 19 l 99 685 q 107 711 97 700 q 135 722 117 722 l 232 722 q 256 715 249 722 q 265 696 264 707 l 306 236 l 544 692 q 561 712 550 701 q 590 722 572 722 l 663 722 q 689 712 682 722 q 697 692 696 701 l 747 236 l 981 696 q 994 713 985 704 q 1021 722 1004 722 l 1133 722 q 1156 710 1153 722 q 1153 682 1160 697 l 818 35 q 798 10 810 19 q 767 0 786 0 l 675 0 q 647 10 656 0 q 635 35 638 19 l 578 474 l 342 35 q 321 10 333 19 q 289 0 308 0 l 199 0 m 575 826 q 558 849 553 826 q 569 867 561 858 l 713 1004 q 740 1024 729 1019 q 769 1029 750 1029 l 908 1029 q 929 1006 931 1029 q 918 986 928 993 l 715 844 q 690 831 701 835 q 663 826 679 826 l 575 826 z "},"ŵ":{"ha":1140,"x_min":97,"x_max":1160,"o":"m 199 0 q 171 10 179 0 q 161 35 163 19 l 99 685 q 107 711 97 700 q 135 722 117 722 l 232 722 q 256 715 249 722 q 265 696 264 707 l 306 236 l 544 692 q 561 712 550 701 q 590 722 572 722 l 663 722 q 689 712 682 722 q 697 692 696 701 l 747 236 l 981 696 q 994 713 985 704 q 1021 722 1004 722 l 1133 722 q 1156 710 1153 722 q 1153 682 1160 697 l 818 35 q 798 10 810 19 q 767 0 786 0 l 675 0 q 647 10 656 0 q 635 35 638 19 l 578 474 l 342 35 q 321 10 333 19 q 289 0 308 0 l 199 0 m 424 826 q 407 843 406 826 q 419 864 408 854 l 589 1007 q 618 1026 607 1022 q 642 1029 629 1029 l 717 1029 q 740 1026 731 1029 q 760 1007 749 1022 l 868 864 q 872 844 875 856 q 850 826 869 826 l 800 826 q 781 828 790 826 q 764 836 772 831 l 664 910 l 532 836 q 513 828 522 831 q 493 826 504 826 l 424 826 z "},"ẅ":{"ha":1140,"x_min":97,"x_max":1160,"o":"m 199 0 q 171 10 179 0 q 161 35 163 19 l 99 685 q 107 711 97 700 q 135 722 117 722 l 232 722 q 256 715 249 722 q 265 696 264 707 l 306 236 l 544 692 q 561 712 550 701 q 590 722 572 722 l 663 722 q 689 712 682 722 q 697 692 696 701 l 747 236 l 981 696 q 994 713 985 704 q 1021 722 1004 722 l 1133 722 q 1156 710 1153 722 q 1153 682 1160 697 l 818 35 q 798 10 810 19 q 767 0 786 0 l 675 0 q 647 10 656 0 q 635 35 638 19 l 578 474 l 342 35 q 321 10 333 19 q 289 0 308 0 l 199 0 m 726 853 q 706 861 713 853 q 701 883 700 869 l 724 985 q 737 1008 726 999 q 761 1017 747 1017 l 863 1017 q 883 1008 876 1017 q 888 985 890 999 l 865 883 q 852 861 863 869 q 828 853 842 853 l 726 853 m 465 853 q 445 861 451 853 q 440 883 439 869 l 463 985 q 476 1008 465 999 q 500 1017 486 1017 l 601 1017 q 622 1008 615 1017 q 626 985 629 999 l 604 883 q 591 861 601 869 q 567 853 581 853 l 465 853 z "},"ẁ":{"ha":1140,"x_min":97,"x_max":1160,"o":"m 199 0 q 171 10 179 0 q 161 35 163 19 l 99 685 q 107 711 97 700 q 135 722 117 722 l 232 722 q 256 715 249 722 q 265 696 264 707 l 306 236 l 544 692 q 561 712 550 701 q 590 722 572 722 l 663 722 q 689 712 682 722 q 697 692 696 701 l 747 236 l 981 696 q 994 713 985 704 q 1021 722 1004 722 l 1133 722 q 1156 710 1153 722 q 1153 682 1160 697 l 818 35 q 798 10 810 19 q 767 0 786 0 l 675 0 q 647 10 656 0 q 635 35 638 19 l 578 474 l 342 35 q 321 10 333 19 q 289 0 308 0 l 199 0 m 617 826 q 590 831 599 826 q 571 844 581 835 l 431 983 q 425 1003 422 992 q 456 1029 431 1029 l 601 1029 q 628 1024 619 1029 q 647 1004 638 1019 l 731 868 q 733 847 736 858 q 707 826 729 826 l 617 826 z "},"x":{"ha":782,"x_min":-56,"x_max":811,"o":"m -24 0 q -49 17 -43 0 q -42 49 -56 35 l 269 375 l 111 676 q 113 706 104 690 q 140 722 122 722 l 256 722 q 280 714 272 722 q 290 699 288 706 l 404 489 l 610 699 q 626 714 617 706 q 657 722 636 722 l 779 722 q 804 706 797 724 q 796 672 811 688 l 496 357 l 657 46 q 658 15 665 31 q 629 0 650 0 l 511 0 q 487 8 494 0 q 475 22 479 15 l 358 239 l 149 22 q 133 8 143 17 q 103 0 124 0 l -24 0 z "},"y":{"ha":806,"x_min":50,"x_max":842,"o":"m 78 -264 q 56 -250 61 -264 q 61 -219 50 -236 l 231 47 l 96 683 q 101 710 93 699 q 131 722 110 722 l 235 722 q 258 715 251 722 q 267 696 265 707 l 360 240 l 649 696 q 666 715 656 707 q 693 722 676 722 l 813 722 q 834 710 826 722 q 832 681 842 699 l 239 -237 q 222 -256 232 -249 q 194 -264 211 -264 l 78 -264 z "},"ý":{"ha":806,"x_min":50,"x_max":842,"o":"m 78 -264 q 56 -250 61 -264 q 61 -219 50 -236 l 231 47 l 96 683 q 101 710 93 699 q 131 722 110 722 l 235 722 q 258 715 251 722 q 267 696 265 707 l 360 240 l 649 696 q 666 715 656 707 q 693 722 676 722 l 813 722 q 834 710 826 722 q 832 681 842 699 l 239 -237 q 222 -256 232 -249 q 194 -264 211 -264 l 78 -264 m 422 826 q 406 849 400 826 q 417 867 408 858 l 560 1004 q 587 1024 576 1019 q 617 1029 597 1029 l 756 1029 q 776 1006 778 1029 q 765 986 775 993 l 563 844 q 538 831 549 835 q 510 826 526 826 l 422 826 z "},"ŷ":{"ha":806,"x_min":50,"x_max":842,"o":"m 78 -264 q 56 -250 61 -264 q 61 -219 50 -236 l 231 47 l 96 683 q 101 710 93 699 q 131 722 110 722 l 235 722 q 258 715 251 722 q 267 696 265 707 l 360 240 l 649 696 q 666 715 656 707 q 693 722 676 722 l 813 722 q 834 710 826 722 q 832 681 842 699 l 239 -237 q 222 -256 232 -249 q 194 -264 211 -264 l 78 -264 m 271 826 q 254 843 253 826 q 267 864 256 854 l 436 1007 q 465 1026 454 1022 q 489 1029 476 1029 l 564 1029 q 587 1026 578 1029 q 607 1007 596 1022 l 715 864 q 719 844 722 856 q 697 826 717 826 l 647 826 q 628 828 638 826 q 611 836 619 831 l 511 910 l 379 836 q 360 828 369 831 q 340 826 351 826 l 271 826 z "},"ÿ":{"ha":806,"x_min":50,"x_max":842,"o":"m 78 -264 q 56 -250 61 -264 q 61 -219 50 -236 l 231 47 l 96 683 q 101 710 93 699 q 131 722 110 722 l 235 722 q 258 715 251 722 q 267 696 265 707 l 360 240 l 649 696 q 666 715 656 707 q 693 722 676 722 l 813 722 q 834 710 826 722 q 832 681 842 699 l 239 -237 q 222 -256 232 -249 q 194 -264 211 -264 l 78 -264 m 574 853 q 553 861 560 853 q 549 883 547 869 l 571 985 q 584 1008 574 999 q 608 1017 594 1017 l 710 1017 q 731 1008 724 1017 q 735 985 738 999 l 713 883 q 699 861 710 869 q 675 853 689 853 l 574 853 m 313 853 q 292 861 299 853 q 288 883 286 869 l 310 985 q 323 1008 313 999 q 347 1017 333 1017 l 449 1017 q 469 1008 463 1017 q 474 985 476 999 l 451 883 q 438 861 449 869 q 414 853 428 853 l 313 853 z "},"ỳ":{"ha":806,"x_min":50,"x_max":842,"o":"m 78 -264 q 56 -250 61 -264 q 61 -219 50 -236 l 231 47 l 96 683 q 101 710 93 699 q 131 722 110 722 l 235 722 q 258 715 251 722 q 267 696 265 707 l 360 240 l 649 696 q 666 715 656 707 q 693 722 676 722 l 813 722 q 834 710 826 722 q 832 681 842 699 l 239 -237 q 222 -256 232 -249 q 194 -264 211 -264 l 78 -264 m 464 826 q 437 831 446 826 q 418 844 428 835 l 278 983 q 272 1003 269 992 q 303 1029 278 1029 l 449 1029 q 476 1024 467 1029 q 494 1004 485 1019 l 578 868 q 581 847 583 858 q 554 826 576 826 l 464 826 z "},"z":{"ha":735,"x_min":-29,"x_max":721,"o":"m 0 0 q -22 10 -14 0 q -26 33 -29 19 l -10 113 q -2 133 -7 125 q 11 147 3 142 l 458 578 l 135 578 q 113 587 121 578 q 108 611 106 596 l 125 689 q 140 713 128 703 q 165 722 151 722 l 692 722 q 714 713 707 722 q 718 689 721 703 l 701 604 q 681 572 697 586 l 239 144 l 597 144 q 619 135 613 144 q 624 111 626 126 l 607 33 q 593 10 604 19 q 568 0 582 0 l 0 0 z "},"ź":{"ha":735,"x_min":-29,"x_max":747,"o":"m 0 0 q -22 10 -14 0 q -26 33 -29 19 l -10 113 q -2 133 -7 125 q 11 147 3 142 l 458 578 l 135 578 q 113 587 121 578 q 108 611 106 596 l 125 689 q 140 713 128 703 q 165 722 151 722 l 692 722 q 714 713 707 722 q 718 689 721 703 l 701 604 q 681 572 697 586 l 239 144 l 597 144 q 619 135 613 144 q 624 111 626 126 l 607 33 q 593 10 604 19 q 568 0 582 0 l 0 0 m 392 826 q 375 849 369 826 q 386 867 378 858 l 529 1004 q 556 1024 546 1019 q 586 1029 567 1029 l 725 1029 q 746 1006 747 1029 q 735 986 744 993 l 532 844 q 507 831 518 835 q 479 826 496 826 l 392 826 z "},"ž":{"ha":735,"x_min":-29,"x_max":735,"o":"m 0 0 q -22 10 -14 0 q -26 33 -29 19 l -10 113 q -2 133 -7 125 q 11 147 3 142 l 458 578 l 135 578 q 113 587 121 578 q 108 611 106 596 l 125 689 q 140 713 128 703 q 165 722 151 722 l 692 722 q 714 713 707 722 q 718 689 721 703 l 701 604 q 681 572 697 586 l 239 144 l 597 144 q 619 135 613 144 q 624 111 626 126 l 607 33 q 593 10 604 19 q 568 0 582 0 l 0 0 m 422 826 q 400 831 410 826 q 379 849 390 835 l 271 992 q 265 1008 265 1000 q 274 1024 267 1018 q 290 1029 281 1029 l 339 1029 q 358 1027 350 1029 q 375 1019 367 1025 l 475 947 l 607 1019 q 627 1027 618 1025 q 646 1029 636 1029 l 717 1029 q 732 1013 735 1029 q 721 993 732 1001 l 550 849 q 522 831 533 835 q 499 826 511 826 l 422 826 z "},"ż":{"ha":735,"x_min":-29,"x_max":721,"o":"m 0 0 q -22 10 -14 0 q -26 33 -29 19 l -10 113 q -2 133 -7 125 q 11 147 3 142 l 458 578 l 135 578 q 113 587 121 578 q 108 611 106 596 l 125 689 q 140 713 128 703 q 165 722 151 722 l 692 722 q 714 713 707 722 q 718 689 721 703 l 701 604 q 681 572 697 586 l 239 144 l 597 144 q 619 135 613 144 q 624 111 626 126 l 607 33 q 593 10 604 19 q 568 0 582 0 l 0 0 m 403 844 q 382 853 389 844 q 378 875 375 861 l 403 989 q 416 1012 406 1003 q 440 1021 426 1021 l 553 1021 q 574 1012 567 1021 q 579 989 582 1003 l 554 875 q 541 853 551 861 q 517 844 531 844 l 403 844 z "},"ﬁ":{"ha":850,"x_min":61,"x_max":883,"o":"m 115 0 q 92 10 100 0 q 88 33 85 19 l 203 575 l 90 575 q 69 585 76 575 q 64 610 61 594 l 81 689 q 95 713 83 703 q 122 722 107 722 l 235 722 l 246 779 q 306 917 265 863 q 408 1000 346 972 q 554 1028 471 1028 l 856 1028 q 876 1018 869 1028 q 881 994 883 1008 l 864 915 q 849 890 861 900 q 824 881 838 881 l 551 881 q 465 853 496 881 q 425 772 435 825 l 414 722 l 790 722 q 811 713 804 722 q 815 689 818 703 l 676 33 q 663 10 674 19 q 638 0 651 0 l 524 0 q 502 10 510 0 q 497 33 494 19 l 611 575 l 383 575 l 267 33 q 253 10 264 19 q 228 0 242 0 l 115 0 z "},"ﬂ":{"ha":907,"x_min":63,"x_max":939,"o":"m 115 0 q 92 10 100 0 q 88 33 85 19 l 203 575 l 92 575 q 69 585 76 575 q 65 610 63 594 l 82 689 q 97 713 85 703 q 122 722 108 722 l 235 722 l 246 779 q 306 917 265 863 q 408 1000 346 972 q 554 1028 471 1028 l 654 1028 q 676 1018 669 1028 q 681 994 683 1008 l 664 915 q 649 890 661 900 q 624 881 638 881 l 551 881 q 465 853 496 881 q 425 772 435 825 l 414 722 l 699 722 l 757 994 q 771 1018 760 1008 q 796 1028 782 1028 l 910 1028 q 931 1018 924 1028 q 936 994 939 1008 l 732 33 q 718 10 729 19 q 693 0 707 0 l 579 0 q 558 10 565 0 q 553 33 550 19 l 667 575 l 383 575 l 267 33 q 253 10 264 19 q 228 0 242 0 l 115 0 z "}}}
